<?xml version="1.0" encoding="UTF-8" standalone="no"?>
<!-- Created with Inkscape (http://www.inkscape.org/) -->

<svg
   xmlns:dc="http://purl.org/dc/elements/1.1/"
   xmlns:cc="http://creativecommons.org/ns#"
   xmlns:rdf="http://www.w3.org/1999/02/22-rdf-syntax-ns#"
   xmlns:svg="http://www.w3.org/2000/svg"
   xmlns="http://www.w3.org/2000/svg"
   xmlns:sodipodi="http://sodipodi.sourceforge.net/DTD/sodipodi-0.dtd"
   xmlns:inkscape="http://www.inkscape.org/namespaces/inkscape"
   version="1.1"
   id="svg2"
   xml:space="preserve"
   width="207.86667"
   height="60.466667"
   viewBox="0 0 207.86667 60.466667"
   sodipodi:docname="Logo_FZJ.svg"
   inkscape:version="0.92.3 (2405546, 2018-03-11)"><metadata
     id="metadata8"><rdf:RDF><cc:Work
         rdf:about=""><dc:format>image/svg+xml</dc:format><dc:type
           rdf:resource="http://purl.org/dc/dcmitype/StillImage" /><dc:title></dc:title></cc:Work></rdf:RDF></metadata><defs
     id="defs6" /><sodipodi:namedview
     pagecolor="#ffffff"
     bordercolor="#666666"
     borderopacity="1"
     objecttolerance="10"
     gridtolerance="10"
     guidetolerance="10"
     inkscape:pageopacity="0"
     inkscape:pageshadow="2"
     inkscape:window-width="1920"
     inkscape:window-height="1058"
     id="namedview4"
     showgrid="false"
     inkscape:zoom="1.7896087"
     inkscape:cx="37.997133"
     inkscape:cy="30.233334"
     inkscape:window-x="0"
     inkscape:window-y="0"
     inkscape:window-maximized="0"
     inkscape:current-layer="g10" /><g
     id="g10"
     inkscape:groupmode="layer"
     inkscape:label="ink_ext_XXXXXX"
     transform="matrix(1.3333333,0,0,-1.3333333,0,60.466667)"><g
       id="g12"
       transform="scale(0.1)"><path
         d="m 1184.51,84.2188 h -34.14 c -1.35,0 -2.48,-1.1329 -2.48,-2.4805 V 76.875 c 0,-1.3477 1.13,-2.3828 2.48,-2.3828 h 23.5 l -24.12,-30.832 c -1.23,-1.4414 -1.86,-2.168 -1.86,-4.5469 v -4.2422 c 0,-1.3438 1.13,-2.3828 2.48,-2.3828 h 34.14 c 1.35,0 2.38,1.039 2.38,2.3828 v 4.7578 c 0,1.3477 -1.03,2.4805 -2.38,2.4805 h -23.88 l 24.72,30.625 c 1.23,1.457 1.54,2.4804 1.54,4.0351 v 4.9688 c 0,1.3476 -1.03,2.4805 -2.38,2.4805 z m 51.23,-21.7305 h -22.34 v 1.1445 c 0,7.5508 4.76,12.1016 11.17,12.1016 6.41,0 11.17,-4.4453 11.17,-11.9961 z m -11.17,22.7656 c -12.42,0 -22.34,-9.1016 -22.34,-23.582 v -6.7305 c 0,-14.4805 9.92,-23.4883 22.44,-23.4883 7.65,0 16.66,3.7344 20.39,13.7617 0.19,0.5196 0.51,1.1446 0.51,1.6602 0,1.0352 -0.73,1.7578 -1.66,1.7578 h -6.72 c -1.45,0 -2.07,-1.0351 -2.39,-1.4453 -2.79,-5.4883 -6.62,-6.3203 -10.13,-6.3203 -6.41,0 -11.27,4.9726 -11.27,12.3164 v 1.4453 h 30.72 c 1.35,0 2.38,1.1445 2.38,2.4883 v 4.7578 c 0,13.8594 -9.72,23.3789 -21.93,23.3789 z M 1056.7,19.3555 h -8.18 c -7.04,0 -9.52,2.7929 -9.52,7.2383 0,4.5585 2.48,7.4492 9.52,7.4492 h 8.18 c 7.13,0 9.73,-2.8907 9.73,-7.4492 0,-4.4454 -2.6,-7.2383 -9.73,-7.2383 z m -5.39,57.207 h 2.79 c 6.21,0 9.73,-3.8281 9.73,-9.1016 -0.1,-5.3828 -3.71,-9.0039 -9.73,-9.0039 h -2.79 c -6.1,0 -9.73,3.6211 -9.73,9.0039 0,5.2735 3.63,9.1016 9.73,9.1016 z m 7.46,-34.0312 h -13.36 c -3.52,0 -5.06,1.0351 -5.06,3.621 0,2.375 1.66,3.7188 4.14,3.7188 h 10.04 c 11.58,0 19.65,6.2148 19.65,17.5898 v 21.211 c 0,1.3398 -1.04,2.375 -2.38,2.375 h -5.18 c -1.44,0 -2.48,-1.0352 -2.48,-2.375 v -6.7266 c -3.1,2.2735 -6.93,3.3086 -10.55,3.3086 H 1051 c -11.68,0 -19.75,-6.8242 -19.75,-17.793 0,-5.4882 2.07,-9.5195 6.62,-12.625 -4.86,-1.1367 -7.03,-4.4453 -7.03,-8.4765 0,-3.5156 1.54,-6.418 4.75,-7.8633 -4.55,-2.2734 -7.04,-6.418 -7.04,-11.9023 0,-8.6836 6.41,-15.8204 18.21,-15.8204 h 12.01 c 11.58,0 18.11,7.0313 18.11,15.8204 0,8.7968 -6.53,15.9375 -18.11,15.9375 z m 43.89,28.0351 c 0,4.3438 3.92,5.6836 8.38,5.6836 7.03,0 8.78,-3.5156 9.82,-6.4062 0.41,-1.0352 0.72,-1.5508 1.85,-1.5508 h 6.53 c 0.94,0 1.76,0.6133 1.76,1.7578 0,0.5156 -0.1,1.0351 -0.2,1.3359 -1.56,6.1133 -6.52,13.8672 -19.35,13.8672 -10.24,0 -19.56,-4.4414 -19.56,-15.2031 0,-21.0078 29.38,-12.3164 29.38,-23.0781 0,-4.7539 -3.61,-6.6211 -9.51,-6.6211 -7.44,0 -9.73,4.25 -10.55,6.9336 -0.31,1.0351 -0.72,1.6601 -1.87,1.6601 h -6.41 c -1.04,0 -1.76,-0.7305 -1.86,-1.6601 -0.11,-0.5157 0,-1.1329 0.1,-1.4454 1.23,-7.039 7.76,-14.3867 20.49,-14.3867 10.76,0 20.27,4.0352 20.27,15.7344 0,20.6836 -29.27,12.0977 -29.27,23.3789 z M 1071.6,172.961 v 22.187 c 0,5.094 -4.2,9.297 -9.3,9.297 h -79.8 v 159.907 c 0,5.097 -4.187,9.296 -9.297,9.296 h -24.89 c -5.11,0 -9.309,-4.199 -9.309,-9.296 V 172.961 c 0,-5.117 4.199,-9.316 9.309,-9.316 H 1062.3 c 5.1,0 9.3,4.199 9.3,9.316 z m 218.6,-87.7071 c -7.25,0 -11.49,-2.9961 -14.18,-7.0312 v 3.5156 c 0,1.3476 -1.14,2.4805 -2.48,2.4805 h -6.31 c -1.35,0 -2.39,-1.1329 -2.39,-2.4805 V 34.8711 c 0,-1.3438 1.04,-2.3828 2.39,-2.3828 h 6.31 c 1.34,0 2.48,1.039 2.48,2.3828 v 28.0391 c 0,8.2734 4.55,12.8242 10.95,12.8242 6.43,0 10.98,-4.5508 10.98,-12.8242 V 34.8711 c 0,-1.3438 1.03,-2.3828 2.38,-2.3828 h 6.31 c 1.35,0 2.48,1.039 2.48,2.3828 v 26.8008 c 0,14.0625 -6.21,23.582 -18.92,23.582 z m -297.993,0 c -7.246,0 -11.484,-2.9961 -14.18,-7.0312 v 3.5156 c 0,1.3476 -1.132,2.4805 -2.48,2.4805 h -6.309 c -1.347,0 -2.383,-1.1329 -2.383,-2.4805 V 34.8711 c 0,-1.3438 1.036,-2.3828 2.383,-2.3828 h 6.309 c 1.348,0 2.48,1.039 2.48,2.3828 v 28.0391 c 0,8.2734 4.551,12.8242 10.977,12.8242 6.406,0 10.957,-4.5508 10.957,-12.8242 V 34.8711 c 0,-1.3438 1.039,-2.3828 2.379,-2.3828 h 6.31 c 1.35,0 2.48,1.039 2.48,2.3828 v 26.8008 c 0,14.0625 -6.19,23.582 -18.923,23.582 z M 1549.75,373.648 h -24.91 c -5.09,0 -9.29,-4.199 -9.29,-9.296 v -75 h -71.11 v 75 c 0,5.097 -4.2,9.296 -9.29,9.296 h -24.91 c -5.09,0 -9.29,-4.199 -9.29,-9.296 V 172.961 c 0,-5.117 4.2,-9.316 9.29,-9.316 h 24.91 c 5.09,0 9.29,4.199 9.29,9.316 v 75.59 h 71.11 v -75.59 c 0,-5.117 4.2,-9.316 9.29,-9.316 h 24.91 c 5.09,0 9.29,4.199 9.29,9.316 v 191.391 c 0,5.097 -4.2,9.296 -9.29,9.296 z m -9.42,-288.3941 c -7.13,0 -12.52,-2.9961 -16.03,-8.3789 -3.3,5.8984 -8.89,8.3789 -15.2,8.3789 -7.05,0 -10.97,-3.2031 -13.46,-6.9336 v 3.418 c 0,1.3476 -1.13,2.4805 -2.48,2.4805 h -6.3 c -1.35,0 -2.39,-1.1329 -2.39,-2.4805 V 34.8711 c 0,-1.3438 1.04,-2.3828 2.39,-2.3828 h 6.3 c 1.35,0 2.48,1.039 2.48,2.3828 V 61.25 c 0,8.3789 1.66,14.4844 10.45,14.4844 8.07,0 9.83,-5.0703 9.83,-14.4844 V 34.8711 c 0,-1.3438 1.03,-2.3828 2.38,-2.3828 h 6.41 c 1.25,0 2.38,1.039 2.38,2.3828 V 61.25 c 0,8.8984 2.07,14.4844 10.45,14.4844 8.38,0 9.82,-5.586 9.82,-14.4844 V 34.8711 c 0,-1.3438 1.04,-2.3828 2.39,-2.3828 h 6.3 c 1.35,0 2.49,1.039 2.49,2.3828 v 25.3437 c 0,14.9024 -2.99,25.0391 -18.21,25.0391 z m -186.19,-1.0351 h -10.45 v 10.9687 c 0,1.3438 -1.03,2.4805 -2.38,2.4805 h -6.1 c -1.34,0 -2.38,-1.1367 -2.38,-2.4805 v -4.5508 c 0,-5.2734 -2.07,-6.4179 -7.13,-6.4179 -1.34,0 -2.38,-1.1329 -2.38,-2.4805 v -4.9688 c 0,-1.3398 1.04,-2.375 2.38,-2.375 h 7.03 V 49.043 c 0,-10.6524 3.62,-16.5547 16.04,-16.5547 h 5.37 c 1.35,0 2.48,1.039 2.48,2.3828 v 5.2773 c 0,1.3438 -1.13,2.3829 -2.48,2.3829 h -3.51 c -6.22,0 -6.94,2.1679 -6.94,8.0664 v 23.7968 h 10.45 c 1.35,0 2.48,1.0352 2.48,2.375 v 4.9688 c 0,1.3476 -1.13,2.4805 -2.48,2.4805 z m 0.97,154.4292 h -30.91 c -6,0 -7.2,-4.8 -7.79,-9.3 -1.51,-14.399 -12.31,-27.895 -34.2,-27.895 -21.91,0 -39.6,16.195 -39.6,47.098 v 39.597 c 0,30.899 17.69,47.704 39.6,47.704 21.89,0 31.79,-14.704 34.2,-29.106 0.89,-5.992 4.2,-8.098 7.5,-8.098 h 30.59 c 4.5,0 6.91,3.004 6.6,7.5 -2.4,36.301 -30.89,70.504 -78.89,70.504 -48.01,0 -83.11,-35.402 -83.11,-87.902 v -40.199 c 0,-52.504 35.1,-87.895 83.11,-87.895 48,0 76.79,35.391 79.49,70.797 0.3,3.297 -2.39,7.195 -6.59,7.195 z M 1460.64,84.2188 h -6.3 c -1.35,0 -2.39,-1.1329 -2.39,-2.4805 V 53.6992 c 0,-8.2773 -4.14,-12.832 -10.54,-12.832 -6.33,0 -10.16,4.5547 -10.16,12.832 v 28.0391 c 0,1.3476 -1.13,2.4805 -2.48,2.4805 h -6.31 c -1.35,0 -2.38,-1.1329 -2.38,-2.4805 V 54.9414 c 0,-14.4805 5.9,-23.4883 18.1,-23.4883 7.46,0 11.18,2.9024 13.77,6.6211 v -3.2031 c 0,-1.3438 1.04,-2.3828 2.39,-2.3828 h 6.3 c 1.35,0 2.49,1.039 2.49,2.3828 v 46.8672 c 0,1.3476 -1.14,2.4805 -2.49,2.4805 z m -59.6,0 h -1.35 c -6.72,0 -11.17,-3.5157 -13.75,-7.754 v 5.2735 c 0,1.3476 -1.04,2.4805 -2.39,2.4805 h -5.8 c -1.34,0 -2.38,-1.1329 -2.38,-2.4805 V 34.8711 c 0,-1.3438 1.04,-2.3828 2.38,-2.3828 h 6.21 c 1.35,0 2.49,1.039 2.49,2.3828 v 23.3828 c 0,9.7266 4.45,14.9024 13.14,14.9024 h 1.45 c 1.34,0 2.48,1.0351 2.48,2.371 v 6.211 c 0,1.3476 -1.14,2.4805 -2.48,2.4805 z M 1154.1,172.961 v 191.391 c 0,5.097 -4.2,9.296 -9.3,9.296 h -24.9 c -5.1,0 -9.29,-4.199 -9.29,-9.296 V 172.961 c 0,-5.117 4.19,-9.316 9.29,-9.316 h 24.9 c 5.1,0 9.3,4.199 9.3,9.316 z M 296.875,210.828 C 252.457,95.8281 146.254,52.668 49.4141,69.2852 71.6172,46.2813 99.0039,27.5898 130.805,15.3047 247.594,-29.832 378.855,28.2734 423.984,145.07 c 34.36,88.934 8.821,186.223 -56.871,247.524 z M 606.156,104.91 h -40.343 c -1.344,0 -2.379,-1.14 -2.379,-2.476 V 34.8711 c 0,-1.3438 1.035,-2.3828 2.379,-2.3828 h 6.304 c 1.352,0 2.488,1.039 2.488,2.3828 v 26.4883 h 24.93 c 1.348,0 2.485,1.0351 2.485,2.3789 v 5.5859 c 0,1.3399 -1.137,2.4844 -2.485,2.4844 h -24.93 v 22.6562 h 31.551 c 1.348,0 2.489,1.0313 2.489,2.3829 v 5.5863 c 0,1.336 -1.141,2.476 -2.489,2.476 z m 78.098,259.442 c 0,5.097 -4.199,9.296 -9.305,9.296 h -24.894 c -5.106,0 -9.301,-4.199 -9.301,-9.296 V 228.75 c 0,-18.895 -14.699,-27.297 -25.5,-27.297 -10.801,0 -25.199,8.402 -25.199,27.297 v 2.703 c 0,5.094 -4.2,9.301 -9.301,9.301 h -24 c -5.098,0 -9.305,-4.207 -9.305,-9.301 v -2.105 c 0,-43.496 33.606,-68.692 67.805,-68.692 34.801,0 69,25.196 69,68.692 z M 651.488,53.6992 c 0,-8.2773 -4.656,-12.832 -11.172,-12.832 -6.312,0 -11.074,4.5547 -11.074,12.832 v 9.211 c 0,8.2734 4.762,12.8242 11.074,12.8242 6.516,0 11.172,-4.5508 11.172,-12.8242 z m -11.172,31.5547 c -12.418,0 -22.246,-9.1016 -22.246,-23.582 v -6.7305 c 0,-14.4805 9.828,-23.4883 22.246,-23.4883 12.516,0 22.344,9.0078 22.344,23.4883 v 6.7305 c 0,14.4804 -9.828,23.582 -22.344,23.582 z M 843.098,391.949 c 12.898,0 21.597,8.699 21.597,21.602 0,12.898 -8.699,21.601 -21.597,21.601 -12.903,0 -21.606,-8.703 -21.606,-21.601 0,-12.903 8.703,-21.602 21.606,-21.602 z m -63,0 c 12.89,0 21.59,8.699 21.59,21.602 0,12.898 -8.7,21.601 -21.59,21.601 -12.907,0 -21.606,-8.703 -21.606,-21.601 0,-12.903 8.699,-21.602 21.606,-21.602 z M 942.832,84.2188 h -6.309 c -1.347,0 -2.382,-1.1329 -2.382,-2.4805 V 53.6992 c 0,-8.2773 -4.141,-12.832 -10.547,-12.832 -6.309,0 -10.137,4.5547 -10.137,12.832 v 28.0391 c 0,1.3476 -1.133,2.4805 -2.48,2.4805 h -6.309 c -1.348,0 -2.383,-1.1329 -2.383,-2.4805 V 54.9414 c 0,-14.4805 5.899,-23.4883 18.106,-23.4883 7.441,0 11.172,2.9024 13.75,6.6211 v -3.2031 c 0,-1.3438 1.035,-2.3828 2.382,-2.3828 h 6.309 c 1.348,0 2.481,1.039 2.481,2.3828 v 46.8672 c 0,1.3476 -1.133,2.4805 -2.481,2.4805 z M 162.715,260.523 236.777,452.207 c -92.011,9.957 -182.9215,-37.594 -226.0622,-122.07 -0.1367,-0.41 -0.1796,-0.828 -0.3398,-1.239 L 7.18359,320.625 C -15.2227,262.637 18.9727,219.797 52.1328,206.984 85.2344,194.191 140.316,202.551 162.715,260.523 Z M 863.145,85.2539 c -7.344,0 -11.582,-2.9961 -14.278,-6.9336 v 24.1137 c 0,1.336 -1.133,2.476 -2.48,2.476 h -6.309 c -1.348,0 -2.383,-1.14 -2.383,-2.476 V 34.8711 c 0,-1.3438 1.035,-2.3828 2.383,-2.3828 h 6.309 c 1.347,0 2.48,1.039 2.48,2.3828 v 28.0391 c 0,8.2734 4.551,12.8242 10.977,12.8242 6.406,0 10.957,-4.5508 10.957,-12.8242 V 34.8711 c 0,-1.3438 1.035,-2.3828 2.383,-2.3828 h 6.308 c 1.348,0 2.481,1.039 2.481,2.3828 v 26.8008 c 0,14.0625 -6.094,23.582 -18.828,23.582 z m -63.34,-9.5195 c 6.113,0 9.414,-3.7227 10.761,-9.1016 0.098,-0.7265 0.723,-1.5547 1.758,-1.5547 h 7.149 c 0.918,0 1.543,0.7227 1.543,1.6602 0,0.4101 0,0.832 -0.196,1.3359 -2.187,9.5235 -9.726,17.1797 -21.015,17.1797 -12.305,0 -22.032,-9.1016 -22.032,-23.582 v -6.7305 c 0,-14.4805 9.727,-23.4883 22.032,-23.4883 12.929,0 19.765,9.5235 21.015,16.6602 0.098,0.5195 0.196,1.2422 0.196,1.6523 0,0.9375 -0.723,1.6602 -1.758,1.6602 h -7.129 c -0.84,0 -1.465,-0.4102 -1.66,-1.4453 -1.348,-6.1016 -4.961,-9.1133 -10.664,-9.1133 -6.407,0 -11.168,4.5547 -11.168,12.832 v 9.211 c 0,8.2734 4.761,12.8242 11.168,12.8242 z m -94.078,8.4844 h -1.348 c -6.723,0 -11.172,-3.5157 -13.758,-7.754 v 5.2735 c 0,1.3476 -1.031,2.4805 -2.379,2.4805 h -5.793 c -1.344,0 -2.383,-1.1329 -2.383,-2.4805 V 34.8711 c 0,-1.3438 1.039,-2.3828 2.383,-2.3828 h 6.207 c 1.344,0 2.481,1.039 2.481,2.3828 v 23.3828 c 0,9.7266 4.453,14.9024 13.14,14.9024 h 1.45 c 1.343,0 2.48,1.0351 2.48,2.371 v 6.211 c 0,1.3476 -1.137,2.4805 -2.48,2.4805 z m 27.746,-13.6524 c 0,4.3438 3.929,5.6836 8.379,5.6836 7.031,0 8.793,-3.5156 9.824,-6.4062 0.414,-1.0352 0.726,-1.5508 1.863,-1.5508 h 6.52 c 0.925,0 1.757,0.6133 1.757,1.7578 0,0.5156 -0.101,1.0351 -0.211,1.3359 -1.546,6.1133 -6.511,13.8672 -19.343,13.8672 -10.242,0 -19.551,-4.4414 -19.551,-15.2031 0,-21.0078 29.379,-12.3164 29.379,-23.0781 0,-4.7539 -3.617,-6.6211 -9.516,-6.6211 -7.453,0 -9.726,4.25 -10.554,6.9336 -0.309,1.0351 -0.719,1.6601 -1.86,1.6601 h -6.414 c -1.035,0 -1.758,-0.7305 -1.867,-1.6601 -0.102,-0.5157 0,-1.1329 0.109,-1.4454 1.239,-7.039 7.758,-14.3867 20.485,-14.3867 10.754,0 20.277,4.0352 20.277,15.7344 0,20.6836 -29.277,12.0977 -29.277,23.3789 z m 146.82,303.0816 h -24.902 c -5.098,0 -9.297,-4.199 -9.297,-9.296 V 245.551 c 0,-30.895 -15,-44.098 -36.297,-44.098 -21.301,0 -35.703,13.203 -35.703,44.098 v 118.801 c 0,5.097 -4.199,9.296 -9.297,9.296 h -24.902 c -5.098,0 -9.305,-4.199 -9.305,-9.296 V 245.551 c 0,-52.492 31.805,-84.895 79.207,-84.895 47.398,0 79.793,32.403 79.793,84.895 v 118.801 c 0,5.097 -4.199,9.296 -9.297,9.296"
         style="fill:#07375e;fill-opacity:1;fill-rule:nonzero;stroke:none"
         id="path14"
         inkscape:connector-curvature="0" /></g></g></svg>