<?xml version="1.0" encoding="UTF-8" standalone="no"?>
<!-- Created with Inkscape (http://www.inkscape.org/) -->

<svg
   xmlns:dc="http://purl.org/dc/elements/1.1/"
   xmlns:cc="http://creativecommons.org/ns#"
   xmlns:rdf="http://www.w3.org/1999/02/22-rdf-syntax-ns#"
   xmlns:svg="http://www.w3.org/2000/svg"
   xmlns="http://www.w3.org/2000/svg"
   xmlns:sodipodi="http://sodipodi.sourceforge.net/DTD/sodipodi-0.dtd"
   xmlns:inkscape="http://www.inkscape.org/namespaces/inkscape"
   id="svg2"
   version="1.1"
   inkscape:version="0.91 r13725"
   width="529.96667"
   height="267.56177"
   viewBox="0 0 529.96667 267.56177"
   sodipodi:docname="INFN logo 2017.svg">
  <metadata
     id="metadata8">
    <rdf:RDF>
      <cc:Work
         rdf:about="">
        <dc:format>image/svg+xml</dc:format>
        <dc:type
           rdf:resource="http://purl.org/dc/dcmitype/StillImage" />
        <dc:title></dc:title>
      </cc:Work>
    </rdf:RDF>
  </metadata>
  <defs
     id="defs6" />
  <sodipodi:namedview
     pagecolor="#ffffff"
     bordercolor="#666666"
     borderopacity="1"
     objecttolerance="10"
     gridtolerance="10"
     guidetolerance="10"
     inkscape:pageopacity="0"
     inkscape:pageshadow="2"
     inkscape:window-width="1039"
     inkscape:window-height="605"
     id="namedview4"
     showgrid="false"
     fit-margin-top="0"
     fit-margin-left="0"
     fit-margin-right="0"
     fit-margin-bottom="0"
     inkscape:zoom="1"
     inkscape:cx="299.91396"
     inkscape:cy="131.6771"
     inkscape:window-x="0"
     inkscape:window-y="0"
     inkscape:window-maximized="0"
     inkscape:current-layer="svg2" />
  <g
     id="g4155"
     transform="translate(-0.03330184,-0.57145442)">
    <path
       sodipodi:nodetypes="ccccccccccccccccccccc"
       inkscape:connector-curvature="0"
       id="path4138-8"
       d="m 353.75128,150.00175 0,-52.500006 36.25004,0 36.25,0 0,8.125006 0,8.125 -26.875,0 -26.875,0 0,13.75 0,13.75 23.75,0 23.75,0 0,7.5 0,7.5 -23.75,0 -23.75,0 0,23.125 0,23.125 -9.37504,0 -9.375,0 z"
       style="fill:#4297b8;fill-opacity:1" />
    <path
       sodipodi:nodetypes="sssssssssssssssssscssscscccccsccccccccccccccccccccccccccccccccccccccccccc"
       inkscape:connector-curvature="0"
       id="path4138"
       d="M 96.547665,267.44015 C 36.401115,262.05321 0.01061811,237.56769 0.03331245,202.5 0.04268151,188.02276 8.3876841,167.28327 20.691307,151.15955 73.911682,81.414995 201.28754,19.866605 327.5,2.9086801 c 20.87904,-2.80531074 76.12169,-3.17628019 91.875,-0.6169657 32.58232,5.2933887 53.43993,13.9911536 67.6186,28.1974236 11.05642,11.077932 14.2564,18.524603 14.2564,33.176083 0,9.990458 -3.01579,22.443674 -6.98291,28.834779 -1.35305,2.179788 -1.69173,2.36883 -1.11972,0.625 2.14191,-6.529855 3.37479,-16.953023 2.60915,-22.058635 -0.46617,-3.108709 -2.93648,-9.201015 -5.48956,-13.538457 C 479.31861,38.92768 454.12977,26.16018 418.5997,21.201821 405.5002,19.373736 366.35299,19.36154 348.125,21.179864 287.49972,27.227509 223.3329,45.958354 168.125,73.723405 111.26539,102.31913 72.756668,134.54177 56.801144,166.875 c -10.288837,20.84991 -10.177245,37.64085 0.352017,52.96757 18.054005,26.27998 69.560029,39.1973 134.966249,33.84853 32.8938,-2.68998 75.34596,-11.18785 108.46319,-21.71165 7.53917,-2.39575 13.88045,-4.18308 14.0917,-3.97181 0.66862,0.66862 -33.43058,12.78824 -49.0493,17.43321 -32.62521,9.70267 -69.41965,17.35609 -100,20.80048 -16.5361,1.86252 -54.34139,2.51863 -69.077335,1.19882 z M 197.13289,202.96622 C 196.6473,202.48064 196.25,178.55209 196.25,149.79166 l 0,-52.29166 10.01356,0 10.01358,0 -0.32608,52.8125 -0.32606,52.8125 -8.80461,0.36206 c -4.84254,0.19913 -9.20191,-0.0353 -9.6875,-0.52084 z M 242.5,150.625 l 0,-53.125 9.87567,0 9.87569,0 23.56181,38.05064 23.56183,38.05064 0.33056,-38.05064 0.33056,-38.05064 8.73194,0 8.73194,0 0,53.17757 0,53.17759 -9.68669,-0.36509 -9.68669,-0.36507 -23.75081,-38.34615 -23.75081,-38.34616 -0.33031,38.65866 -0.3303,38.65865 -8.7322,0 -8.73219,0 z m 202.5,0 0,-53.125 9.87567,0 9.87569,0 23.56181,38.05064 23.56183,38.05064 0.33056,-38.05064 0.33057,-38.05064 8.73193,0 8.73194,0 0,53.17757 0,53.17759 -9.68669,-0.36509 -9.68669,-0.36507 -23.75081,-38.34615 -23.75081,-38.34616 -0.33031,38.65866 -0.3303,38.65865 -8.7322,0 -8.73219,0 z"
       style="fill:#162d4d;fill-opacity:1" />
  </g>
</svg>
