<?xml version="1.0" encoding="UTF-8"?>
<!DOCTYPE svg PUBLIC "-//W3C//DTD SVG 1.1//EN" "http://www.w3.org/Graphics/SVG/1.1/DTD/svg11.dtd">
<svg version="1.2" width="14.37mm" height="14.38mm" viewBox="10556 15206 1437 1438" preserveAspectRatio="xMidYMid" fill-rule="evenodd" stroke-width="28.222" stroke-linejoin="round" xmlns="http://www.w3.org/2000/svg" xmlns:ooo="http://xml.openoffice.org/svg/export" xmlns:xlink="http://www.w3.org/1999/xlink" xmlns:presentation="http://sun.com/xmlns/staroffice/presentation" xmlns:smil="http://www.w3.org/2001/SMIL20/" xmlns:anim="urn:oasis:names:tc:opendocument:xmlns:animation:1.0" xml:space="preserve">
 <defs class="ClipPathGroup">
  <clipPath id="presentation_clip_path" clipPathUnits="userSpaceOnUse">
   <rect x="10556" y="15206" width="1437" height="1438"/>
  </clipPath>
  <clipPath id="presentation_clip_path_shrink" clipPathUnits="userSpaceOnUse">
   <rect x="10557" y="15207" width="1435" height="1436"/>
  </clipPath>
 </defs>
 <defs class="TextShapeIndex">
  <g ooo:slide="id1" ooo:id-list="id3"/>
 </defs>
 <defs class="EmbeddedBulletChars">
  <g id="bullet-char-template(57356)" transform="scale(0.00048828125,-0.00048828125)">
   <path d="M 580,1141 L 1163,571 580,0 -4,571 580,1141 Z"/>
  </g>
  <g id="bullet-char-template(57354)" transform="scale(0.00048828125,-0.00048828125)">
   <path d="M 8,1128 L 1137,1128 1137,0 8,0 8,1128 Z"/>
  </g>
  <g id="bullet-char-template(10146)" transform="scale(0.00048828125,-0.00048828125)">
   <path d="M 174,0 L 602,739 174,1481 1456,739 174,0 Z M 1358,739 L 309,1346 659,739 1358,739 Z"/>
  </g>
  <g id="bullet-char-template(10132)" transform="scale(0.00048828125,-0.00048828125)">
   <path d="M 2015,739 L 1276,0 717,0 1260,543 174,543 174,936 1260,936 717,1481 1274,1481 2015,739 Z"/>
  </g>
  <g id="bullet-char-template(10007)" transform="scale(0.00048828125,-0.00048828125)">
   <path d="M 0,-2 C -7,14 -16,27 -25,37 L 356,567 C 262,823 215,952 215,954 215,979 228,992 255,992 264,992 276,990 289,987 310,991 331,999 354,1012 L 381,999 492,748 772,1049 836,1024 860,1049 C 881,1039 901,1025 922,1006 886,937 835,863 770,784 769,783 710,716 594,584 L 774,223 C 774,196 753,168 711,139 L 727,119 C 717,90 699,76 672,76 641,76 570,178 457,381 L 164,-76 C 142,-110 111,-127 72,-127 30,-127 9,-110 8,-76 1,-67 -2,-52 -2,-32 -2,-23 -1,-13 0,-2 Z"/>
  </g>
  <g id="bullet-char-template(10004)" transform="scale(0.00048828125,-0.00048828125)">
   <path d="M 285,-33 C 182,-33 111,30 74,156 52,228 41,333 41,471 41,549 55,616 82,672 116,743 169,778 240,778 293,778 328,747 346,684 L 369,508 C 377,444 397,411 428,410 L 1163,1116 C 1174,1127 1196,1133 1229,1133 1271,1133 1292,1118 1292,1087 L 1292,965 C 1292,929 1282,901 1262,881 L 442,47 C 390,-6 338,-33 285,-33 Z"/>
  </g>
  <g id="bullet-char-template(9679)" transform="scale(0.00048828125,-0.00048828125)">
   <path d="M 813,0 C 632,0 489,54 383,161 276,268 223,411 223,592 223,773 276,916 383,1023 489,1130 632,1184 813,1184 992,1184 1136,1130 1245,1023 1353,916 1407,772 1407,592 1407,412 1353,268 1245,161 1136,54 992,0 813,0 Z"/>
  </g>
  <g id="bullet-char-template(8226)" transform="scale(0.00048828125,-0.00048828125)">
   <path d="M 346,457 C 273,457 209,483 155,535 101,586 74,649 74,723 74,796 101,859 155,911 209,963 273,989 346,989 419,989 480,963 531,910 582,859 608,796 608,723 608,648 583,586 532,535 482,483 420,457 346,457 Z"/>
  </g>
  <g id="bullet-char-template(8211)" transform="scale(0.00048828125,-0.00048828125)">
   <path d="M -4,459 L 1135,459 1135,606 -4,606 -4,459 Z"/>
  </g>
  <g id="bullet-char-template(61548)" transform="scale(0.00048828125,-0.00048828125)">
   <path d="M 173,740 C 173,903 231,1043 346,1159 462,1274 601,1332 765,1332 928,1332 1067,1274 1183,1159 1299,1043 1357,903 1357,740 1357,577 1299,437 1183,322 1067,206 928,148 765,148 601,148 462,206 346,322 231,437 173,577 173,740 Z"/>
  </g>
 </defs>
 <defs class="TextEmbeddedBitmaps"/>
 <g class="SlideGroup">
  <g>
   <g id="container-id1">
    <g id="id1" class="Slide" clip-path="url(#presentation_clip_path)">
     <g class="Page">
      <g class="com.sun.star.drawing.ClosedBezierShape">
       <g id="id3">
        <rect class="BoundingBox" stroke="none" fill="none" x="10556" y="15206" width="1439" height="1439"/>
        <path fill="rgb(29,29,27)" stroke="none" d="M 11777,16427 C 11643,16562 11465,16636 11275,16636 11085,16636 10907,16562 10773,16427 10637,16293 10563,16115 10563,15925 10563,15735 10637,15556 10773,15422 10907,15288 11085,15214 11275,15214 11465,15214 11643,15288 11777,15422 11912,15556 11986,15735 11986,15925 11986,16115 11912,16293 11777,16427 Z M 11783,15417 C 11647,15281 11467,15206 11275,15206 11083,15206 10903,15281 10766,15417 10630,15552 10556,15733 10556,15925 10556,16117 10630,16297 10766,16433 10903,16569 11083,16644 11275,16644 11467,16644 11647,16569 11783,16433 11919,16297 11993,16117 11993,15925 11993,15733 11919,15552 11783,15417 Z M 11769,16418 C 11672,16516 11553,16580 11422,16608 11422,16603 11421,16577 11425,16561 11430,16544 11451,16537 11451,16537 11458,16535 11462,16532 11463,16527 11464,16521 11458,16516 11456,16513 L 11456,16493 11456,16492 11455,16491 11436,16470 11436,16453 C 11539,16421 11632,16359 11701,16276 L 11701,16275 C 11706,16269 11711,16263 11716,16257 11788,16161 11827,16046 11827,15925 11827,15788 11777,15657 11686,15556 11595,15455 11472,15392 11338,15376 L 11337,15376 C 11335,15375 11332,15373 11329,15371 11261,15328 11186,15379 11185,15380 11058,15401 10941,15467 10857,15565 10769,15665 10722,15793 10722,15925 10722,16047 10761,16163 10836,16260 10906,16350 11003,16418 11111,16452 L 11080,16492 11080,16493 11080,16512 C 11078,16515 11073,16521 11074,16527 11076,16533 11084,16537 11089,16537 11091,16538 11098,16542 11102,16552 11106,16563 11106,16596 11105,16603 10984,16573 10872,16509 10781,16418 10648,16287 10576,16111 10576,15925 10576,15738 10648,15563 10781,15431 10913,15299 11089,15227 11275,15227 11461,15227 11637,15299 11769,15431 11900,15563 11973,15738 11973,15925 11973,16111 11900,16287 11769,16418 Z M 11418,16609 C 11404,16612 11389,16615 11374,16617 L 11374,16578 11372,16576 11149,16576 11147,16578 11147,16612 C 11134,16610 11122,16607 11110,16604 11110,16600 11111,16570 11108,16555 L 11423,16555 11421,16560 C 11416,16577 11418,16605 11418,16609 Z M 11370,16617 C 11339,16622 11307,16624 11275,16624 11233,16624 11192,16620 11151,16613 L 11151,16581 11370,16581 11370,16617 Z M 11441,16537 C 11436,16540 11430,16544 11426,16550 L 11106,16550 C 11104,16544 11100,16540 11097,16537 L 11441,16537 Z M 11259,16496 C 11266,16497 11273,16498 11277,16498 L 11278,16498 C 11284,16498 11295,16498 11307,16495 L 11346,16495 11352,16501 11354,16506 C 11354,16510 11359,16522 11371,16522 11376,16522 11379,16519 11380,16517 11382,16517 11386,16517 11388,16515 11389,16513 11391,16511 11391,16508 L 11395,16505 C 11397,16504 11397,16501 11397,16499 L 11401,16496 11401,16495 11451,16495 11451,16515 11452,16516 C 11454,16518 11459,16523 11458,16527 11458,16529 11454,16531 11451,16532 L 11450,16532 11092,16533 11091,16533 11090,16533 C 11086,16533 11080,16530 11079,16526 11078,16521 11083,16516 11083,16516 L 11084,16513 11084,16496 11259,16496 Z M 11181,16456 L 11183,16457 C 11180,16460 11174,16462 11170,16464 11159,16465 11154,16466 11152,16469 L 11152,16471 C 11147,16471 11144,16473 11144,16476 11144,16479 11145,16482 11149,16485 11152,16487 11156,16489 11164,16488 L 11169,16486 C 11177,16484 11182,16483 11187,16485 11195,16487 11216,16486 11226,16482 11231,16486 11237,16489 11243,16491 L 11087,16491 11114,16456 11181,16456 Z M 11163,16297 C 11163,16308 11162,16331 11160,16339 11159,16346 11158,16366 11164,16382 11167,16392 11173,16394 11176,16394 L 11180,16394 C 11180,16402 11182,16426 11182,16433 11182,16436 11181,16440 11181,16443 11180,16446 11179,16449 11179,16451 L 11124,16451 C 11029,16424 10942,16370 10874,16297 L 11163,16297 Z M 10992,16276 L 10992,16295 10872,16295 C 10866,16289 10861,16282 10855,16276 L 10992,16276 Z M 10868,16253 L 10868,16273 10853,16273 C 10849,16268 10844,16262 10840,16257 L 10837,16253 10868,16253 Z M 10861,16210 L 10861,16250 10838,16250 10838,16210 C 10838,16203 10843,16198 10850,16198 10856,16198 10861,16203 10861,16210 Z M 10831,16192 L 10868,16192 10868,16250 10864,16250 10864,16210 C 10864,16202 10857,16195 10850,16195 10842,16195 10836,16202 10836,16210 L 10836,16250 10835,16250 10831,16245 10831,16192 Z M 10832,16177 L 10821,16177 10821,16170 10832,16170 10832,16177 Z M 10821,16179 L 10829,16179 10829,16242 C 10826,16238 10823,16234 10821,16230 L 10821,16179 Z M 10978,16156 L 10978,16126 C 10978,16119 10971,16112 10964,16112 10956,16112 10950,16119 10950,16126 L 10950,16156 10942,16156 10942,16109 C 10942,16088 10924,16074 10906,16074 10889,16074 10871,16087 10871,16109 L 10871,16156 10862,16156 10862,16126 C 10862,16119 10856,16112 10848,16112 10841,16112 10835,16119 10835,16126 L 10835,16156 10821,16156 10821,16104 10906,16059 10992,16105 10992,16156 10978,16156 Z M 10952,16156 L 10952,16126 C 10952,16120 10957,16114 10964,16114 10970,16114 10975,16120 10975,16126 L 10975,16156 10952,16156 Z M 10931,16111 L 10931,16156 10881,16156 10881,16111 C 10881,16097 10893,16086 10906,16086 10920,16086 10931,16097 10931,16111 Z M 10906,16083 C 10891,16083 10879,16096 10879,16111 L 10879,16156 10873,16156 10873,16109 C 10873,16089 10890,16077 10906,16077 10923,16077 10940,16089 10940,16109 L 10940,16156 10934,16156 10934,16111 C 10934,16096 10922,16083 10906,16083 Z M 10837,16156 L 10837,16126 C 10837,16120 10842,16114 10848,16114 10855,16114 10860,16120 10860,16126 L 10860,16156 10837,16156 Z M 10992,16168 L 10821,16168 10821,16158 10992,16158 10992,16168 Z M 10906,16177 C 10895,16177 10886,16184 10881,16193 L 10881,16179 10885,16179 10885,16170 10928,16170 10928,16179 10931,16179 10931,16193 C 10927,16184 10918,16177 10906,16177 Z M 10881,16205 C 10881,16191 10893,16179 10906,16179 10920,16179 10931,16191 10931,16205 L 10931,16273 10881,16273 10881,16205 Z M 10868,16179 L 10868,16190 10831,16190 10831,16179 10834,16179 10834,16170 10864,16170 10864,16179 10868,16179 Z M 10870,16179 L 10879,16179 10879,16273 10870,16273 10870,16179 Z M 10883,16177 L 10866,16177 10866,16170 10883,16170 10883,16177 Z M 10943,16273 L 10934,16273 10934,16179 10943,16179 10943,16273 Z M 10946,16177 L 10930,16177 10930,16170 10946,16170 10946,16177 Z M 10945,16190 L 10945,16179 10949,16179 10949,16170 10978,16170 10978,16179 10981,16179 10981,16190 10945,16190 Z M 10977,16250 L 10977,16210 C 10977,16202 10971,16195 10963,16195 10956,16195 10949,16202 10949,16210 L 10949,16250 10945,16250 10945,16192 10981,16192 10981,16250 10977,16250 Z M 10952,16250 L 10952,16210 C 10952,16203 10957,16198 10963,16198 10970,16198 10975,16203 10975,16210 L 10975,16250 10952,16250 Z M 10945,16253 L 10981,16253 10981,16273 10945,16273 10945,16253 Z M 10984,16179 L 10992,16179 10992,16273 10984,16273 10984,16179 Z M 10992,16177 L 10981,16177 10981,16170 10992,16170 10992,16177 Z M 10807,16092 L 10808,16092 10906,16036 11005,16092 11136,16092 C 11136,16094 11137,16097 11137,16099 L 11006,16099 10907,16045 10906,16044 10906,16045 10807,16099 10755,16099 C 10754,16097 10754,16094 10753,16092 L 10807,16092 Z M 11214,15409 L 11214,15410 C 11215,15410 11216,15410 11216,15409 L 11220,15407 11222,15409 C 11220,15410 11218,15412 11216,15413 L 11204,15419 C 11183,15430 11163,15439 11163,15439 L 11161,15441 11161,15443 11162,15444 11131,15459 11130,15459 11128,15463 C 11129,15466 11133,15467 11136,15467 11139,15468 11162,15473 11187,15479 11189,15486 11191,15494 11191,15495 11190,15496 11187,15506 11185,15513 11183,15520 11182,15523 11181,15525 11181,15527 11181,15530 11183,15532 11184,15533 11185,15534 11188,15534 11191,15534 11194,15533 11196,15533 L 11196,15532 11195,15537 11194,15539 C 11194,15541 11196,15545 11199,15547 L 11200,15554 11202,15554 11205,15555 11205,15561 C 11205,15562 11205,15567 11208,15571 11209,15573 11213,15576 11219,15576 11223,15576 11230,15574 11237,15571 11240,15571 11246,15572 11246,15575 11248,15580 11251,15603 11250,15606 11248,15609 11245,15611 11240,15613 11238,15613 11233,15614 11228,15614 11221,15614 11213,15614 11208,15616 11197,15620 11186,15631 11176,15647 11161,15652 11159,15663 11159,15664 11139,15673 11134,15710 11133,15715 11131,15717 11124,15728 11118,15740 11113,15734 11107,15727 11099,15720 11069,15691 11057,15676 11052,15670 11052,15670 11047,15663 11046,15658 L 11046,15657 C 11045,15655 11045,15651 11041,15648 11048,15646 11051,15639 11052,15634 11057,15632 11060,15630 11061,15627 11063,15624 11061,15621 11061,15621 L 11059,15620 11045,15619 C 11049,15614 11053,15608 11054,15597 11055,15586 11052,15576 11050,15568 11048,15563 11047,15559 11047,15554 11046,15543 11052,15539 11052,15538 L 11053,15536 11052,15534 C 11049,15533 11047,15534 11044,15535 11048,15504 11030,15496 11029,15496 L 11027,15497 11027,15499 C 11031,15503 11034,15509 11027,15524 11025,15528 11024,15532 11023,15535 L 11021,15533 11019,15534 C 11015,15542 11015,15549 11016,15559 L 11016,15566 C 11016,15573 11014,15576 11013,15581 11012,15584 11010,15588 11010,15595 11009,15605 11014,15614 11017,15619 L 10931,15617 10929,15618 C 10929,15619 10928,15622 10928,15624 L 10920,15624 C 10912,15624 10909,15622 10907,15621 10904,15619 10902,15617 10902,15614 10902,15611 10903,15609 10904,15607 10905,15606 10910,15603 10914,15603 10919,15604 10923,15608 10926,15616 10927,15617 10927,15617 10928,15617 L 10929,15617 10930,15616 10930,15615 C 10930,15605 10925,15597 10918,15593 10911,15589 10902,15589 10894,15594 10882,15601 10878,15617 10885,15630 10893,15644 10908,15647 10920,15649 10922,15651 10929,15654 10973,15669 10982,15669 11005,15672 11010,15674 11021,15679 11043,15722 11056,15747 11062,15759 11067,15769 11070,15772 11078,15787 11105,15816 11120,15816 11131,15816 11142,15803 11155,15788 L 11160,15782 C 11162,15787 11164,15791 11166,15794 11164,15797 11162,15800 11161,15803 11155,15814 11147,15837 11153,15855 11145,15864 11127,15888 11131,15912 11133,15926 11134,15935 11138,15940 11135,15949 11122,15992 11131,16005 L 11135,16009 C 11135,16014 11133,16030 11133,16038 11133,16047 11133,16049 11134,16060 11134,16060 11135,16066 11135,16072 11135,16074 11136,16080 11136,16088 L 11136,16090 11006,16090 10907,16034 10906,16034 10807,16090 10752,16090 C 10735,16037 10727,15982 10727,15925 10727,15794 10775,15667 10860,15568 10944,15470 11060,15405 11186,15385 L 11214,15409 Z M 11366,15507 L 11338,15485 11339,15482 C 11349,15444 11326,15421 11325,15420 L 11322,15420 11322,15423 C 11322,15423 11343,15444 11335,15478 L 11332,15475 C 11333,15472 11333,15469 11333,15465 11334,15442 11317,15421 11300,15410 11281,15398 11267,15395 11246,15399 11241,15400 11234,15403 11226,15407 L 11223,15404 C 11232,15399 11243,15396 11243,15396 L 11245,15393 11242,15391 C 11241,15391 11224,15396 11215,15404 L 11191,15382 C 11205,15373 11269,15338 11327,15375 11389,15414 11378,15484 11366,15507 Z M 11640,15752 C 11640,15743 11646,15736 11649,15733 11650,15736 11650,15739 11651,15743 11654,15753 11656,15760 11642,15772 11641,15768 11639,15760 11640,15752 Z M 11628,15821 C 11633,15814 11640,15806 11651,15804 11657,15802 11665,15801 11670,15800 11665,15811 11657,15819 11636,15820 11633,15820 11630,15820 11628,15821 Z M 11627,15805 C 11615,15794 11613,15782 11619,15771 11622,15778 11629,15793 11627,15806 L 11627,15805 Z M 11600,15861 C 11604,15857 11614,15853 11621,15852 11627,15851 11634,15850 11638,15850 11628,15867 11615,15871 11608,15872 11605,15873 11595,15873 11589,15872 L 11590,15872 11590,15871 C 11593,15868 11597,15864 11600,15861 Z M 11594,15852 C 11591,15843 11584,15816 11600,15804 11602,15809 11605,15819 11605,15828 11605,15839 11600,15851 11595,15859 L 11595,15860 C 11595,15857 11595,15854 11594,15852 Z M 11541,15880 C 11541,15871 11548,15850 11566,15842 11565,15846 11563,15853 11563,15856 L 11563,15857 C 11563,15877 11559,15890 11550,15896 L 11550,15897 11546,15899 11545,15900 11544,15900 11541,15902 C 11541,15898 11541,15889 11541,15880 Z M 11548,15903 C 11554,15900 11566,15900 11574,15900 L 11576,15900 C 11581,15900 11589,15897 11594,15895 11588,15907 11570,15916 11556,15916 11549,15916 11539,15914 11533,15913 11538,15910 11543,15906 11548,15903 Z M 11490,15906 C 11495,15894 11511,15882 11519,15877 11518,15882 11516,15888 11516,15892 11515,15905 11512,15922 11499,15933 L 11499,15934 C 11496,15936 11493,15939 11490,15941 11489,15935 11484,15919 11490,15906 Z M 11501,15938 C 11518,15931 11536,15933 11548,15935 L 11553,15935 C 11557,15936 11561,15936 11564,15935 L 11561,15937 C 11544,15951 11542,15953 11518,15951 11507,15950 11494,15950 11487,15950 11492,15946 11496,15942 11501,15938 Z M 11507,16090 C 11511,16084 11514,16078 11515,16071 11517,16051 11502,16041 11493,16036 11505,16030 11507,16014 11506,16006 L 11504,16003 11450,16003 11448,16000 11449,16000 11451,16000 C 11509,16002 11534,15985 11545,15971 L 11545,15968 11543,15967 C 11543,15967 11535,15969 11521,15967 L 11516,15966 C 11504,15964 11485,15961 11465,15970 L 11465,15969 C 11471,15964 11476,15960 11481,15955 11485,15955 11503,15954 11517,15955 11543,15957 11547,15955 11564,15941 11567,15938 11571,15936 11575,15933 L 11575,15930 11572,15929 C 11572,15929 11564,15932 11554,15931 L 11549,15930 C 11540,15929 11525,15927 11511,15930 11516,15926 11522,15921 11527,15917 11528,15918 11546,15920 11556,15920 11574,15920 11596,15909 11600,15891 L 11599,15889 11597,15889 C 11597,15889 11583,15896 11576,15896 L 11574,15896 C 11569,15896 11564,15896 11559,15896 11566,15891 11575,15885 11584,15877 11585,15877 11604,15877 11609,15877 11617,15875 11633,15870 11644,15849 L 11644,15847 11643,15846 C 11642,15846 11629,15845 11621,15847 11617,15848 11612,15849 11608,15851 11612,15846 11616,15840 11620,15833 11621,15832 11625,15824 11636,15824 11662,15824 11670,15811 11676,15798 L 11676,15795 11674,15794 C 11673,15795 11660,15797 11650,15799 11643,15801 11637,15805 11632,15809 11636,15799 11640,15789 11643,15778 11660,15763 11659,15754 11656,15741 11654,15735 11653,15729 11653,15729 L 11652,15727 11650,15727 C 11649,15727 11636,15736 11635,15752 11635,15763 11637,15774 11638,15776 11637,15784 11634,15791 11632,15797 11631,15781 11622,15767 11621,15766 L 11619,15765 11618,15766 C 11607,15778 11609,15795 11623,15808 L 11625,15815 C 11619,15827 11613,15837 11606,15845 11608,15840 11610,15834 11610,15828 11610,15815 11603,15801 11603,15800 L 11602,15799 11600,15799 C 11579,15811 11585,15842 11590,15853 11591,15857 11588,15865 11587,15868 11578,15876 11570,15883 11562,15888 11568,15877 11568,15863 11568,15857 L 11568,15856 C 11568,15851 11571,15839 11571,15839 L 11571,15836 11569,15836 C 11546,15844 11536,15869 11536,15880 11536,15893 11537,15904 11537,15905 11529,15910 11521,15916 11513,15923 11518,15913 11520,15901 11521,15893 11521,15887 11525,15873 11525,15873 L 11525,15871 11522,15871 C 11521,15871 11493,15886 11485,15905 11479,15921 11485,15940 11487,15944 11479,15951 11471,15958 11462,15966 11459,15969 11455,15973 11451,15977 11475,15937 11461,15904 11460,15901 L 11534,15623 11538,15623 C 11543,15623 11546,15620 11548,15617 11549,15613 11548,15609 11545,15606 L 11543,15605 C 11562,15581 11565,15569 11564,15567 L 11564,15569 11567,15488 11566,15486 11563,15487 C 11562,15490 11524,15554 11521,15561 11517,15568 11521,15593 11522,15600 L 11519,15601 C 11514,15602 11512,15606 11511,15610 11511,15614 11514,15618 11518,15619 L 11521,15620 11441,15915 C 11435,15922 11429,15931 11427,15940 11423,15951 11424,15961 11426,15969 L 11426,15972 C 11421,15967 11416,15961 11416,15959 11416,15956 11419,15929 11426,15892 11432,15856 11431,15837 11428,15816 11425,15796 11427,15783 11432,15758 L 11432,15755 C 11436,15731 11442,15685 11440,15657 11438,15635 11433,15628 11431,15626 11430,15621 11427,15606 11392,15601 11386,15600 11381,15600 11376,15600 11365,15600 11354,15595 11344,15587 11336,15580 11332,15571 11332,15563 11333,15548 11330,15539 11328,15536 L 11329,15534 11329,15532 C 11329,15532 11318,15516 11320,15499 11322,15497 11327,15490 11331,15480 L 11334,15483 11333,15485 11334,15488 11365,15513 11367,15513 11369,15512 C 11381,15492 11394,15425 11344,15382 11474,15398 11594,15461 11682,15559 11772,15660 11822,15789 11822,15925 11822,15982 11814,16037 11797,16090 L 11507,16090 Z M 11496,16099 C 11500,16097 11502,16095 11505,16092 L 11796,16092 C 11795,16094 11795,16097 11794,16099 L 11496,16099 Z M 11443,16109 C 11446,16105 11450,16102 11455,16100 11465,16106 11477,16107 11489,16103 L 11492,16102 11793,16102 C 11792,16104 11791,16107 11790,16109 L 11443,16109 Z M 11740,16168 L 11740,16139 C 11740,16132 11745,16127 11751,16127 11758,16127 11763,16132 11763,16139 L 11763,16168 11740,16168 Z M 11706,16168 L 11706,16139 C 11706,16132 11711,16127 11718,16127 11724,16127 11730,16132 11730,16139 L 11730,16168 11706,16168 Z M 11673,16168 L 11673,16139 C 11673,16132 11678,16127 11685,16127 11691,16127 11696,16132 11696,16139 L 11696,16168 11673,16168 Z M 11640,16168 L 11640,16139 C 11640,16132 11645,16127 11651,16127 11658,16127 11663,16132 11663,16139 L 11663,16168 11640,16168 Z M 11606,16168 L 11606,16139 C 11606,16132 11612,16127 11618,16127 11624,16127 11630,16132 11630,16139 L 11630,16168 11606,16168 Z M 11573,16168 L 11573,16139 C 11573,16132 11578,16127 11584,16127 11591,16127 11596,16132 11596,16139 L 11596,16168 11573,16168 Z M 11540,16168 L 11540,16139 C 11540,16132 11545,16127 11551,16127 11558,16127 11563,16132 11563,16139 L 11563,16168 11540,16168 Z M 11506,16168 L 11506,16139 C 11506,16132 11511,16127 11518,16127 11524,16127 11529,16132 11529,16139 L 11529,16168 11506,16168 Z M 11473,16168 L 11473,16139 C 11473,16132 11478,16127 11484,16127 11491,16127 11496,16132 11496,16139 L 11496,16168 11473,16168 Z M 11440,16168 L 11440,16139 C 11440,16132 11445,16127 11451,16127 11458,16127 11463,16132 11463,16139 L 11463,16168 11440,16168 Z M 11432,16182 C 11432,16178 11432,16174 11432,16170 L 11764,16170 C 11762,16174 11760,16178 11758,16182 L 11432,16182 Z M 11686,16250 L 11686,16214 C 11686,16205 11694,16198 11703,16198 11712,16198 11719,16205 11719,16214 L 11719,16245 11715,16250 11686,16250 Z M 11692,16273 L 11692,16253 11713,16253 11712,16254 C 11707,16261 11702,16267 11697,16273 L 11692,16273 Z M 11431,16295 C 11431,16289 11431,16282 11431,16276 L 11695,16276 C 11689,16282 11684,16289 11678,16295 L 11431,16295 Z M 11397,16469 C 11391,16461 11384,16453 11384,16453 11385,16450 11385,16440 11380,16434 11378,16432 11376,16431 11373,16431 11365,16425 11361,16403 11358,16378 L 11359,16379 11431,16379 11431,16469 11397,16469 Z M 11221,16479 C 11211,16482 11195,16482 11189,16481 11182,16479 11177,16480 11168,16482 L 11163,16483 C 11158,16484 11154,16484 11152,16482 L 11148,16476 C 11149,16475 11153,16475 11156,16474 11159,16474 11162,16473 11164,16472 11169,16470 11187,16461 11191,16459 11196,16460 11204,16463 11216,16475 L 11221,16479 Z M 11432,15984 L 11427,16006 11423,16010 11422,16004 11429,15977 C 11430,15980 11431,15982 11432,15984 Z M 11438,15999 C 11442,15993 11447,15988 11452,15983 11476,15964 11500,15968 11515,15971 L 11520,15971 C 11528,15972 11534,15972 11538,15972 11526,15984 11502,15997 11451,15996 L 11449,15996 C 11445,15996 11441,15997 11438,15999 Z M 11434,15996 L 11436,15990 11437,15992 11434,15996 Z M 11436,16017 L 11435,16022 11428,16016 11431,16009 11436,16017 Z M 11444,16041 L 11440,16038 11439,16036 11439,16035 C 11440,16033 11440,16030 11439,16027 L 11440,16017 11440,16015 11434,16006 C 11437,16004 11440,16002 11444,16001 L 11449,16012 C 11448,16017 11445,16035 11444,16041 Z M 11415,16100 C 11417,16105 11418,16109 11420,16111 L 11419,16111 C 11417,16108 11416,16104 11415,16100 Z M 11406,16084 L 11380,16180 C 11380,16176 11381,16172 11381,16168 11381,16163 11382,16157 11383,16150 L 11404,16072 C 11404,16076 11405,16080 11406,16084 Z M 11411,16044 L 11415,16031 11415,16032 11419,16035 11411,16065 C 11410,16058 11410,16051 11411,16044 Z M 11403,16058 L 11385,16126 C 11385,16114 11386,16103 11386,16093 11386,16069 11386,16029 11387,15998 11390,16007 11394,16016 11402,16020 11402,16020 11406,16023 11411,16027 11408,16031 11403,16040 11403,16058 Z M 11328,15874 L 11329,15873 C 11335,15868 11346,15859 11350,15846 11348,15865 11343,15910 11343,15917 11343,15919 11342,15921 11342,15923 L 11342,15925 C 11340,15918 11335,15910 11332,15904 L 11330,15901 C 11324,15890 11327,15877 11328,15874 Z M 11327,15904 L 11328,15906 C 11335,15918 11342,15932 11340,15945 11338,15951 11336,15956 11333,15960 L 11330,15965 C 11321,15976 11309,15992 11308,16011 11299,15981 11300,15952 11302,15935 11303,15916 11315,15892 11322,15881 11322,15887 11322,15896 11327,15904 Z M 11351,16105 C 11349,16099 11345,16091 11339,16080 11330,16064 11319,16045 11314,16027 11307,16002 11323,15982 11333,15968 L 11337,15963 C 11340,15958 11343,15952 11344,15946 11346,15938 11346,15929 11347,15923 11347,15921 11347,15919 11347,15917 11348,15909 11354,15850 11355,15839 L 11355,15837 C 11357,15825 11359,15795 11359,15786 11359,15775 11365,15659 11384,15637 11387,15634 11389,15632 11392,15631 11378,15647 11379,15681 11379,15697 L 11379,15702 C 11379,15730 11381,15764 11385,15801 11390,15851 11386,15944 11384,15964 11383,15987 11381,16058 11381,16093 11381,16116 11378,16146 11376,16168 11375,16180 11374,16190 11374,16194 11374,16201 11369,16240 11364,16274 11359,16303 11355,16330 11355,16337 L 11354,16343 C 11352,16322 11350,16300 11346,16284 11345,16279 11344,16273 11342,16266 11336,16245 11330,16222 11333,16202 11334,16197 11335,16192 11338,16187 L 11349,16150 C 11354,16133 11355,16119 11351,16105 Z M 11448,16253 L 11448,16273 11431,16273 C 11432,16267 11432,16260 11432,16253 L 11448,16253 Z M 11453,16250 L 11432,16250 C 11432,16232 11432,16215 11432,16198 L 11437,16198 C 11446,16198 11453,16205 11453,16214 L 11453,16250 Z M 11450,16253 L 11468,16253 11468,16273 11450,16273 11450,16253 Z M 11470,16253 L 11492,16253 11492,16273 11470,16273 11470,16253 Z M 11497,16250 L 11465,16250 11465,16214 C 11465,16205 11472,16198 11481,16198 11490,16198 11497,16205 11497,16214 L 11497,16250 Z M 11494,16253 L 11512,16253 11512,16273 11494,16273 11494,16253 Z M 11514,16253 L 11536,16253 11536,16273 11514,16273 11514,16253 Z M 11542,16250 L 11509,16250 11509,16214 C 11509,16205 11516,16198 11525,16198 11534,16198 11542,16205 11542,16214 L 11542,16250 Z M 11539,16253 L 11556,16253 11556,16273 11539,16273 11539,16253 Z M 11559,16253 L 11581,16253 11581,16273 11559,16273 11559,16253 Z M 11586,16250 L 11553,16250 11553,16214 C 11553,16205 11561,16198 11570,16198 11579,16198 11586,16205 11586,16214 L 11586,16250 Z M 11583,16253 L 11601,16253 11601,16273 11583,16273 11583,16253 Z M 11603,16253 L 11625,16253 11625,16273 11603,16273 11603,16253 Z M 11630,16250 L 11598,16250 11598,16214 C 11598,16205 11605,16198 11614,16198 11623,16198 11630,16205 11630,16214 L 11630,16250 Z M 11627,16253 L 11645,16253 11645,16273 11627,16273 11627,16253 Z M 11647,16253 L 11669,16253 11669,16273 11647,16273 11647,16253 Z M 11672,16253 L 11690,16253 11690,16273 11672,16273 11672,16253 Z M 11675,16250 L 11642,16250 11642,16214 C 11642,16205 11649,16198 11658,16198 11667,16198 11675,16205 11675,16214 L 11675,16250 Z M 11453,16011 L 11452,16008 11502,16008 C 11502,16014 11500,16032 11486,16034 L 11484,16036 11486,16038 C 11487,16038 11513,16046 11510,16071 11509,16083 11500,16094 11487,16099 11474,16104 11460,16101 11450,16091 11442,16084 11440,16075 11443,16067 11447,16058 11456,16051 11464,16051 11472,16051 11482,16053 11487,16058 11489,16061 11490,16065 11489,16069 11487,16077 11482,16081 11471,16080 L 11470,16080 11468,16082 11470,16085 11471,16085 C 11487,16086 11492,16077 11493,16070 11494,16064 11493,16059 11490,16055 11484,16049 11473,16046 11464,16046 11455,16046 11443,16055 11439,16065 11437,16071 11435,16083 11447,16095 L 11450,16097 C 11429,16108 11428,16149 11428,16154 11428,16217 11426,16355 11426,16374 L 11359,16374 11357,16375 C 11357,16369 11356,16363 11356,16358 11358,16354 11359,16345 11359,16338 11360,16331 11364,16304 11368,16275 11372,16246 11377,16217 11378,16202 L 11379,16201 11408,16094 C 11410,16101 11412,16108 11415,16116 L 11417,16118 11419,16117 11424,16113 11424,16110 C 11424,16110 11416,16095 11412,16076 L 11422,16038 C 11426,16041 11428,16043 11431,16043 L 11436,16040 C 11438,16043 11443,16046 11445,16046 L 11448,16045 11449,16042 C 11449,16040 11452,16023 11453,16012 L 11453,16011 Z M 11457,15906 C 11460,15916 11469,15949 11439,15987 11435,15980 11425,15962 11431,15941 11435,15926 11450,15912 11457,15906 Z M 11525,15621 L 11530,15622 11455,15902 C 11453,15903 11451,15905 11448,15908 L 11525,15621 Z M 11541,15609 C 11543,15611 11544,15613 11543,15615 11543,15617 11540,15618 11537,15619 11537,15619 11534,15618 11531,15618 L 11524,15616 11520,15615 C 11517,15614 11516,15612 11516,15610 11516,15608 11518,15606 11520,15605 11528,15603 11540,15608 11541,15609 Z M 11545,15554 L 11542,15555 C 11540,15562 11532,15594 11530,15601 L 11527,15600 C 11525,15588 11523,15568 11525,15563 11527,15557 11552,15515 11563,15497 L 11560,15569 C 11560,15568 11558,15579 11539,15603 L 11534,15602 C 11536,15594 11545,15563 11546,15556 L 11545,15554 Z M 11423,15817 C 11426,15838 11428,15856 11421,15891 11415,15927 11411,15954 11411,15959 11411,15963 11415,15967 11424,15977 L 11419,15996 11417,15998 11417,16000 11419,16013 11420,16015 11432,16026 C 11436,16029 11435,16033 11434,16035 L 11431,16038 C 11428,16038 11422,16032 11419,16029 L 11415,16025 C 11410,16020 11404,16017 11404,16017 11390,16007 11388,15979 11388,15978 11388,15973 11389,15968 11389,15965 11390,15944 11395,15851 11390,15801 11386,15764 11384,15730 11384,15702 L 11384,15697 C 11383,15680 11383,15641 11400,15629 11407,15625 11416,15625 11427,15630 11427,15630 11433,15633 11435,15657 11437,15685 11432,15730 11428,15754 L 11427,15757 C 11423,15782 11420,15796 11423,15817 Z M 11158,15856 C 11165,15850 11222,15773 11237,15745 11249,15724 11274,15688 11293,15660 L 11306,15641 C 11323,15617 11340,15606 11344,15604 11347,15605 11351,15606 11355,15608 11337,15618 11325,15634 11316,15646 11313,15650 11311,15653 11309,15655 11295,15672 11243,15760 11235,15774 11228,15787 11198,15849 11185,15875 L 11181,15884 11178,15891 C 11171,15904 11155,15939 11148,15939 11141,15939 11139,15935 11135,15911 11132,15887 11153,15861 11158,15856 Z M 11186,15776 L 11189,15771 C 11193,15766 11206,15753 11218,15741 L 11233,15726 C 11240,15718 11256,15700 11270,15685 11256,15707 11241,15728 11233,15743 11219,15769 11168,15839 11156,15851 11153,15835 11160,15814 11165,15805 11169,15796 11179,15784 11186,15776 Z M 11205,15648 C 11214,15647 11224,15646 11234,15644 11244,15642 11254,15640 11263,15637 11248,15645 11231,15652 11217,15654 11203,15657 11196,15658 11187,15659 11181,15660 11174,15661 11165,15662 L 11164,15662 C 11165,15659 11169,15653 11181,15651 11190,15650 11197,15649 11205,15648 Z M 11201,15436 C 11206,15436 11210,15439 11213,15444 11216,15452 11223,15458 11234,15464 11240,15468 11254,15474 11270,15481 11265,15484 11261,15488 11260,15492 11250,15489 11218,15481 11190,15475 L 11190,15474 C 11164,15468 11140,15463 11136,15463 L 11134,15462 11166,15447 C 11177,15442 11197,15436 11201,15436 Z M 11290,15485 L 11288,15484 C 11267,15476 11244,15465 11236,15460 11226,15455 11220,15449 11217,15442 11213,15435 11208,15431 11201,15431 11197,15431 11183,15436 11173,15439 11181,15435 11194,15429 11206,15423 L 11218,15417 C 11230,15410 11241,15404 11247,15403 11266,15399 11279,15402 11298,15414 11314,15424 11330,15444 11329,15465 11328,15482 11320,15492 11317,15495 11311,15493 11301,15490 11290,15485 Z M 11306,15537 C 11305,15533 11305,15531 11304,15528 L 11303,15522 11303,15521 C 11302,15517 11301,15512 11300,15509 L 11300,15508 C 11298,15501 11296,15496 11295,15492 11303,15495 11310,15498 11315,15499 11314,15514 11321,15527 11324,15532 L 11306,15537 Z M 11311,15571 C 11298,15558 11304,15545 11305,15541 L 11313,15539 11314,15539 C 11315,15540 11317,15544 11317,15549 L 11317,15554 C 11317,15558 11316,15561 11317,15569 11319,15581 11330,15593 11337,15599 11333,15600 11329,15600 11325,15602 11326,15590 11317,15578 11311,15571 Z M 11282,15511 C 11290,15513 11294,15517 11297,15519 11293,15517 11286,15515 11277,15513 11262,15510 11255,15500 11251,15494 11255,15495 11258,15496 11259,15497 11261,15499 11267,15506 11282,15511 Z M 11276,15485 L 11277,15485 C 11281,15486 11284,15488 11287,15489 11288,15490 11291,15493 11294,15502 L 11292,15501 C 11289,15499 11285,15497 11283,15494 11279,15491 11277,15487 11276,15485 Z M 11279,15497 C 11282,15500 11286,15503 11289,15505 11292,15506 11296,15509 11296,15510 L 11297,15513 C 11294,15511 11290,15508 11284,15507 11271,15503 11265,15497 11264,15495 11265,15492 11267,15488 11271,15485 11273,15488 11275,15493 11279,15497 Z M 11287,15522 L 11288,15521 C 11298,15524 11299,15526 11300,15528 11300,15531 11301,15535 11302,15539 11300,15543 11293,15559 11308,15575 11315,15582 11322,15594 11321,15603 11319,15604 11316,15605 11314,15607 11314,15599 11309,15590 11298,15581 11281,15565 11286,15549 11289,15539 L 11290,15535 C 11291,15529 11289,15524 11287,15522 Z M 11341,15591 C 11348,15597 11356,15601 11364,15603 L 11359,15605 11358,15604 C 11353,15602 11349,15600 11344,15600 11341,15597 11323,15583 11322,15568 11321,15561 11321,15558 11321,15554 L 11322,15549 C 11322,15545 11321,15541 11319,15538 L 11323,15537 C 11324,15539 11328,15547 11327,15563 11327,15572 11332,15582 11341,15591 Z M 11251,15573 C 11250,15570 11248,15569 11245,15568 11251,15566 11256,15563 11260,15562 L 11263,15560 11264,15557 11261,15556 11258,15557 C 11249,15561 11227,15571 11219,15571 11215,15571 11213,15570 11211,15568 11209,15566 11209,15563 11209,15562 11210,15559 11210,15556 11209,15553 11208,15551 11205,15550 11203,15550 L 11204,15547 11208,15546 11211,15544 11208,15541 C 11205,15542 11203,15542 11202,15543 L 11199,15540 C 11201,15537 11201,15534 11201,15532 L 11202,15532 11206,15530 11207,15527 11205,15525 11203,15527 11202,15527 11198,15527 11194,15528 C 11192,15529 11191,15529 11188,15529 L 11186,15529 11186,15525 C 11186,15525 11188,15519 11189,15514 11194,15500 11195,15496 11195,15495 11195,15493 11193,15485 11192,15480 11211,15484 11231,15489 11245,15493 11247,15496 11253,15508 11267,15514 L 11267,15515 C 11267,15515 11269,15518 11272,15519 11274,15519 11276,15519 11278,15518 L 11283,15519 C 11278,15525 11273,15524 11272,15524 L 11270,15526 11272,15529 C 11272,15529 11278,15530 11284,15525 11285,15527 11286,15530 11286,15534 L 11284,15538 C 11281,15548 11275,15566 11295,15584 11306,15593 11311,15602 11309,15609 11306,15611 11303,15613 11300,15615 11278,15628 11257,15636 11234,15640 11223,15641 11214,15642 11204,15643 11197,15644 11190,15645 11182,15646 11191,15633 11200,15624 11210,15620 11214,15619 11222,15618 11229,15618 11234,15618 11238,15618 11241,15617 11248,15615 11251,15612 11254,15608 11256,15603 11252,15578 11251,15573 Z M 11164,15724 C 11170,15719 11196,15685 11197,15683 L 11197,15680 11194,15680 C 11193,15681 11170,15712 11162,15720 11151,15712 11143,15712 11138,15713 11140,15702 11147,15669 11165,15667 11175,15665 11182,15664 11187,15664 11197,15662 11204,15661 11218,15659 11241,15654 11277,15637 11291,15625 11295,15623 11298,15621 11302,15619 11317,15610 11327,15605 11335,15604 11328,15609 11315,15620 11302,15639 L 11290,15657 11289,15658 C 11287,15660 11243,15708 11229,15723 L 11215,15737 C 11203,15750 11190,15763 11186,15769 L 11182,15773 C 11179,15778 11174,15784 11169,15790 11157,15772 11155,15732 11164,15724 Z M 11020,15559 C 11020,15555 11020,15552 11020,15550 L 11021,15554 11022,15555 C 11023,15560 11026,15569 11025,15577 L 11027,15580 11029,15578 C 11030,15571 11029,15565 11028,15560 11027,15558 11024,15540 11031,15526 11034,15519 11036,15513 11036,15508 11039,15514 11042,15524 11039,15541 L 11040,15544 11043,15543 11044,15541 C 11043,15544 11042,15549 11042,15554 11042,15560 11044,15564 11045,15570 11048,15578 11050,15586 11049,15596 11048,15608 11044,15612 11040,15618 L 11039,15619 11022,15619 C 11021,15617 11013,15607 11014,15595 11015,15589 11016,15586 11017,15582 11019,15578 11020,15573 11020,15566 11020,15563 11020,15561 11020,15559 Z M 10898,15615 C 10898,15619 10900,15622 10904,15625 10908,15627 10912,15628 10920,15629 L 10957,15630 10960,15627 10957,15625 10934,15624 10933,15622 11057,15624 11057,15626 C 11056,15627 11054,15629 11050,15630 L 11048,15632 C 11048,15632 11047,15644 11036,15644 L 11035,15644 C 11031,15643 11025,15642 11018,15642 11008,15643 10997,15645 10995,15645 10991,15645 10966,15643 10961,15642 10955,15640 10952,15642 10951,15643 L 10945,15641 C 10940,15640 10936,15642 10935,15643 10929,15641 10925,15642 10923,15643 L 10921,15645 C 10904,15642 10895,15637 10889,15628 10883,15617 10886,15604 10897,15598 10903,15594 10910,15594 10916,15597 10918,15598 10920,15600 10922,15602 10919,15600 10917,15599 10915,15599 10909,15598 10903,15602 10901,15604 10899,15607 10897,15611 10898,15615 Z M 11159,15777 L 11152,15785 C 11140,15798 11129,15811 11120,15811 11108,15811 11082,15786 11074,15770 11071,15767 11066,15757 11060,15745 11041,15708 11023,15675 11012,15670 11006,15667 10978,15664 10974,15664 10954,15658 10931,15650 10925,15647 10926,15647 10928,15646 10935,15648 L 10937,15647 C 10937,15647 10939,15645 10944,15646 L 10951,15647 10953,15647 C 10953,15647 10955,15645 10960,15646 10966,15648 10993,15650 10995,15650 10995,15650 11007,15647 11018,15647 11039,15646 11041,15654 11042,15658 L 11042,15659 C 11043,15665 11049,15672 11049,15672 11053,15679 11065,15694 11096,15724 11104,15732 11111,15739 11116,15745 L 11117,15746 C 11128,15761 11131,15770 11131,15770 L 11134,15772 11135,15769 C 11135,15768 11132,15759 11121,15744 11127,15732 11135,15720 11137,15717 11139,15717 11148,15716 11159,15723 11152,15733 11153,15758 11159,15777 Z M 11160,16276 C 11162,16283 11163,16290 11163,16295 L 10994,16295 10994,16276 11160,16276 Z M 10994,16253 L 11009,16253 11009,16273 10994,16273 10994,16253 Z M 11125,16253 L 11141,16253 11141,16273 11125,16273 11125,16253 Z M 11080,16253 L 11098,16253 11098,16273 11080,16273 11080,16253 Z M 11036,16253 L 11053,16253 11053,16273 11036,16273 11036,16253 Z M 11012,16253 L 11033,16253 11033,16273 11012,16273 11012,16253 Z M 11006,16250 L 11006,16214 C 11006,16205 11013,16198 11022,16198 11031,16198 11039,16205 11039,16214 L 11039,16250 11006,16250 Z M 11056,16253 L 11078,16253 11078,16273 11056,16273 11056,16253 Z M 11050,16250 L 11050,16214 C 11050,16205 11058,16198 11067,16198 11076,16198 11083,16205 11083,16214 L 11083,16250 11050,16250 Z M 11100,16253 L 11122,16253 11122,16273 11100,16273 11100,16253 Z M 11095,16250 L 11095,16214 C 11095,16205 11102,16198 11111,16198 11120,16198 11127,16205 11127,16214 L 11127,16250 11095,16250 Z M 11156,16253 C 11157,16259 11159,16266 11160,16273 L 11144,16273 11144,16253 11156,16253 Z M 11138,16250 L 11138,16214 C 11138,16209 11141,16204 11145,16201 11147,16213 11150,16225 11152,16233 L 11154,16241 C 11154,16243 11155,16246 11156,16250 L 11138,16250 Z M 11141,16184 C 11142,16189 11143,16194 11144,16199 11139,16202 11136,16208 11136,16214 L 11136,16250 11130,16250 11130,16214 C 11130,16204 11121,16195 11111,16195 11101,16195 11092,16204 11092,16214 L 11092,16250 11086,16250 11086,16214 C 11086,16204 11077,16195 11067,16195 11056,16195 11048,16204 11048,16214 L 11048,16250 11041,16250 11041,16214 C 11041,16204 11033,16195 11022,16195 11012,16195 11004,16204 11004,16214 L 11004,16250 10994,16250 10994,16184 11141,16184 Z M 11139,16170 L 11140,16175 11141,16182 10994,16182 10994,16170 11139,16170 Z M 11030,16139 L 11030,16168 11007,16168 11007,16139 C 11007,16132 11012,16127 11018,16127 11025,16127 11030,16132 11030,16139 Z M 11063,16139 L 11063,16168 11040,16168 11040,16139 C 11040,16132 11045,16127 11052,16127 11058,16127 11063,16132 11063,16139 Z M 11097,16139 L 11097,16168 11073,16168 11073,16139 C 11073,16132 11079,16127 11085,16127 11091,16127 11097,16132 11097,16139 Z M 11130,16139 L 11130,16168 11107,16168 11107,16139 C 11107,16132 11112,16127 11118,16127 11125,16127 11130,16132 11130,16139 Z M 11139,16168 L 11132,16168 11132,16139 C 11132,16131 11126,16125 11118,16125 11111,16125 11104,16131 11104,16139 L 11104,16168 11099,16168 11099,16139 C 11099,16131 11093,16125 11085,16125 11077,16125 11071,16131 11071,16139 L 11071,16168 11066,16168 11066,16139 C 11066,16131 11059,16125 11052,16125 11044,16125 11038,16131 11038,16139 L 11038,16168 11032,16168 11032,16139 C 11032,16131 11026,16125 11018,16125 11011,16125 11004,16131 11004,16139 L 11004,16168 10994,16168 10994,16106 11005,16111 11005,16112 11138,16112 C 11138,16115 11138,16119 11138,16121 L 11138,16129 C 11138,16140 11138,16153 11139,16168 Z M 11158,16240 L 11156,16232 C 11153,16218 11147,16191 11145,16175 11142,16158 11142,16142 11142,16129 L 11142,16121 C 11142,16113 11141,16099 11141,16088 11140,16081 11140,16074 11140,16072 11140,16066 11139,16060 11139,16059 11138,16049 11137,16046 11137,16038 11137,16029 11140,16007 11140,16007 L 11138,16005 11137,16004 11134,16002 C 11128,15993 11137,15958 11142,15943 11144,15943 11145,15944 11148,15944 11156,15944 11166,15925 11182,15893 L 11185,15886 11189,15877 C 11202,15851 11232,15789 11238,15777 11246,15763 11299,15674 11312,15658 11314,15655 11317,15652 11319,15649 11332,15632 11350,15609 11376,15605 L 11383,15605 C 11386,15605 11388,15605 11391,15605 11417,15609 11424,15619 11426,15624 11417,15621 11397,15616 11381,15634 11359,15658 11355,15785 11355,15786 11355,15794 11353,15818 11351,15831 11346,15813 11314,15787 11306,15781 11307,15776 11311,15757 11314,15744 11330,15675 11352,15640 11352,15640 L 11351,15637 11348,15637 C 11348,15638 11326,15673 11309,15743 11308,15752 11302,15780 11302,15782 L 11302,15784 C 11305,15786 11309,15789 11312,15792 11310,15803 11295,15881 11288,15905 11281,15930 11265,15970 11259,15983 11252,15997 11227,16041 11217,16056 11209,16068 11185,16104 11187,16156 L 11189,16159 11191,16156 C 11190,16105 11213,16070 11220,16059 11231,16043 11256,15999 11263,15985 11269,15972 11285,15932 11293,15906 11299,15884 11313,15813 11316,15796 11331,15809 11349,15827 11347,15837 11345,15853 11334,15863 11326,15870 L 11323,15873 C 11316,15880 11299,15911 11297,15935 11295,15956 11295,15997 11312,16035 11318,16051 11327,16068 11335,16082 11340,16092 11345,16101 11346,16106 11349,16115 11351,16128 11345,16149 L 11334,16185 C 11331,16191 11329,16196 11329,16202 11322,16233 11306,16288 11292,16301 11281,16311 11272,16312 11258,16313 11254,16313 11249,16313 11244,16314 11223,16317 11214,16328 11206,16338 L 11204,16341 C 11198,16348 11192,16364 11188,16376 11186,16381 11185,16385 11184,16386 11183,16388 11180,16390 11176,16390 11173,16389 11170,16386 11168,16381 11163,16365 11164,16346 11165,16339 11166,16332 11168,16307 11168,16296 11168,16285 11160,16250 11158,16240 Z M 11343,16491 L 11322,16491 C 11328,16488 11334,16485 11340,16481 11340,16483 11341,16487 11343,16491 Z M 11343,16472 C 11320,16493 11291,16493 11278,16493 L 11277,16493 C 11264,16493 11238,16489 11220,16472 11202,16456 11193,16454 11187,16454 L 11185,16453 11184,16453 C 11183,16452 11184,16447 11185,16444 11186,16440 11187,16437 11187,16433 11187,16425 11185,16399 11184,16392 L 11188,16388 C 11189,16387 11190,16383 11192,16377 11196,16366 11202,16350 11207,16344 L 11210,16340 C 11217,16331 11226,16321 11244,16318 11249,16318 11254,16317 11259,16317 11272,16316 11283,16315 11295,16304 11307,16293 11320,16255 11328,16223 11330,16238 11334,16253 11337,16267 11339,16274 11341,16280 11342,16285 11346,16302 11348,16325 11350,16347 11353,16383 11357,16418 11367,16431 11357,16433 11348,16440 11339,16453 L 11340,16456 11343,16456 C 11352,16442 11362,16435 11372,16435 L 11377,16437 C 11380,16441 11380,16447 11380,16451 11372,16449 11365,16451 11343,16472 Z M 11399,16485 L 11399,16486 11397,16488 11397,16493 11395,16495 11393,16496 11392,16497 11392,16502 11390,16503 11390,16502 11387,16501 11386,16503 11387,16506 11385,16510 11381,16512 C 11381,16507 11378,16503 11378,16503 L 11375,16503 11374,16506 C 11375,16507 11377,16510 11376,16513 L 11376,16515 C 11376,16515 11375,16518 11371,16518 11362,16518 11359,16507 11359,16506 11359,16503 11356,16499 11356,16498 L 11355,16498 C 11345,16490 11344,16480 11344,16477 L 11346,16475 C 11369,16454 11373,16454 11381,16455 L 11381,16456 C 11381,16456 11388,16464 11394,16473 11401,16482 11399,16485 11399,16485 Z M 11400,16473 L 11433,16473 11449,16491 11402,16491 11402,16488 C 11403,16487 11406,16483 11400,16473 Z M 11434,16374 L 11430,16374 C 11430,16366 11431,16335 11431,16297 L 11676,16297 C 11611,16367 11527,16420 11436,16448 L 11436,16377 11434,16374 Z M 11749,16198 C 11743,16208 11737,16218 11731,16228 L 11731,16214 C 11731,16205 11738,16198 11747,16198 L 11749,16198 Z M 11747,16195 C 11737,16195 11728,16204 11728,16214 L 11728,16231 C 11726,16235 11724,16238 11721,16241 L 11721,16214 C 11721,16204 11713,16195 11703,16195 11692,16195 11684,16204 11684,16214 L 11684,16250 11677,16250 11677,16214 C 11677,16204 11669,16195 11658,16195 11648,16195 11640,16204 11640,16214 L 11640,16250 11633,16250 11633,16214 C 11633,16204 11624,16195 11614,16195 11604,16195 11595,16204 11595,16214 L 11595,16250 11588,16250 11588,16214 C 11588,16204 11580,16195 11570,16195 11559,16195 11551,16204 11551,16214 L 11551,16250 11544,16250 11544,16214 C 11544,16204 11536,16195 11525,16195 11515,16195 11507,16204 11507,16214 L 11507,16250 11500,16250 11500,16214 C 11500,16204 11491,16195 11481,16195 11471,16195 11462,16204 11462,16214 L 11462,16250 11455,16250 11455,16214 C 11455,16204 11447,16195 11437,16195 L 11432,16196 C 11432,16192 11432,16188 11432,16184 L 11757,16184 C 11755,16188 11753,16192 11750,16196 L 11747,16195 Z M 11784,16127 C 11780,16136 11777,16144 11773,16152 L 11773,16139 C 11773,16133 11778,16128 11784,16127 Z M 11771,16139 L 11771,16157 C 11769,16161 11767,16164 11766,16168 L 11765,16168 11765,16139 C 11765,16131 11759,16125 11751,16125 11744,16125 11737,16131 11737,16139 L 11737,16168 11732,16168 11732,16139 C 11732,16131 11726,16125 11718,16125 11710,16125 11704,16131 11704,16139 L 11704,16168 11699,16168 11699,16139 C 11699,16131 11692,16125 11685,16125 11677,16125 11671,16131 11671,16139 L 11671,16168 11665,16168 11665,16139 C 11665,16131 11659,16125 11651,16125 11644,16125 11637,16131 11637,16139 L 11637,16168 11632,16168 11632,16139 C 11632,16131 11626,16125 11618,16125 11610,16125 11604,16131 11604,16139 L 11604,16168 11598,16168 11598,16139 C 11598,16131 11592,16125 11584,16125 11577,16125 11571,16131 11571,16139 L 11571,16168 11565,16168 11565,16139 C 11565,16131 11559,16125 11551,16125 11543,16125 11537,16131 11537,16139 L 11537,16168 11532,16168 11532,16139 C 11532,16131 11526,16125 11518,16125 11510,16125 11504,16131 11504,16139 L 11504,16168 11498,16168 11498,16139 C 11498,16131 11492,16125 11484,16125 11477,16125 11470,16131 11470,16139 L 11470,16168 11465,16168 11465,16139 C 11465,16131 11459,16125 11451,16125 11443,16125 11437,16131 11437,16139 L 11437,16168 11432,16168 11432,16154 C 11433,16142 11435,16124 11442,16112 L 11790,16112 C 11788,16116 11786,16120 11785,16125 11777,16125 11771,16131 11771,16139 Z M 10807,16109 L 10759,16109 C 10758,16107 10757,16104 10756,16102 L 10807,16102 10808,16101 10906,16047 11005,16101 11005,16102 11137,16102 C 11137,16104 11137,16107 11137,16109 L 11006,16109 10994,16103 10907,16056 10906,16056 10807,16109 Z M 10808,16168 L 10808,16139 C 10808,16131 10802,16125 10794,16125 10786,16125 10780,16131 10780,16139 L 10780,16159 C 10773,16144 10765,16128 10759,16112 L 10807,16112 10808,16111 10818,16106 10818,16168 10808,16168 Z M 10784,16168 L 10782,16164 10783,16164 10783,16139 C 10783,16132 10788,16127 10794,16127 10801,16127 10806,16132 10806,16139 L 10806,16168 10784,16168 Z M 10818,16184 L 10818,16227 C 10809,16213 10801,16199 10793,16184 L 10818,16184 Z M 10792,16182 C 10790,16178 10788,16174 10786,16170 L 10818,16170 10818,16182 10792,16182 Z M 11772,15428 C 11639,15295 11463,15222 11275,15222 11087,15222 10911,15295 10778,15428 10644,15561 10571,15737 10571,15925 10571,16112 10644,16289 10778,16422 10911,16555 11087,16629 11275,16629 11463,16629 11639,16555 11772,16422 11905,16289 11978,16112 11978,15925 11978,15737 11905,15561 11772,15428 Z M 11045,15390 C 11038,15393 11032,15394 11028,15391 11024,15389 11022,15385 11020,15379 L 11000,15332 C 10998,15326 10997,15323 10997,15322 10998,15321 11002,15318 11009,15315 11042,15301 11059,15322 11064,15336 11074,15359 11070,15380 11045,15390 Z M 11036,15304 C 11026,15304 11017,15307 11006,15312 10996,15316 10986,15321 10975,15326 L 10977,15329 10979,15328 C 10985,15327 10987,15329 10991,15338 L 11010,15386 C 11016,15399 11016,15401 11009,15405 L 11007,15406 11008,15409 C 11014,15407 11019,15405 11024,15402 11028,15400 11037,15398 11045,15395 11055,15391 11064,15385 11071,15377 11082,15363 11084,15346 11077,15330 11070,15314 11055,15303 11036,15304 Z M 11134,15360 L 11131,15361 C 11123,15362 11122,15360 11118,15346 L 11105,15299 C 11101,15286 11101,15283 11108,15280 L 11111,15279 11110,15276 C 11104,15278 11099,15280 11094,15281 11088,15283 11084,15284 11077,15285 L 11078,15289 11081,15288 C 11089,15286 11090,15289 11094,15302 L 11107,15349 C 11111,15363 11111,15365 11104,15368 L 11101,15369 11102,15373 C 11108,15371 11113,15369 11118,15368 11124,15366 11128,15365 11135,15363 L 11134,15360 Z M 11668,15478 C 11679,15461 11694,15441 11702,15429 11708,15422 11710,15420 11717,15425 L 11720,15426 11722,15423 C 11718,15421 11715,15418 11712,15416 11710,15415 11707,15413 11704,15410 11700,15415 11692,15418 11680,15425 L 11654,15438 C 11647,15441 11640,15445 11633,15448 11634,15441 11636,15434 11637,15427 L 11643,15393 C 11645,15383 11648,15374 11651,15370 11647,15368 11644,15366 11642,15364 11639,15362 11637,15360 11633,15357 L 11631,15360 11633,15361 C 11639,15367 11638,15369 11633,15376 11628,15382 11621,15391 11613,15399 11605,15410 11600,15415 11594,15422 11587,15429 11585,15429 11580,15426 L 11577,15424 11576,15427 C 11579,15430 11584,15433 11587,15435 11591,15438 11595,15442 11599,15445 L 11601,15442 11597,15439 C 11593,15435 11594,15433 11600,15425 11607,15416 11614,15406 11620,15400 11625,15394 11630,15388 11635,15381 L 11636,15381 C 11634,15388 11632,15395 11631,15402 L 11625,15431 C 11623,15438 11621,15452 11618,15460 L 11619,15461 11620,15461 C 11626,15458 11638,15451 11651,15445 L 11675,15433 C 11680,15431 11691,15425 11692,15424 L 11693,15425 11659,15470 C 11654,15477 11652,15479 11647,15476 L 11643,15474 11641,15476 C 11646,15480 11651,15483 11655,15486 11659,15489 11663,15492 11667,15496 L 11670,15493 11666,15490 C 11662,15486 11664,15483 11668,15478 Z M 10910,15472 L 10906,15474 C 10900,15479 10898,15477 10889,15466 L 10849,15420 C 10846,15417 10846,15417 10849,15414 L 10857,15408 C 10862,15403 10867,15401 10871,15400 10873,15400 10877,15403 10880,15406 L 10882,15403 C 10879,15400 10873,15391 10871,15386 L 10868,15387 C 10869,15391 10868,15392 10863,15397 L 10821,15433 C 10816,15437 10813,15440 10809,15437 L 10807,15439 C 10810,15444 10814,15452 10817,15458 L 10820,15456 C 10819,15453 10818,15450 10819,15445 10819,15441 10825,15436 10829,15432 L 10835,15427 C 10838,15424 10838,15424 10841,15427 L 10880,15474 C 10890,15485 10890,15487 10885,15492 L 10882,15496 10884,15498 C 10890,15492 10894,15489 10898,15486 10902,15482 10906,15479 10912,15474 L 10910,15472 Z M 11190,15350 C 11164,15354 11150,15330 11147,15310 11143,15280 11159,15268 11174,15266 11199,15262 11213,15285 11216,15307 11220,15333 11206,15348 11190,15350 Z M 11175,15261 C 11147,15265 11130,15289 11134,15316 11138,15340 11159,15359 11189,15355 11215,15351 11233,15328 11229,15301 11225,15277 11206,15257 11175,15261 Z M 11270,15301 C 11263,15301 11261,15301 11261,15301 11261,15300 11261,15298 11261,15296 L 11261,15264 C 11261,15260 11262,15260 11270,15260 11285,15260 11292,15270 11292,15281 11291,15291 11288,15295 11284,15298 11280,15301 11275,15301 11270,15301 Z M 11323,15346 C 11320,15346 11316,15344 11314,15342 11305,15334 11298,15323 11287,15305 L 11287,15302 C 11293,15299 11304,15292 11304,15279 11304,15270 11299,15264 11293,15260 11287,15257 11279,15256 11270,15256 11257,15255 11248,15256 11240,15256 L 11240,15260 11244,15260 C 11250,15261 11250,15263 11250,15276 L 11249,15325 C 11249,15340 11248,15341 11241,15342 L 11237,15343 11237,15346 C 11244,15346 11249,15346 11254,15346 11260,15346 11265,15346 11271,15346 L 11271,15343 11268,15343 C 11260,15341 11260,15340 11260,15325 L 11260,15308 C 11260,15305 11261,15305 11267,15305 11272,15305 11275,15307 11277,15310 11281,15316 11286,15326 11290,15331 11299,15345 11306,15348 11318,15348 11320,15348 11322,15348 11324,15348 L 11323,15346 Z M 11415,15276 C 11416,15275 11419,15274 11422,15274 L 11425,15274 11426,15271 C 11421,15270 11417,15270 11411,15269 11406,15268 11401,15267 11396,15266 L 11395,15270 11399,15270 C 11402,15271 11404,15272 11405,15274 11407,15279 11405,15294 11403,15303 L 11401,15318 C 11398,15338 11388,15353 11368,15350 11348,15347 11343,15331 11347,15310 L 11351,15280 C 11353,15266 11354,15264 11362,15265 L 11365,15265 11365,15262 C 11359,15261 11354,15260 11349,15260 11343,15259 11339,15258 11332,15257 L 11331,15260 11335,15261 C 11342,15262 11342,15265 11340,15279 L 11335,15311 C 11333,15327 11335,15337 11341,15344 11347,15351 11356,15354 11365,15355 11375,15357 11385,15355 11392,15349 11401,15342 11405,15330 11406,15319 L 11409,15303 C 11410,15296 11412,15280 11415,15276 Z M 11534,15306 C 11531,15306 11528,15305 11524,15303 11522,15309 11516,15314 11506,15324 L 11485,15345 C 11480,15350 11474,15356 11469,15361 11467,15354 11467,15347 11466,15340 L 11461,15305 C 11460,15295 11459,15286 11462,15281 11457,15280 11454,15279 11451,15278 11448,15277 11445,15276 11441,15274 L 11439,15277 11441,15278 C 11449,15282 11449,15284 11446,15292 11443,15299 11439,15310 11435,15321 11430,15333 11427,15340 11423,15348 11419,15357 11417,15357 11411,15356 L 11408,15355 11407,15359 C 11412,15360 11417,15361 11421,15363 11426,15365 11431,15366 11435,15368 L 11436,15365 11431,15363 C 11427,15361 11426,15358 11430,15349 11433,15338 11438,15327 11441,15319 11444,15312 11447,15304 11450,15296 L 11450,15297 C 11451,15303 11452,15311 11452,15318 L 11455,15347 C 11456,15354 11458,15369 11458,15376 L 11459,15377 11460,15377 C 11465,15372 11475,15362 11484,15353 L 11503,15334 C 11508,15330 11516,15321 11518,15320 L 11500,15374 C 11497,15382 11496,15384 11490,15383 L 11486,15382 11485,15385 C 11491,15387 11496,15389 11501,15390 11505,15392 11511,15394 11516,15396 L 11517,15393 11513,15391 C 11507,15388 11509,15385 11511,15378 11516,15359 11524,15335 11528,15322 11531,15313 11533,15311 11542,15313 L 11544,15313 11545,15310 C 11541,15309 11537,15308 11534,15306 Z M 11903,15761 L 11855,15772 C 11841,15775 11840,15775 11837,15768 L 11836,15764 11832,15765 C 11834,15772 11836,15777 11837,15782 L 11840,15794 C 11843,15808 11846,15821 11847,15828 11851,15829 11865,15829 11867,15829 L 11867,15825 C 11859,15824 11854,15822 11852,15820 11850,15818 11849,15815 11846,15804 11844,15793 11845,15790 11846,15789 11848,15786 11851,15784 11860,15783 L 11906,15772 C 11920,15769 11922,15769 11924,15776 L 11925,15779 11929,15778 C 11927,15772 11926,15767 11925,15762 11923,15757 11922,15752 11921,15745 L 11918,15745 11918,15749 C 11919,15757 11917,15758 11903,15761 Z M 10847,15501 C 10837,15492 10825,15493 10816,15496 L 10803,15500 C 10798,15501 10789,15502 10783,15497 10778,15493 10774,15485 10783,15475 10792,15465 10801,15468 10807,15471 L 10809,15469 C 10804,15465 10798,15461 10795,15459 L 10791,15462 C 10788,15464 10784,15467 10781,15470 10768,15484 10769,15498 10780,15507 10788,15514 10799,15514 10807,15512 L 10822,15508 C 10833,15505 10839,15508 10844,15512 10850,15518 10852,15527 10844,15535 10833,15547 10819,15542 10813,15539 L 10811,15542 C 10816,15546 10824,15551 10828,15552 10830,15551 10838,15548 10846,15540 10858,15527 10858,15511 10847,15501 Z M 11896,15868 L 11920,15875 C 11924,15876 11928,15878 11928,15878 11927,15879 11923,15881 11920,15882 L 11898,15891 C 11895,15892 11894,15892 11894,15888 L 11893,15871 C 11892,15868 11893,15867 11896,15868 Z M 11861,15852 C 11856,15850 11854,15847 11854,15844 L 11853,15840 11850,15840 C 11850,15844 11851,15849 11851,15853 11851,15860 11852,15864 11852,15867 L 11855,15867 11855,15863 C 11855,15860 11856,15859 11858,15859 11859,15859 11863,15859 11869,15861 L 11884,15865 C 11886,15865 11887,15866 11887,15870 L 11889,15890 C 11889,15894 11888,15895 11886,15896 L 11867,15903 C 11864,15905 11862,15905 11860,15906 11859,15906 11858,15904 11858,15901 L 11857,15897 11854,15898 C 11854,15901 11855,15907 11855,15913 11855,15919 11856,15924 11856,15930 L 11859,15929 11859,15926 C 11860,15920 11861,15918 11873,15913 L 11926,15891 C 11932,15888 11938,15886 11944,15883 L 11945,15881 C 11943,15880 11941,15878 11940,15875 11937,15875 11935,15875 11930,15873 L 11892,15862 C 11876,15857 11867,15854 11861,15852 Z M 10971,15367 C 10967,15360 10959,15347 10958,15342 10957,15340 10959,15338 10962,15336 L 10964,15334 10963,15331 C 10958,15334 10955,15336 10951,15339 10946,15342 10942,15344 10937,15347 L 10939,15350 10942,15348 C 10945,15347 10947,15346 10949,15347 10953,15349 10962,15362 10966,15370 L 10974,15383 C 10985,15400 10987,15418 10970,15428 10953,15439 10939,15430 10928,15412 L 10912,15387 C 10905,15375 10904,15373 10910,15368 L 10913,15366 10911,15363 C 10905,15367 10901,15370 10897,15373 10892,15375 10888,15378 10882,15381 L 10884,15384 10887,15382 C 10894,15379 10895,15381 10903,15393 L 10920,15420 C 10928,15434 10936,15440 10946,15442 10954,15443 10963,15439 10971,15435 10980,15429 10987,15421 10988,15412 10990,15401 10985,15390 10979,15380 L 10971,15367 Z M 10610,15974 C 10609,15959 10619,15951 10630,15951 10639,15950 10644,15953 10647,15956 10650,15960 10651,15965 10651,15970 10652,15977 10652,15979 10651,15980 10651,15980 10649,15980 10647,15980 L 10615,15982 C 10611,15983 10611,15982 10610,15974 Z M 10612,16000 C 10613,15994 10615,15993 10628,15993 L 10677,15990 C 10691,15989 10693,15989 10694,15997 L 10695,16000 10698,16000 C 10698,15993 10697,15988 10697,15983 10697,15977 10696,15973 10696,15966 L 10693,15966 10693,15969 C 10692,15977 10690,15978 10676,15978 L 10659,15980 C 10656,15980 10656,15979 10656,15973 10655,15968 10656,15966 10659,15963 10665,15959 10674,15953 10679,15949 10692,15938 10695,15931 10694,15920 10694,15917 10694,15915 10693,15914 L 10692,15914 C 10691,15918 10690,15921 10688,15924 10681,15933 10671,15941 10654,15953 L 10651,15954 C 10647,15947 10640,15938 10627,15938 10617,15939 10612,15944 10608,15951 10605,15957 10605,15965 10606,15974 10607,15987 10608,15996 10609,16004 L 10612,16004 10612,16000 Z M 10771,15595 C 10759,15588 10748,15591 10739,15596 L 10727,15602 C 10722,15604 10714,15607 10707,15603 10701,15600 10695,15593 10702,15581 10709,15570 10718,15571 10725,15573 L 10726,15570 C 10721,15567 10714,15564 10711,15564 L 10708,15567 C 10705,15570 10702,15574 10700,15577 10690,15593 10694,15607 10705,15613 10715,15619 10726,15616 10733,15613 L 10747,15606 C 10758,15601 10764,15603 10769,15606 10777,15610 10781,15619 10775,15629 10766,15642 10751,15640 10744,15638 L 10743,15641 C 10749,15645 10758,15648 10761,15648 10764,15647 10772,15642 10778,15632 10787,15617 10784,15602 10771,15595 Z M 10628,16092 L 10627,16090 C 10627,16082 10629,16081 10643,16078 L 10691,16068 C 10705,16065 10707,16066 10709,16073 L 10710,16077 10714,16076 C 10712,16069 10711,16064 10710,16058 L 10707,16046 C 10705,16034 10702,16023 10700,16010 10696,16010 10685,16008 10680,16008 L 10680,16012 C 10688,16014 10693,16016 10695,16019 10697,16021 10698,16025 10701,16035 10703,16047 10702,16050 10701,16052 10699,16055 10694,16056 10687,16057 L 10668,16061 C 10665,16062 10665,16062 10664,16058 L 10662,16050 C 10661,16045 10661,16041 10661,16039 10661,16037 10663,16035 10665,16034 L 10670,16032 10669,16029 C 10666,16029 10661,16031 10657,16032 10652,16033 10646,16033 10643,16034 L 10644,16037 10649,16037 C 10653,16037 10654,16038 10655,16040 10656,16041 10657,16045 10658,16051 L 10659,16059 C 10660,16063 10660,16063 10656,16064 L 10630,16069 C 10625,16070 10624,16070 10624,16066 L 10622,16057 C 10620,16051 10620,16047 10620,16044 10620,16036 10625,16034 10630,16031 L 10629,16028 C 10624,16029 10614,16032 10612,16033 10613,16035 10615,16043 10616,16051 L 10621,16076 C 10622,16082 10623,16086 10624,16092 L 10628,16092 Z M 10614,15831 L 10615,15828 C 10617,15820 10619,15820 10633,15823 L 10681,15831 C 10695,15833 10697,15834 10697,15842 L 10697,15845 10700,15846 C 10701,15839 10702,15834 10703,15829 10703,15823 10704,15819 10706,15812 L 10702,15811 10702,15815 C 10699,15822 10697,15822 10683,15820 L 10635,15812 C 10621,15809 10619,15809 10619,15801 L 10620,15797 10616,15797 C 10616,15804 10615,15808 10614,15814 10613,15819 10612,15824 10611,15831 L 10614,15831 Z M 10626,15900 C 10637,15900 10645,15893 10650,15887 L 10660,15874 C 10667,15865 10674,15864 10680,15865 10688,15865 10695,15871 10694,15883 10693,15899 10679,15903 10672,15905 L 10672,15908 C 10679,15908 10688,15907 10691,15906 10693,15903 10697,15896 10698,15885 10699,15867 10690,15855 10675,15854 10662,15853 10654,15861 10648,15869 L 10640,15880 C 10637,15884 10630,15890 10623,15890 10616,15889 10608,15886 10609,15873 10610,15859 10619,15856 10625,15855 L 10625,15852 C 10619,15851 10612,15852 10608,15853 L 10607,15858 C 10606,15861 10605,15866 10605,15870 10603,15888 10613,15899 10626,15900 Z M 10780,16326 C 10775,16331 10762,16342 10758,16343 10756,16344 10753,16343 10751,16341 L 10748,16338 10746,16341 C 10749,16344 10752,16347 10756,16351 10759,16355 10763,16359 10766,16363 L 10769,16361 10767,16358 C 10764,16355 10764,16353 10764,16351 10766,16347 10778,16336 10784,16330 L 10796,16320 C 10811,16306 10828,16301 10841,16315 10855,16331 10849,16346 10833,16360 L 10811,16380 C 10800,16390 10799,16391 10793,16386 L 10790,16384 10788,16386 C 10793,16391 10796,16394 10800,16398 10803,16402 10806,16406 10811,16411 L 10813,16409 10811,16406 C 10806,16400 10808,16398 10818,16388 L 10842,16367 C 10854,16356 10859,16347 10859,16337 10859,16328 10854,16320 10847,16313 10840,16306 10831,16301 10822,16301 10811,16301 10801,16308 10792,16316 L 10780,16326 Z M 10719,15747 L 10717,15751 C 10715,15759 10713,15758 10699,15755 L 10641,15738 C 10636,15736 10636,15737 10637,15733 L 10640,15723 C 10642,15716 10644,15711 10647,15709 10649,15708 10655,15708 10658,15709 L 10659,15705 C 10655,15704 10644,15700 10639,15697 L 10638,15700 C 10641,15703 10641,15704 10639,15711 L 10624,15764 C 10622,15770 10621,15774 10616,15774 L 10616,15776 C 10621,15779 10629,15783 10634,15787 L 10636,15784 C 10633,15781 10630,15779 10628,15775 10626,15771 10628,15764 10630,15758 L 10632,15751 C 10633,15747 10633,15747 10637,15748 L 10696,15765 C 10709,15769 10711,15770 10710,15778 L 10709,15783 10712,15784 C 10714,15775 10715,15771 10717,15766 10718,15760 10720,15756 10722,15749 L 10719,15747 Z M 10707,15675 L 10700,15690 C 10699,15694 10698,15694 10696,15692 L 10678,15675 C 10674,15672 10672,15669 10671,15668 L 10672,15668 C 10673,15668 10677,15668 10681,15669 L 10704,15671 C 10708,15671 10708,15671 10707,15675 Z M 10756,15654 L 10755,15658 C 10752,15663 10749,15663 10737,15662 L 10679,15658 C 10673,15657 10666,15657 10660,15656 L 10658,15658 C 10659,15660 10660,15663 10660,15666 10662,15667 10664,15668 10668,15672 L 10696,15699 C 10708,15711 10715,15718 10719,15722 10723,15726 10723,15730 10722,15733 L 10721,15737 10724,15738 C 10725,15735 10727,15730 10729,15726 10732,15720 10733,15716 10735,15713 L 10732,15711 10730,15715 C 10728,15718 10727,15719 10726,15718 10724,15717 10721,15715 10716,15711 L 10705,15701 C 10703,15699 10703,15698 10704,15695 L 10712,15676 C 10714,15672 10715,15672 10718,15672 L 10737,15674 C 10741,15674 10743,15674 10744,15675 10746,15675 10746,15678 10745,15680 L 10744,15684 10747,15685 C 10748,15681 10750,15677 10753,15671 10755,15665 10757,15661 10760,15656 L 10756,15654 Z M 10720,16239 C 10715,16242 10701,16252 10695,16253 10694,16253 10692,16251 10689,16248 L 10688,16246 10685,16248 C 10688,16252 10689,16255 10693,16260 10696,16264 10698,16268 10701,16274 L 10704,16272 10703,16270 C 10701,16265 10700,16263 10701,16261 10703,16257 10718,16247 10723,16244 L 10748,16228 C 10750,16226 10752,16225 10753,16225 10751,16234 10748,16244 10744,16258 L 10739,16277 C 10737,16283 10731,16307 10726,16313 L 10730,16318 C 10732,16320 10735,16326 10738,16331 L 10741,16329 10740,16327 C 10739,16324 10738,16321 10738,16318 10739,16314 10742,16312 10745,16310 L 10779,16289 C 10784,16285 10798,16276 10804,16275 10805,16275 10807,16276 10809,16279 L 10811,16282 10814,16280 C 10811,16276 10809,16273 10806,16268 10803,16264 10801,16260 10798,16254 L 10795,16256 10797,16260 C 10798,16263 10799,16265 10798,16267 10796,16271 10781,16281 10776,16284 L 10750,16301 C 10747,16303 10744,16304 10742,16305 10743,16300 10747,16287 10749,16281 L 10762,16235 C 10767,16218 10769,16212 10771,16209 L 10767,16208 C 10764,16210 10751,16219 10747,16221 L 10720,16239 Z M 10672,16115 C 10657,16114 10645,16113 10638,16111 10635,16110 10632,16109 10631,16106 L 10629,16102 10626,16104 C 10628,16108 10629,16112 10631,16116 10633,16121 10634,16126 10635,16129 L 10639,16129 10638,16126 C 10637,16122 10638,16120 10639,16119 10639,16119 10641,16119 10644,16119 10650,16119 10667,16120 10677,16121 10685,16121 10700,16122 10710,16123 10697,16134 10685,16146 10672,16157 10664,16164 10657,16169 10656,16170 10655,16170 10654,16169 10652,16164 L 10651,16163 10648,16164 C 10650,16169 10652,16174 10654,16179 10655,16185 10657,16189 10658,16193 L 10661,16192 10661,16190 C 10659,16184 10661,16181 10667,16175 L 10715,16133 C 10720,16129 10725,16124 10730,16121 L 10730,16119 10729,16118 C 10721,16118 10704,16117 10691,16116 L 10672,16115 Z M 10731,16182 L 10688,16203 C 10675,16210 10672,16210 10668,16204 L 10667,16201 10664,16202 C 10667,16208 10669,16212 10671,16217 10674,16223 10676,16227 10678,16233 L 10682,16232 10680,16229 C 10678,16221 10679,16220 10692,16214 L 10736,16192 C 10749,16186 10751,16185 10755,16192 L 10757,16195 10760,16193 C 10757,16187 10755,16183 10752,16178 10750,16173 10748,16169 10745,16163 L 10742,16164 10743,16167 C 10746,16175 10744,16176 10731,16182 Z M 11905,16150 L 11904,16152 C 11902,16155 11900,16157 11897,16158 11893,16160 11890,16159 11887,16157 L 11851,16141 C 11845,16139 11830,16132 11826,16128 11825,16127 11825,16125 11826,16122 L 11827,16118 11824,16117 C 11822,16121 11821,16125 11818,16130 11816,16135 11814,16139 11812,16144 L 11815,16146 11817,16142 C 11818,16139 11820,16137 11822,16137 11827,16137 11843,16144 11849,16146 L 11876,16158 C 11880,16160 11882,16161 11884,16163 11880,16164 11866,16168 11860,16170 L 11815,16184 C 11797,16190 11791,16191 11789,16192 L 11789,16195 C 11792,16196 11807,16202 11811,16204 L 11841,16217 C 11846,16220 11862,16226 11866,16230 11866,16231 11866,16234 11865,16239 L 11865,16240 11868,16242 C 11869,16237 11871,16234 11873,16229 11875,16224 11877,16220 11880,16214 L 11877,16212 11876,16215 C 11873,16219 11871,16221 11870,16221 11865,16222 11849,16215 11843,16212 L 11816,16200 C 11814,16199 11812,16198 11811,16197 11820,16194 11830,16191 11843,16187 L 11862,16181 C 11869,16179 11892,16171 11899,16172 L 11901,16166 C 11902,16163 11905,16157 11908,16152 L 11905,16150 Z M 11735,16349 L 11720,16352 C 11708,16355 11703,16351 11698,16347 11692,16342 11691,16332 11699,16324 11709,16312 11723,16318 11730,16321 L 11732,16318 C 11727,16314 11718,16309 11715,16308 11712,16309 11705,16312 11697,16320 11685,16333 11684,16348 11695,16358 11705,16367 11716,16366 11726,16364 L 11738,16361 C 11744,16359 11753,16358 11759,16364 11763,16368 11768,16376 11758,16386 11749,16395 11740,16392 11734,16389 L 11732,16391 C 11737,16395 11743,16400 11746,16401 L 11750,16398 C 11753,16396 11757,16393 11760,16390 11772,16377 11772,16363 11762,16354 11754,16346 11743,16347 11735,16349 Z M 11818,15718 C 11809,15693 11830,15674 11848,15667 11876,15656 11892,15670 11897,15683 11906,15707 11887,15725 11866,15733 11841,15743 11824,15733 11818,15718 Z M 11875,15745 C 11898,15736 11913,15713 11902,15684 11892,15658 11865,15646 11839,15656 11816,15665 11803,15689 11814,15718 11823,15742 11850,15755 11875,15745 Z M 11814,16318 L 11812,16320 C 11807,16326 11805,16325 11793,16316 L 11755,16287 C 11743,16278 11742,16276 11746,16269 L 11748,16267 11745,16265 C 11741,16270 11738,16274 11735,16279 11731,16283 11728,16286 11724,16292 L 11727,16294 11729,16292 C 11735,16286 11736,16287 11748,16295 L 11786,16325 C 11798,16334 11799,16335 11795,16342 L 11793,16345 11796,16347 C 11800,16341 11803,16338 11806,16333 11810,16329 11812,16325 11817,16320 L 11814,16318 Z M 11836,16252 C 11826,16246 11816,16248 11808,16252 L 11794,16258 C 11783,16263 11777,16261 11772,16257 11765,16253 11762,16244 11768,16235 11776,16221 11791,16224 11797,16226 L 11799,16223 C 11793,16219 11784,16216 11781,16216 11778,16217 11771,16221 11765,16231 11756,16246 11758,16261 11771,16269 11782,16276 11793,16273 11802,16268 L 11814,16263 C 11819,16260 11828,16258 11834,16262 11839,16265 11845,16273 11838,16284 11831,16295 11822,16293 11815,16291 L 11814,16294 C 11819,16297 11826,16300 11829,16301 L 11832,16298 C 11835,16295 11838,16291 11841,16288 11850,16273 11847,16259 11836,16252 Z M 11946,15946 L 11943,15946 11943,15948 C 11942,15951 11941,15954 11938,15956 11935,15959 11932,15958 11928,15958 L 11889,15954 C 11883,15953 11866,15952 11861,15949 11860,15948 11859,15946 11859,15943 L 11859,15939 11856,15939 C 11856,15944 11855,15948 11855,15953 11854,15958 11854,15963 11853,15969 L 11856,15970 11857,15966 C 11858,15962 11859,15960 11860,15959 11865,15957 11882,15959 11889,15959 L 11918,15963 C 11922,15963 11925,15963 11927,15964 11924,15967 11911,15975 11907,15978 L 11868,16006 C 11853,16016 11848,16020 11846,16021 L 11847,16024 C 11850,16024 11866,16025 11871,16026 L 11903,16029 C 11909,16030 11926,16031 11931,16034 11932,16035 11932,16038 11933,16042 L 11933,16044 11936,16044 C 11936,16039 11937,16036 11937,16030 11938,16025 11938,16020 11939,16014 L 11936,16014 11935,16016 C 11934,16021 11933,16023 11932,16024 11928,16026 11910,16024 11904,16024 L 11875,16021 C 11872,16020 11869,16020 11869,16020 L 11869,16019 C 11876,16014 11884,16008 11896,16000 L 11912,15988 C 11917,15984 11937,15970 11944,15968 L 11944,15962 C 11945,15959 11945,15952 11946,15946 Z M 11734,15540 C 11727,15542 11721,15543 11718,15542 11715,15541 11712,15538 11705,15531 11697,15522 11696,15519 11696,15516 11696,15513 11699,15510 11704,15505 L 11718,15492 C 11721,15489 11721,15489 11724,15492 L 11729,15498 C 11733,15502 11735,15504 11736,15506 11737,15509 11737,15511 11735,15513 L 11732,15517 11735,15520 C 11737,15518 11740,15514 11744,15510 11748,15507 11752,15504 11754,15501 L 11752,15499 11747,15502 C 11744,15504 11743,15503 11741,15503 11740,15502 11737,15499 11733,15495 L 11727,15489 C 11725,15486 11724,15486 11727,15483 L 11747,15464 C 11751,15461 11751,15461 11754,15464 L 11760,15471 C 11765,15475 11767,15478 11769,15481 11773,15487 11770,15492 11767,15497 L 11769,15500 C 11773,15495 11780,15488 11781,15486 11779,15485 11774,15479 11768,15473 L 11750,15454 C 11746,15450 11743,15446 11740,15442 L 11737,15444 11738,15446 C 11743,15452 11742,15454 11731,15464 L 11696,15497 C 11685,15507 11683,15508 11678,15503 L 11674,15500 11672,15503 C 11678,15508 11681,15511 11685,15516 L 11693,15525 C 11702,15533 11710,15542 11718,15552 11722,15550 11732,15545 11736,15543 L 11734,15540 Z M 11929,16060 L 11928,16062 C 11925,16069 11923,16069 11909,16066 L 11862,16053 C 11848,16050 11846,16049 11847,16041 L 11848,16036 11845,16036 C 11843,16044 11842,16048 11840,16054 L 11837,16066 C 11834,16078 11831,16089 11828,16101 11831,16104 11840,16110 11845,16112 L 11847,16109 C 11841,16104 11837,16099 11836,16096 11835,16093 11836,16089 11838,16079 11841,16067 11844,16065 11846,16063 11848,16062 11853,16063 11860,16064 L 11879,16069 C 11882,16070 11882,16071 11881,16074 L 11879,16082 C 11878,16087 11877,16090 11876,16092 11875,16095 11872,16095 11870,16095 L 11864,16095 11864,16098 C 11866,16099 11872,16100 11876,16101 11881,16102 11886,16104 11890,16105 L 11891,16102 11885,16099 C 11882,16098 11882,16096 11882,16095 11882,16093 11882,16089 11884,16083 L 11886,16076 C 11887,16072 11887,16071 11891,16072 L 11917,16079 C 11922,16080 11922,16080 11921,16084 L 11919,16094 C 11917,16100 11916,16104 11915,16106 11911,16113 11906,16113 11900,16113 L 11899,16117 C 11905,16118 11915,16119 11917,16119 11917,16117 11919,16110 11921,16101 L 11928,16076 C 11929,16071 11930,16066 11932,16061 L 11929,16060 Z M 11808,15649 L 11851,15626 C 11863,15619 11865,15618 11870,15625 L 11872,15628 11875,15626 C 11871,15620 11869,15616 11866,15611 11864,15606 11862,15602 11859,15596 L 11855,15597 11857,15601 C 11860,15608 11858,15609 11845,15616 L 11803,15639 C 11790,15646 11788,15646 11783,15640 L 11781,15637 11778,15639 C 11782,15645 11784,15649 11787,15654 11789,15659 11791,15663 11794,15669 L 11798,15667 11796,15664 C 11793,15657 11795,15656 11808,15649 Z M 11753,15592 C 11748,15585 11746,15580 11748,15575 11749,15571 11753,15568 11758,15564 L 11800,15536 C 11805,15532 11808,15531 11809,15531 11810,15531 11814,15534 11818,15541 11839,15571 11822,15591 11810,15599 11789,15614 11768,15614 11753,15592 Z M 11817,15610 C 11832,15600 11840,15584 11835,15565 11833,15556 11828,15547 11821,15538 11815,15528 11808,15519 11801,15510 L 11798,15512 11799,15515 C 11802,15520 11800,15522 11792,15527 L 11750,15557 C 11738,15565 11736,15566 11731,15560 L 11729,15557 11726,15560 C 11730,15565 11733,15569 11736,15573 11739,15577 11743,15585 11748,15592 11754,15601 11762,15609 11771,15614 11786,15622 11803,15620 11817,15610 Z M 11208,15500 L 11207,15499 11205,15495 C 11208,15495 11212,15496 11218,15499 11214,15500 11210,15500 11208,15500 Z M 11227,15500 C 11217,15493 11209,15490 11203,15491 L 11202,15491 11200,15492 11199,15492 11199,15494 11201,15495 11203,15499 11201,15501 11203,15503 C 11203,15503 11213,15506 11223,15502 L 11224,15503 11227,15502 11227,15500 Z M 11045,16189 C 11047,16189 11050,16191 11050,16194 11050,16197 11047,16199 11045,16199 11042,16199 11039,16197 11039,16194 11039,16191 11042,16189 11045,16189 Z M 11045,16201 C 11049,16201 11052,16198 11052,16194 11052,16190 11049,16186 11045,16186 11040,16186 11037,16190 11037,16194 11037,16198 11040,16201 11045,16201 Z M 11132,16189 C 11135,16189 11137,16191 11137,16194 11137,16197 11135,16199 11132,16199 11129,16199 11127,16197 11127,16194 11127,16191 11129,16189 11132,16189 Z M 11132,16201 C 11136,16201 11140,16198 11140,16194 11140,16190 11136,16186 11132,16186 11128,16186 11124,16190 11124,16194 11124,16198 11128,16201 11132,16201 Z M 11089,16189 C 11092,16189 11094,16191 11094,16194 11094,16197 11092,16199 11089,16199 11086,16199 11084,16197 11084,16194 11084,16191 11086,16189 11089,16189 Z M 11089,16201 C 11093,16201 11097,16198 11097,16194 11097,16190 11093,16186 11089,16186 11085,16186 11081,16190 11081,16194 11081,16198 11085,16201 11089,16201 Z M 11459,16199 C 11456,16199 11454,16197 11454,16194 11454,16191 11456,16189 11459,16189 11462,16189 11464,16191 11464,16194 11464,16197 11462,16199 11459,16199 Z M 11459,16186 C 11455,16186 11451,16190 11451,16194 11451,16198 11455,16201 11459,16201 11463,16201 11466,16198 11466,16194 11466,16190 11463,16186 11459,16186 Z M 11503,16199 C 11500,16199 11498,16197 11498,16194 11498,16191 11500,16189 11503,16189 11506,16189 11508,16191 11508,16194 11508,16197 11506,16199 11503,16199 Z M 11503,16186 C 11499,16186 11495,16190 11495,16194 11495,16198 11499,16201 11503,16201 11507,16201 11511,16198 11511,16194 11511,16190 11507,16186 11503,16186 Z M 11547,16199 C 11544,16199 11542,16197 11542,16194 11542,16191 11544,16189 11547,16189 11550,16189 11553,16191 11553,16194 11553,16197 11550,16199 11547,16199 Z M 11547,16186 C 11543,16186 11540,16190 11540,16194 11540,16198 11543,16201 11547,16201 11552,16201 11555,16198 11555,16194 11555,16190 11552,16186 11547,16186 Z M 11592,16199 C 11589,16199 11586,16197 11586,16194 11586,16191 11589,16189 11592,16189 11595,16189 11597,16191 11597,16194 11597,16197 11595,16199 11592,16199 Z M 11592,16186 C 11587,16186 11584,16190 11584,16194 11584,16198 11587,16201 11592,16201 11596,16201 11599,16198 11599,16194 11599,16190 11596,16186 11592,16186 Z M 11636,16199 C 11633,16199 11631,16197 11631,16194 11631,16191 11633,16189 11636,16189 11639,16189 11641,16191 11641,16194 11641,16197 11639,16199 11636,16199 Z M 11636,16186 C 11632,16186 11628,16190 11628,16194 11628,16198 11632,16201 11636,16201 11640,16201 11644,16198 11644,16194 11644,16190 11640,16186 11636,16186 Z M 11680,16199 C 11677,16199 11675,16197 11675,16194 11675,16191 11677,16189 11680,16189 11683,16189 11685,16191 11685,16194 11685,16197 11683,16199 11680,16199 Z M 11680,16186 C 11676,16186 11673,16190 11673,16194 11673,16198 11676,16201 11680,16201 11684,16201 11688,16198 11688,16194 11688,16190 11684,16186 11680,16186 Z M 11725,16199 C 11722,16199 11719,16197 11719,16194 11719,16191 11722,16189 11725,16189 11727,16189 11730,16191 11730,16194 11730,16197 11727,16199 11725,16199 Z M 11725,16186 C 11720,16186 11717,16190 11717,16194 11717,16198 11720,16201 11725,16201 11729,16201 11732,16198 11732,16194 11732,16190 11729,16186 11725,16186 Z"/>
       </g>
      </g>
     </g>
    </g>
   </g>
  </g>
 </g>
</svg>