<?xml version="1.0" encoding="UTF-8" standalone="no"?>
<svg xmlns:rdf="http://www.w3.org/1999/02/22-rdf-syntax-ns#" xmlns="http://www.w3.org/2000/svg" xml:space="preserve" viewBox="0 0 150 150" version="1.1" xmlns:cc="http://creativecommons.org/ns#" xmlns:dc="http://purl.org/dc/elements/1.1/" height="150" width="150"><g transform="matrix(1.25 0 0 -1.25 -5.5711 574.91)"><g style="" transform="matrix(1.6556 0 0 1.6556 -40.892 -260.81)"><path d="m46.172 0.99609c-24.812 0-45 20.188-45 45s20.188 45 45 45 45-20.188 45-45-20.188-45-45-45zm0 1.3574c24.065 0 43.641 19.578 43.641 43.643s-19.576 43.643-43.641 43.643-43.643-19.578-43.643-43.643 19.578-43.643 43.643-43.643zm0 1.3086c-23.338 0-42.324 18.987-42.324 42.324 0 23.35 18.987 42.346 42.324 42.346 23.338 0 42.322-18.996 42.322-42.346 0-23.338-18.985-42.324-42.322-42.324z" transform="matrix(.8 0 0 -.8 26.718 435.93)" fill="#a51417"/><path d="m46.172 2.457c-24.009 0-43.541 19.532-43.541 43.539 0 24.009 19.532 43.539 43.541 43.539 24.008 0 43.539-19.53 43.539-43.539-0.000001-24.008-19.532-43.539-43.539-43.539zm0 1.3711c23.252 0 42.168 18.917 42.168 42.168 0 23.252-18.915 42.17-42.168 42.17-23.252 0-42.17-18.917-42.17-42.17 0-23.251 18.917-42.168 42.17-42.168zm2.5059 1.4941c-0.2175-0.0275-0.26023 0.021328-0.27148 0.11133-0.01875 0.145 0.04711 0.20969 0.16211 0.24219 0.3725 0.1025 0.65859 0.30414 0.58984 0.83789l-0.51758 4.0645c-0.0375 0.29875-0.19039 0.62766-0.55664 0.69141-0.09375 0.01625-0.25273 0.04055-0.27148 0.18555-0.01875 0.14375 0.11789 0.16148 0.24414 0.17773 0.36125 0.04625 0.73055 0.02016 1.0918 0.06641 0.3625 0.045 0.71492 0.16273 1.0762 0.20898 0.41625 0.0525 0.52922 0.04133 0.54297-0.07617 0.01875-0.145-0.04586-0.21844-0.16211-0.24219-0.37625-0.075-0.66211-0.27633-0.56836-1.0176l0.19531-1.5352c0.01375-0.1175 0.08531-0.155 0.32031-0.125 0.33375 0.0425 0.44891 0.28719 0.56641 0.58594l0.81055 2.0664c0.1525 0.3875 0.44648 0.61008 0.70898 0.64258 0.29875 0.03875 1.3699 0.11922 1.4199-0.26953 0.0125-0.09875-0.01555-0.16789-0.12305-0.18164-0.0825-0.01-0.18445 0.0059-0.2832-0.0078-0.08125-0.01-0.14711-0.07234-0.22461-0.18359-0.37875-0.55375-1.162-2.4887-1.1445-2.625 0.01125-0.09 0.28086-0.11125 0.47461-0.1875 0.3975-0.17 0.74352-0.4475 0.82227-1.0625 0.19-1.49-1.0361-1.8755-2.2461-2.0293-0.3975-0.05125-1.0757-0.064453-1.5645-0.12695-0.64125-0.08125-0.87555-0.18344-1.0918-0.21094zm-2.2246 0.00391c-0.7 0.03-1.3984 0.13211-2.0996 0.16211-0.70125 0.02125-1.4005 0.079531-2.1055 0.019531-0.18125 0.00875-0.33633 0.015859-0.33008 0.16211 0.0063 0.145 0.20062 0.21719 0.48438 0.24219 0.38375 0.02875 0.45976 0.71 0.47852 1.1562l0.14844 3.4297c0.0225 0.51875-0.02266 0.74164-0.31641 0.90039-0.16 0.08875-0.33953 0.15844-0.33203 0.30469 0.0063 0.145 0.14328 0.14016 0.42578 0.12891 0.60875-0.0275 1.2162-0.12609 1.8262-0.15234 0.61-0.0275 1.222 0.01843 1.832-0.0078 0.4275-0.01875 0.81742-0.48281 0.91992-0.85156 0.05625-0.185 0.11422-0.54211 0.10547-0.72461-0.0038-0.09125-0.04359-0.17102-0.15234-0.16602-0.14625 0.00625-0.22524 0.31781-0.52148 0.63281-0.29625 0.31375-0.81133 0.62867-1.7676 0.66992-0.4825 0.02125-0.60406-0.0743-0.63281-0.74805l-0.06836-1.5566c-0.01-0.2275 0.06641-0.34914 0.50391-0.36914 0.5275-0.0225 0.79531 0.022266 1.0391 0.38477 0.1175 0.1775 0.12742 0.45031 0.26367 0.44531 0.17375-0.0075 0.16711-0.13617 0.16211-0.26367-0.0125-0.27375-0.05976-0.54461-0.07227-0.81836-0.01125-0.2725 0.01315-0.54781 0.002-0.82031-0.0063-0.1275-0.01219-0.2543-0.14844-0.24805-0.09125 0.00375-0.12484 0.031016-0.21484 0.29102-0.1275 0.3975-0.52203 0.57125-1.0508 0.59375-0.36375 0.01625-0.51914-0.023672-0.52539-0.16992l-0.07031-1.5918c-0.015-0.355 0.04383-0.43992 0.29883-0.45117l0.5918-0.025391c1.065-0.04625 1.339 0.18 1.4277 0.75 0.0125 0.08125 0.04711 0.24453 0.19336 0.23828 0.13625-0.00625 0.16-0.080391 0.15625-0.18164-0.01-0.2-0.055-0.39961-0.0625-0.59961-0.0087-0.20125 0.01849-0.40156 0.0098-0.60156-0.0087-0.18125-0.18844-0.17281-0.39844-0.16406zm-5.1797 0.23828c-0.04484-0.00906-0.09609 0.00297-0.13672 0.011719-0.3025 0.06375-0.59203 0.19992-0.89453 0.26367s-0.62133 0.056094-0.92383 0.12109c-0.08875 0.0175-0.19602 0.039844-0.16602 0.18359 0.02125 0.0975 0.09148 0.12813 0.24023 0.17188 0.25875 0.075 0.52266 0.047578 0.69141 0.14258 0.095 0.05375 0.1525 0.14445 0.1875 0.31445 0.02875 0.13375-0.0043 0.32609-0.06055 0.58984l-0.621 2.9608c-0.0375 0.17625-0.06859 0.25633-0.12109 0.26758-0.045 0.01-0.09742-0.06289-0.29492-0.33789l-1.824-2.5099c-0.105-0.145-0.24164-0.3107-0.27539-0.4707-0.04375-0.205-0.05649-0.38977 0.19726-0.50977 0.135-0.065 0.27024-0.13094 0.24024-0.27344s-0.18945-0.1075-0.25195-0.09375c-0.40125 0.085-0.7875 0.24047-1.1875 0.32422-0.40125 0.085-0.8175 0.098594-1.2188 0.18359-0.125 0.02625-0.21359 0.045-0.18359 0.1875s0.12883 0.12102 0.26758 0.16602c0.17125 0.0575 0.44766 0.093906 0.72266 0.47266l3.2812 4.4629c0.19625 0.26625 0.28031 0.35102 0.41406 0.32227 0.0975-0.02 0.2007-0.06062 0.31445-0.57812l1.0625-4.7871c0.1275-0.58625 0.17609-0.84719 0.33984-1.0859 0.1425-0.2075 0.33008-0.24812 0.29883-0.39062-0.015-0.07125-0.05281-0.10031-0.09766-0.10938zm9.623 0.41797c0.07734-0.009 0.17328-0.00555 0.29297 0.00977 0.7775 0.09875 1.0845 0.77969 1.002 1.4297-0.115 0.90375-0.4968 1.2405-1.3105 1.1367-0.5775-0.073766-0.55086-0.27993-0.53711-0.38868l0.22656-1.7812c0.03094-0.24375 0.09414-0.37924 0.32617-0.40625zm6.4297 0.85938c-0.88247-0.054602-1.6433 0.51953-1.8555 1.3125-0.64125 2.4025 2.8083 2.5799 2.4258 4.0137-0.1725 0.6425-0.77438 0.88766-1.3906 0.72266-0.8275-0.22125-1.2955-1.0066-1.4355-1.7891-0.02625-0.14875-0.0073-0.39781-0.18359-0.44531-0.15-0.04-0.2025 0.02273-0.21875 0.08398-0.02125 0.08-0.0099 0.21508-0.01367 0.29883l-0.01953 1.3047c0.0025 0.13375 0.14211 0.17945 0.22461 0.2207 0.50875 0.24875 0.95188 0.56484 1.5156 0.71484 1.3112 0.35125 2.2712-0.56156 2.5-1.4141 0.6475-2.43-2.8297-2.5116-2.4297-4.0078 0.13375-0.50125 0.6832-0.68477 1.2207-0.54102 0.6675 0.17875 1.2617 0.95875 1.293 1.6562 0.01125 0.23875 0.0092 0.38914 0.16797 0.43164 0.1225 0.0325 0.19656-0.031484 0.22656-0.14648 0.02625-0.09625 0.09875-0.93539 0.25-1.4316 0.03125-0.115 0.01805-0.17508-0.0957-0.20508-0.08-0.02125-0.30484 0.049688-0.40234 0.023437-0.29-0.0775-0.64898-0.54023-1.3965-0.74023-0.12984-0.034688-0.25674-0.0547-0.38281-0.0625zm-23.404 0.2324c-0.05313 0.00156-0.11445 0.027031-0.17383 0.050781-0.33875 0.13375-0.64953 0.33375-0.98828 0.46875-0.33875 0.13375-0.70422 0.20094-1.043 0.33594-0.245 0.0975-0.49125 0.19508-0.4375 0.33008 0.05375 0.13625 0.14531 0.16906 0.25781 0.13281 0.36625-0.115 0.71438-0.077734 0.92188 0.44727l1.5117 3.8105c0.11125 0.28 0.17867 0.62492-0.11133 0.85742-0.075 0.05875-0.20219 0.15797-0.14844 0.29297s0.18055 0.08522 0.3418 0.02149c0.3375-0.13375 0.65148-0.33695 0.99024-0.4707 0.33875-0.135 0.70234-0.20094 0.96484-0.30469 0.24625-0.0975 0.49125-0.19508 0.4375-0.33008-0.05375-0.13625-0.14406-0.16781-0.25781-0.13281-0.1925 0.0575-0.72094 0.07969-0.92969-0.44531l-1.512-3.8079c-0.11-0.27875-0.22164-0.60734 0.06836-0.83984 0.075-0.05875 0.28617-0.19312 0.23242-0.32812-0.02687-0.0675-0.07187-0.089453-0.125-0.087891zm26.711 0.94531c-0.03463 0.00766-0.05984 0.026797-0.07422 0.060547-0.05625 0.13375-0.01641 0.21969 0.08984 0.27344 0.34125 0.175 0.5618 0.44805 0.3418 0.9668l-1.601 3.7737c-0.1175 0.2775-0.31164 0.56875-0.68164 0.53125-0.095-0.01-0.2543-0.02828-0.31055 0.10547-0.0575 0.13375 0.06977 0.18836 0.22852 0.25586 0.335 0.1425 0.69695 0.21688 1.0332 0.35938 0.335 0.1425 0.64234 0.35289 0.90234 0.46289 0.24375 0.1025 0.48547 0.20602 0.54297 0.07226 0.05625-0.135 0.01516-0.22234-0.08984-0.27734-0.1775-0.095-0.57156-0.44875-0.35156-0.96875l1.602-3.7737c0.117-0.2762 0.27-0.5863 0.64-0.5488 0.09375 0.01125 0.33703 0.063436 0.39453-0.070312 0.0575-0.135-0.06805-0.18633-0.18555-0.23633-0.335-0.1425-0.70016-0.21883-1.0352-0.36133-0.336-0.1412-0.641-0.3516-0.976-0.4941-0.183-0.0769-0.365-0.1538-0.469-0.1309zm-30.02 0.377c-0.04078 0.0009375-0.08305 0.025-0.12305 0.046875-0.28125 0.1475-0.5293 0.35977-0.81055 0.50977s-0.59766 0.23477-0.87891 0.38477c-0.145 0.07875-0.29726 0.16031-0.22852 0.28906 0.06875 0.12875 0.31383 0.069608 0.54883 0.00586 0.55875-0.1525 0.85226 0.32156 1.1348 0.85156l0.9707 1.8262c0.06 0.1125 0.11383 0.22867 0.04883 0.26367-0.0475 0.025-0.21617-0.01977-0.38867-0.07227l-4.8281-1.5684c-0.115-0.04125-0.18383-0.03641-0.36133 0.05859-0.24125 0.12625-0.46578 0.28726-0.70703 0.41602-0.24125 0.12875-0.49898 0.22281-0.74023 0.35156-0.05625 0.0325-0.10586 0.0568-0.03711 0.18555s0.19359 0.09258 0.52734 0.08008c0.375-0.0125 0.73203 0.36492 0.89453 0.66992l1.6113 3.0332c0.235 0.4425 0.23235 0.74391-0.06641 1.1914-0.08625 0.12875-0.16125 0.22086-0.09375 0.34961 0.06875 0.12875 0.15828 0.07961 0.23828 0.03711 0.2825-0.15 0.52734-0.36367 0.80859-0.51367 0.2825-0.15 0.59766-0.23477 0.87891-0.38477 0.145-0.07625 0.33695-0.17859 0.25195-0.33984-0.08125-0.1525-0.33727 0.0051-0.57227 0.04883-0.45 0.08375-0.74508-0.14141-0.95508-0.53516l-1.527-2.87c-0.10375-0.19375-0.09078-0.22875-0.05078-0.25 0.04-0.0225 0.29008 0.04039 0.54883 0.11914l5.3281 1.6953c0.30875 0.09375 0.62219 0.18422 0.71094 0.13672 0.09625-0.05125 0.07937-0.16578-0.10938-0.51953l-2.0625-3.877c-0.235-0.44125-0.2389-0.73805 0.05859-1.1855 0.0875-0.12875 0.1625-0.22086 0.09375-0.34961-0.03437-0.064375-0.0725-0.084922-0.11328-0.083984zm33.42 0.98828c-0.05047 0.00766-0.0893 0.045078-0.13867 0.11133l-0.54688 0.75586c-0.05875 0.0825-0.13844 0.18391-0.17969 0.25391-0.0275 0.0475-0.02406 0.11274 0.08594 0.17774 0.08625 0.05 0.14664 0.05224 0.18164 0.0098 0.6525-0.66375 1.0275-0.52718 1.7812-0.08594 0.37875 0.22 0.53023 0.39203 0.36523 0.67578l-2.1309 3.6504c-0.3625 0.62125-0.89195 0.30133-1.2207 0.26758-0.11-0.01125-0.23008-0.1139-0.33008 0.05859-0.07375 0.12625 0.02023 0.18133 0.11523 0.23633 0.46375 0.27125 0.97898 0.48953 1.459 0.76953 0.48 0.28 0.92367 0.62133 1.3887 0.89258 0.09375 0.055 0.18727 0.11133 0.25977-0.01367 0.10125-0.17375-0.04563-0.22836-0.10938-0.31836-0.19-0.27-0.72898-0.57406-0.36523-1.1953l2.1289-3.6484c0.1525-0.26 0.33703-0.27008 0.76953-0.01758 0.755 0.44125 1.0576 0.70195 0.79883 1.5957-0.02 0.05125 0.0059 0.0993 0.09961 0.1543 0.06375 0.03625 0.16 0.0494 0.1875 0.002 0.0325-0.055 0.06094-0.12164 0.08594-0.18164l0.392-0.847c0.13125-0.28125 0.12008-0.31859-0.07617-0.43359-0.78625-0.46125-1.6323-0.87109-2.4336-1.3398-0.8025-0.46875-1.5627-0.99414-2.3652-1.4629-0.09-0.051875-0.1507-0.074063-0.20117-0.066406zm-40.328 2.7872c-0.0375 0.000937-0.08367 0.02648-0.1543 0.08398-0.2125 0.17125-0.40273 0.37242-0.61523 0.54492-0.2125 0.17125-0.44766 0.31383-0.66016 0.48633-0.1775 0.145-0.23867 0.24242-0.16992 0.32617 0.09125 0.11375 0.23898 0.07758 0.36523-0.01367 0.40625-0.29375 0.77391-0.21476 1.0664 0.14648l1.463 1.803c0.63625 0.785 1.1452 2.0499-0.12109 3.0762-0.87 0.70625-1.9049 0.55992-2.5762-0.26758l-1.783-2.202c-0.20625-0.25375-0.27797-0.56078-0.13672-0.86328 0.0675-0.1475 0.14297-0.2568 0.07422-0.3418-0.0575-0.07125-0.12688-0.08477-0.29688 0.05273-0.2825 0.22875-0.52023 0.51539-0.80273 0.74414-0.28375 0.23-0.61203 0.40281-0.89453 0.63281-0.3475 0.2825-0.38203 0.36805-0.30078 0.4668 0.07375 0.0925 0.17508 0.10429 0.26758 0.0293 0.2975-0.24125 0.65867-0.28836 1.0137 0.15039l1.8086 2.2285c1.09 1.345 2.287 1.2766 3.582 0.22656 1.5988-1.2962 1.7659-2.7549 0.49219-4.3262l-1.2227-1.5078c-0.49875-0.61625-0.54445-0.78852-0.4082-1.041 0.08-0.14625 0.20062-0.25539 0.10938-0.36914-0.03438-0.0425-0.06211-0.06734-0.09961-0.06641zm45.998 0.58398c-0.02629 0.0047-0.05078 0.01907-0.07422 0.04687-0.0925 0.1125 0.0168 0.25156 0.1543 0.41406 0.165 0.185 0.22265 0.45859 0.09766 1.0898l-0.58594 2.8594c-0.0125 0.085-0.03695 0.15852-0.0957 0.22852l-0.73047 0.87305c-0.2925 0.34875-0.60672 0.51352-1.0117 0.25977-0.1775-0.11375-0.32976-0.22985-0.44726-0.08984-0.1225 0.14625 0.07258 0.30891 0.26758 0.47266 0.315 0.26375 0.67656 0.47117 0.91406 0.66992 0.335 0.28125 0.60297 0.59883 0.91797 0.86133 0.19625 0.16375 0.39117 0.32914 0.51367 0.18164 0.1175-0.14-0.02422-0.26953-0.16797-0.42578-0.32125-0.3525-0.21633-0.69102 0.07617-1.041l0.91602-1.0957c0.105-0.12625 0.27062-0.16828 0.48438-0.23828l2.1465-0.73438c0.63375-0.21875 0.83641-0.26383 1.1289-0.17383 0.16 0.05125 0.22852 0.09758 0.32227-0.01367 0.0925-0.1125 0.0079-0.18234-0.06836-0.24609-0.245-0.205-0.53625-0.35359-0.78125-0.55859-0.24375-0.205-0.4418-0.46492-0.68555-0.66992-0.08375-0.07-0.16016-0.13274-0.25391-0.02148-0.0925 0.1125-0.06625 0.19195 0 0.2832 0.24375 0.33375 0.40398 0.62531 0.24024 0.82031-0.07625 0.09125-0.18938 0.18391-0.39062 0.25391l-1.4551 0.51758c-0.16875 0.06125-0.37875 0.11235-0.40625 0.08984-0.04125-0.035-0.04508-0.14594 0.01367-0.42969l0.35156-1.7129c0.04-0.20375 0.08945-0.37539 0.18945-0.49414 0.04625-0.05625 0.15195-0.05289 0.2832-0.02539 0.15125 0.03125 0.3457 0.19523 0.43945 0.08399 0.0925-0.1125-0.02539-0.21211-0.15039-0.31836-0.315-0.2625-0.67648-0.46867-0.99024-0.73242-0.315-0.2625-0.58148-0.58-0.89648-0.84375-0.09469-0.07875-0.18676-0.15486-0.26562-0.14062zm-23.531 0.61133c-17.988 0-32.623 14.632-32.623 32.621 0 17.996 14.636 32.639 32.623 32.639 17.988 0 32.621-14.642 32.621-32.639 0-17.989-14.634-32.621-32.621-32.621zm-31.496 7.039c-0.03547 0.02-0.06227 0.05953-0.08789 0.09766-0.17875 0.2625-0.29781 0.56633-0.47656 0.83008-0.17875 0.265-0.41695 0.4882-0.5957 0.75195-0.0925 0.13625-0.19031 0.28008-0.07031 0.36133 0.12125 0.0825 0.31148-0.08695 0.49024-0.25195 0.42125-0.39625 0.90289-0.11484 1.4004 0.22266l1.7129 1.1582c0.105 0.0725 0.20531 0.15289 0.16406 0.21289-0.03 0.045-0.19945 0.08344-0.37695 0.11719l-5.002 0.87305c-0.12125 0.01625-0.17852 0.0525-0.29102 0.21875-0.15375 0.22625-0.27594 0.47297-0.42969 0.69922s-0.33648 0.43195-0.49023 0.6582c-0.035 0.0525-0.06656 0.09719 0.05469 0.17969 0.12 0.08125 0.21391-0.0083 0.50391-0.17578 0.325-0.1875 0.81726-0.01797 1.1035 0.17578l2.8438 1.9238c0.415 0.28125 0.5518 0.55094 0.49805 1.0859-0.01625 0.155-0.03992 0.26906 0.08008 0.35156 0.12125 0.08125 0.17727 0.000076 0.22852-0.07617 0.17875-0.26375 0.29586-0.57023 0.47461-0.83398s0.41891-0.48625 0.59766-0.75c0.09125-0.135 0.2125-0.31742 0.0625-0.41992-0.14375-0.0975-0.29688 0.16305-0.48437 0.31055-0.35875 0.285-0.72375 0.22586-1.0938-0.02539l-2.6914-1.8223c-0.18125-0.1225-0.19031-0.16172-0.16406-0.19922 0.025-0.0375 0.27476-0.09914 0.54102-0.15039l5.5039-0.99414c0.31625-0.06 0.63711-0.12914 0.69336-0.21289 0.06125-0.09-0.0093-0.18125-0.3418-0.40625l-3.6348-2.4609c-0.415-0.28125-0.55695-0.54117-0.50195-1.0762 0.01625-0.155 0.03922-0.27102-0.08203-0.35352-0.06-0.04063-0.1032-0.03953-0.13867-0.01953zm64.25 1.627c-0.03281-0.01326-0.06312-0.01186-0.09375 0.0078-0.1225 0.07875-0.13828 0.17359-0.08203 0.27734 0.18375 0.3375 0.21258 0.68719-0.26367 0.99219l-3.4512 2.209c-0.25375 0.1625-0.58078 0.29664-0.86328 0.05664-0.0725-0.06125-0.19391-0.1686-0.31641-0.08984-0.1225 0.07875-0.04883 0.19484 0.04492 0.33984 0.19625 0.3075 0.45414 0.57336 0.65039 0.88086 0.1975 0.30625 0.33117 0.65312 0.48242 0.89062 0.1425 0.2225 0.2857 0.44594 0.4082 0.36719 0.12375-0.07875 0.13828-0.17555 0.08203-0.2793-0.0925-0.17875-0.21844-0.695 0.25781-1l3.4531-2.209c0.2525-0.1625 0.55219-0.33375 0.83594-0.09375 0.0725 0.0625 0.24469 0.24477 0.36719 0.16602s0.04922-0.19328-0.01953-0.30078c-0.19625-0.30625-0.45609-0.57461-0.65234-0.88086-0.19625-0.3075-0.33109-0.65344-0.52734-0.96094-0.10688-0.16688-0.21406-0.33326-0.3125-0.37305zm2.3906 3.6191c-0.02547-0.01219-0.06461-0.01047-0.13086 0.01953-0.13375 0.06-0.10453 0.18844-0.11328 0.52344-0.01 0.37375-0.41156 0.70516-0.72656 0.84766l-3.127 1.418c-0.45625 0.2075-0.75805 0.18367-1.1855-0.14258-0.1225-0.095-0.2093-0.17523-0.3418-0.11523s-0.09219 0.14992-0.05469 0.23242c0.13125 0.29125 0.32969 0.5518 0.46094 0.8418 0.13125 0.29125 0.19758 0.61234 0.33008 0.90234 0.0675 0.15 0.15602 0.34844 0.32227 0.27344 0.1575-0.07125 0.01776-0.33867-0.0098-0.57617-0.05625-0.455 0.1875-0.73422 0.59375-0.91797l2.9609-1.3418c0.19875-0.09 0.23516-0.07641 0.25391-0.03516s-0.0593 0.28531-0.1543 0.53906l-2.0293 5.2109c-0.11375 0.30125-0.22289 0.60992-0.18164 0.70117 0.045 0.1 0.16039 0.08883 0.52539-0.07617l3.998-1.8125c0.45625-0.20625 0.75414-0.19148 1.1816 0.13477 0.1225 0.095 0.2093 0.17523 0.3418 0.11523s0.09219-0.15258 0.05469-0.23633c-0.13125-0.29-0.33164-0.54859-0.46289-0.83984-0.13125-0.29-0.19562-0.61234-0.32812-0.90234-0.0675-0.14875-0.13898-0.30609-0.27148-0.24609s-0.08852 0.31008-0.04102 0.54883c0.11625 0.5675-0.37438 0.83062-0.92188 1.0781l-1.886 0.854c-0.115 0.0525-0.23367 0.0975-0.26367 0.03125-0.0225-0.05 0.03195-0.21602 0.0957-0.38477l1.8711-4.7188c0.05-0.1125 0.04859-0.18078-0.03516-0.36328-0.1125-0.24875-0.25859-0.48367-0.37109-0.73242s-0.19219-0.51172-0.30469-0.76172c-0.01313-0.02875-0.02531-0.05617-0.05078-0.06836zm-69.506 2.2402c-1.2591 0.0058-2.3462 0.81734-2.8965 2.1055-0.745 1.7425-0.096172 3.9331 1.7051 4.7031 1.7 0.72625 3.3834-0.05984 4.1172-1.7773 0.745-1.7425 0.26195-3.9496-1.623-4.7559-0.44406-0.18969-0.88305-0.27732-1.3027-0.27539zm-0.38086 1.502c0.57116 0.01767 1.137 0.14531 1.5645 0.32812 1.1975 0.51125 1.9577 1.6577 1.5352 2.6465-0.5725 1.34-2.703 1.2434-3.8418 0.75586-1.1988-0.51125-1.9557-1.6577-1.5332-2.6465 0.35781-0.8375 1.3235-1.1134 2.2754-1.084zm-3.7129 4.7031c-0.30875-0.0425-0.34062-0.02133-0.39062 0.20117-0.2025 0.88875-0.34062 1.8184-0.54688 2.7246-0.2075 0.905-0.48391 1.7864-0.69141 2.6914-0.04625 0.20375-0.011719 0.25945 0.14453 0.31445l0.88477 0.29492c0.09625 0.03125 0.21688 0.07625 0.29688 0.09375 0.0525 0.0125 0.11508-0.01102 0.14258-0.13477 0.0225-0.0975 0.00828-0.15773-0.042969-0.17773-0.82875-0.42375-0.81219-0.82133-0.61719-1.6738 0.09625-0.42625 0.21516-0.62133 0.53516-0.54883l4.1211 0.94141c0.70125 0.16 0.55484 0.76023 0.62109 1.084 0.02125 0.1075-0.04 0.25188 0.15625 0.29688 0.14125 0.0325 0.1657-0.07219 0.18945-0.17969 0.12-0.52375 0.17312-1.0818 0.29688-1.623 0.12375-0.54125 0.3175-1.0668 0.4375-1.5918 0.02375-0.10625 0.0475-0.21164-0.09375-0.24414-0.19625-0.045-0.20328 0.10977-0.26953 0.19727-0.2 0.2625-0.32875 0.86898-1.0312 0.70898l-4.1198-0.942c-0.2937-0.066-0.3554-0.239-0.2441-0.726 0.195-0.8525 0.3532-1.219 1.2832-1.2402 0.055 0.0037 0.090234-0.03437 0.11523-0.14062 0.01625-0.07125 0.00102-0.16719-0.052734-0.17969-0.0625-0.01375-0.13547-0.02109-0.19922-0.02734l-0.9258-0.119zm76.813 3.5137c-0.11516-0.0049-0.23188 0.0011-0.34766 0.01953-2.455 0.39125-1.2115 3.6146-2.6777 3.8496-0.65625 0.10375-1.1266-0.34461-1.2266-0.97461-0.135-0.845 0.39133-1.5948 1.0488-2.041 0.125-0.08375 0.36078-0.16766 0.33203-0.34766-0.02375-0.15375-0.10227-0.17797-0.16602-0.16797-0.08125 0.0125-0.19984 0.07813-0.27734 0.10938l-1.1992 0.51367c-0.12 0.0575-0.10562 0.20242-0.10938 0.29492-0.02 0.56625-0.12961 1.1008-0.03711 1.6758 0.21375 1.34 1.4393 1.8451 2.3105 1.7051 2.4825-0.39625 1.1392-3.6027 2.668-3.8477 0.51375-0.08125 0.90469 0.34383 0.99219 0.89258 0.11 0.68375-0.36258 1.543-0.98633 1.8555-0.21375 0.1075-0.35117 0.16562-0.32617 0.32812 0.02 0.125 0.11102 0.16719 0.22852 0.14844 0.09875-0.015 0.8932-0.28977 1.4082-0.35352 0.1175-0.01875 0.16719-0.05562 0.14844-0.17188-0.01375-0.08125-0.17055-0.25867-0.18555-0.35742-0.0475-0.2975 0.22992-0.81117 0.10742-1.5762-0.14766-0.92859-0.89898-1.5201-1.7051-1.5547zm-75.29 3.151c-0.09125-0.005-0.14945 0.05781-0.1582 0.25781-0.0175 0.3625 0.018206 0.73 0.00195 1.0938-0.0175 0.36375-0.089922 0.72414-0.10742 1.0879-0.0175 0.3825-0.00641 0.53016 0.12109 0.53516 0.145 0.0075 0.21281-0.06336 0.22656-0.16211 0.055-0.38125 0.22727-0.72867 0.79102-0.70117l0.54492 0.02734c0.86375 0.04125 1.1364 0.45367 1.0977 1.2637-0.07375 1.555-1.8199 1.8379-3.1387 1.7754-1.4562-0.06875-2.6057-0.61695-2.5332-2.127 0.0325-0.69125 0.20867-1.3295 1.6387-2.0645 0.06625-0.03375 0.28797-0.12242 0.29297-0.23242 0.005-0.09-0.074687-0.14023-0.21094-0.14648-0.07375-0.0037-0.28344 0.02195-0.42969 0.0332l-1.291 0.08594c-0.04625 0.0063-0.10102 0.03-0.10352 0.09375-0.0125 0.2725 0.27172 0.20609 0.26172 0.43359-0.00625 0.12625-0.52562 0.89383-0.57812 1.9863-0.08625 1.81 1.3467 3.3372 3.293 3.4297 1.8462 0.0875 3.1124-1.2112 3.2012-3.0762 0.055-1.1725-0.50609-2.7933-0.65234-2.8008l-1.3281-0.0625c-0.3-0.015-0.64188-0.11266-0.73438-0.47266-0.0225-0.0925-0.060078-0.25156-0.20508-0.25781zm75.955 1.25c-0.055 0-0.10797 0.03656-0.10547 0.16406 0.0012 0.1 0.03023 0.15461 0.08398 0.16211 0.90625 0.2125 0.985 0.60476 1 1.4785 0.0075 0.4375-0.06188 0.65711-0.39062 0.66211l-4.2246 0.07031c-0.72 0.0125-0.72203-0.60875-0.86328-0.90625-0.0475-0.1-0.02141-0.25445-0.22266-0.25195-0.145 0.0025-0.14508 0.11195-0.14258 0.2207 0.0088 0.53875 0.08961 1.0941 0.09961 1.6504 0.0088 0.555-0.05492 1.1109-0.04492 1.6484 0.0012 0.1075 0.0041 0.2193 0.15039 0.2168 0.2-0.0038 0.16914-0.15852 0.21289-0.25976 0.1325-0.3025 0.11203-0.92234 0.83203-0.93359l4.2266-0.07031c0.3-0.005 0.40336 0.14719 0.41211 0.64844 0.01375 0.87375-0.05242 1.2673-0.95117 1.5098-0.05375 0.01-0.08061 0.05727-0.07813 0.16602 0.0012 0.0725 0.03875 0.16336 0.09375 0.16211 0.06375-0.0012 0.13547-0.01148 0.19922-0.02148l0.92773-0.10742c0.30875-0.0325 0.33578-0.05961 0.33203-0.28711-0.015-0.90875-0.10289-1.8454-0.11914-2.7754-0.015-0.92875 0.04234-1.8505 0.02734-2.7793-0.0037-0.21-0.04984-0.25453-0.21484-0.26953l-0.92969-0.07617c-0.1-0.0075-0.2293-0.02398-0.31055-0.02148zm-79.47 5.789c-0.14375 0.01875-0.13164 0.11898-0.11914 0.20898 0.04375 0.315 0.15937 0.62125 0.20312 0.9375 0.0425 0.31625 0.014141 0.64273 0.056641 0.95898 0.0225 0.1625 0.045703 0.3325 0.18945 0.3125 0.145-0.02 0.1741-0.271 0.1953-0.514 0.05-0.576 0.5964-0.686 1.1914-0.767l2.0488-0.28125c0.12625-0.0175 0.25367-0.02437 0.26367 0.04687 0.0075 0.055-0.091172 0.19609-0.20117 0.33984l-3.1426 3.9863c-0.07875 0.09375-0.097813 0.16062-0.070312 0.35938 0.03625 0.27125 0.11023 0.53664 0.14648 0.80664 0.0375 0.27 0.039922 0.54711 0.076172 0.81836 0.00875 0.0625 0.016406 0.11765 0.16016 0.09766 0.145-0.02 0.15406-0.15125 0.25781-0.46875 0.11625-0.35625 0.595-0.55797 0.9375-0.60547l3.4004-0.46484c0.49625-0.0675 0.77946 0.04156 1.0957 0.47656 0.09 0.12625 0.14992 0.22578 0.29492 0.20703 0.14375-0.02 0.13039-0.11898 0.11914-0.20898-0.04375-0.31625-0.15938-0.62125-0.20312-0.9375-0.0425-0.31625-0.01414-0.64078-0.05664-0.95703-0.0225-0.1625-0.05242-0.37852-0.23242-0.35352-0.17125 0.0225-0.11109 0.31774-0.15234 0.55273-0.07625 0.45125-0.39078 0.65094-0.83203 0.71094l-3.2227 0.43945c-0.21625 0.02875-0.2457 0.0079-0.25195-0.03711-0.00625-0.045 0.13898-0.25961 0.30273-0.47461l3.4316-4.4121c0.195-0.25625 0.38875-0.52234 0.375-0.62109-0.015-0.10875-0.12789-0.12992-0.52539-0.07617l-4.3477 0.59375c-0.49625 0.0675-0.7775-0.02984-1.0938-0.46484-0.09-0.125-0.14992-0.22898-0.29492-0.20898zm75.418 0.07031c-0.2275-0.01875-0.87578 0.54984-0.89453 0.77734-0.0175 0.2175 0.53156 0.86406 0.75781 0.88281 0.21875 0.01875 0.88484-0.53055 0.90234-0.74805 0.01875-0.22625-0.54812-0.89461-0.76562-0.91211zm-1.4629 5.7266c-0.14-0.04125-0.19 0.12297-0.25 0.32422-0.09625 0.3225-0.1225 0.66648-0.21875 0.99023-0.17375 0.585-0.59774 1.7607-0.77148 2.3457-0.2025 0.68125 0.15094 1.5375 0.86719 1.75 0.1925 0.0575 0.37195 0.02484 0.4082-0.09766 0.065-0.2175-0.19328-0.39875-0.39453-0.78125-0.2-0.38375-0.32914-0.97312-0.05664-1.8906 0.1325-0.445 0.2425-0.52562 0.90625-0.32812l3.7812 1.123c0.28875 0.085 0.58875 0.28891 0.59375 0.66016 0 0.095-0.0013 0.25633 0.13867 0.29883 0.14 0.04125 0.17859-0.09039 0.21484-0.21289 0.09875-0.33125 0.15375-0.77172 0.28125-1.1992 0.12375-0.42 0.32156-0.82609 0.44531-1.2461 0.02875-0.095-0.02383-0.17688-0.11133-0.20312-0.1225-0.03625-0.21234 0.0132-0.24609 0.12695-0.10875 0.3675-0.38062 0.60852-0.92188 0.44727l-3.7812-1.123c-0.2875-0.085-0.59938-0.21656-0.70312-0.57031-0.06625-0.22875-0.04164-0.37281-0.18164-0.41406zm-66.918 0.966c-0.13875 0.045-0.17594 0.13305-0.14844 0.24805 0.045 0.19625 0.03359 0.72734-0.50391 0.90234l-3.8984 1.2637c-0.28625 0.09375-0.62023 0.18266-0.83398-0.12109-0.05375-0.07875-0.175-0.29891-0.3125-0.25391-0.13875 0.045-0.096641 0.17562-0.056641 0.29688 0.1125 0.3475 0.29375 0.67133 0.40625 1.0176 0.1125 0.34625 0.15508 0.71625 0.26758 1.0625 0.08125 0.25125 0.16398 0.50203 0.30273 0.45703s0.17719-0.13305 0.14844-0.24805c-0.09125-0.37375-0.031641-0.71883 0.50586-0.89258l3.8984-1.2676c0.28625-0.0925 0.63586-0.13703 0.84961 0.16797 0.05375 0.0775 0.14445 0.21102 0.2832 0.16602s0.09672-0.17484 0.04297-0.33984c-0.1125-0.34625-0.29375-0.67008-0.40625-1.0176-0.1125-0.34625-0.15594-0.71562-0.24219-0.98438-0.0825-0.25125-0.16398-0.50203-0.30273-0.45703zm1.0352 3.25c-0.13125 0.06375-0.15508 0.15758-0.11133 0.26758 0.145 0.35625 0.1332 0.70703-0.37305 0.95703l-3.6758 1.8105c-0.31875 0.1575-0.68602 0.13547-0.88477-0.08203-0.065-0.06875-0.17344-0.1868-0.30469-0.12305-0.13 0.065-0.069922 0.18578-0.013672 0.30078 0.16125 0.3275 0.38758 0.62297 0.54883 0.94922 0.16125 0.3275 0.25672 0.68617 0.41797 1.0137 0.1175 0.235 0.23398 0.47125 0.36523 0.40625 0.13-0.06375 0.15312-0.15758 0.10938-0.26758-0.145-0.355-0.13445-0.70508 0.37305-0.95508l1.127-0.555c0.1875-0.0925 0.30602-0.01867 0.44727 0.26758l0.86914 1.7637c0.105 0.2125 0.06023 0.34648-0.10352 0.42774l-1.1289 0.55469c-0.26875 0.1325-0.62586 0.18797-0.88086-0.08203-0.065-0.06875-0.17664-0.1868-0.30664-0.12305-0.13125 0.065-0.07117 0.18703-0.01367 0.30078 0.16 0.3275 0.38883 0.62297 0.54883 0.94922 0.16125 0.32625 0.25672 0.68547 0.41797 1.0117 0.11625 0.23625 0.23328 0.4732 0.36328 0.4082 0.13125-0.06375 0.15633-0.15758 0.11133-0.26758-0.14375-0.355-0.1332-0.70508 0.37305-0.95508l3.679-1.814c0.26875-0.1325 0.62781-0.18601 0.88281 0.08398 0.065 0.07 0.17469 0.18805 0.30469 0.12305 0.13125-0.06375 0.07117-0.18578 0.01367-0.30078-0.16-0.32625-0.38688-0.62102-0.54688-0.94727-0.16125-0.3275-0.25867-0.68742-0.41992-1.0137-0.11625-0.2375-0.23328-0.47516-0.36328-0.41016-0.13125 0.065-0.15633 0.15758-0.11133 0.26758 0.14375 0.35625 0.1332 0.70703-0.37305 0.95703l-1.584 0.78125c-0.115 0.05625-0.275 0.1036-0.34375-0.03516l-0.98633-2.002c-0.1175-0.23625-0.12844-0.30094 0.13281-0.42969l1.5684-0.77539c0.27-0.1325 0.62977-0.18601 0.88477 0.08398 0.065 0.07 0.17344 0.18805 0.30469 0.12305 0.13125-0.06375 0.06992-0.18578 0.01367-0.30078-0.16125-0.32625-0.38758-0.62102-0.54883-0.94727s-0.25672-0.68742-0.41797-1.0137c-0.11625-0.2375-0.23328-0.47516-0.36328-0.41016zm65.723 1.8887c-1.2221-0.09105-2.3567 0.59586-2.9961 1.8418-0.86625 1.6862-0.54055 3.9212 1.2832 4.8574 1.7175 0.88125 3.4666 0.13 4.3203-1.5312 0.865-1.685 0.37016-3.9136-1.3711-4.8086-0.41156-0.21094-0.82896-0.32902-1.2363-0.35938zm-1.0488 1.4707c0.74984-0.02969 1.5542 0.17195 2.1055 0.45508 1.1588 0.595 1.833 1.7918 1.3418 2.748-0.665 1.2962-2.7796 1.0506-3.8809 0.48438-1.1588-0.595-1.835-1.7918-1.3438-2.748 0.33312-0.64812 1.0275-0.90976 1.7773-0.93945zm-61.928 3.5957c-0.52094 0.01328-1.007 0.22664-1.332 0.52539-1.85 1.7 1.0384 3.6322-0.10156 4.6797-0.3825 0.35125-0.94336 0.21148-1.3184-0.19726-0.46875-0.51-0.55062-1.4861-0.20312-2.0898 0.11875-0.20875 0.2011-0.33312 0.08984-0.45312-0.08625-0.09375-0.18328-0.08-0.26953 0-0.07375 0.0675-0.58672 0.73547-0.98047 1.0742-0.0875 0.07875-0.10929 0.13711-0.0293 0.22461 0.055 0.06 0.28602 0.12156 0.35352 0.19531 0.20375 0.22125 0.25555 0.80305 0.7793 1.373 0.72625 0.79125 1.8673 0.78148 2.5586 0.14648 1.83-1.6812-0.98508-3.6838 0.10742-4.6875 0.49-0.45 1.1293-0.33133 1.5605 0.13867 0.58 0.63 0.55445 1.5443 0.25195 2.2793-0.05625 0.13875-0.20774 0.33766-0.08398 0.47266 0.105 0.11375 0.18102 0.09064 0.22852 0.04687 0.06-0.055 0.12438-0.17344 0.17188-0.24219l0.7168-1.0918c0.06875-0.1125-0.02352-0.22664-0.07227-0.30664-0.295-0.4825-0.49758-0.98727-0.89258-1.416-0.45875-0.49938-1.0142-0.68516-1.5352-0.67188zm58.596 1.0781c-0.76099-0.04868-1.4551 0.38828-2.0996 1.207-1.2725 1.6188-1.1095 3.0801 0.48047 4.3301l1.5234 1.1992c0.62375 0.49 0.70836 0.64883 0.63086 0.92383-0.04625 0.16125-0.14039 0.29477-0.02539 0.38477 0.085 0.06875 0.13164 0.06828 0.24414-0.07422 0.16875-0.215 0.30781-0.45102 0.47656-0.66602 0.17-0.215 0.36836-0.40805 0.53711-0.62305 0.14125-0.17875 0.18-0.28672 0.09375-0.35547-0.115-0.09-0.24906-0.02055-0.35156 0.0957-0.33125 0.37625-0.70727 0.38125-1.0723 0.09375l-1.826-1.435c-0.795-0.625-1.572-1.7448-0.56445-3.0273 0.69375-0.88 1.7335-0.96664 2.5723-0.30664l2.2266 1.752c0.2575 0.2025 0.39547 0.48305 0.32422 0.81055-0.0325 0.15875-0.08233 0.28211 0.0039 0.34961 0.07125 0.05625 0.14234 0.05531 0.27734-0.11719 0.225-0.28625 0.39414-0.61805 0.61914-0.9043s0.50742-0.5282 0.73242-0.81445c0.27625-0.35125 0.29141-0.44274 0.19141-0.52148-0.09375-0.07375-0.19703-0.0625-0.26953 0.03125-0.23625 0.3-0.57773 0.42492-1.0215 0.07617l-2.2559-1.7734c-0.51047-0.40125-0.99067-0.60556-1.4473-0.63477zm-55.691 1.625c-0.04172-0.01609-0.08289-0.0063-0.13477 0.04492-0.10375 0.1025-0.0275 0.21711 0.09375 0.44336 0.1725 0.31625-0.04773 0.71422-0.17773 1.0742l-1.9199 5.1074c-0.03875 0.115-0.0575 0.21008-0.03125 0.23633 0.0575 0.05875 0.14719 0.03367 0.39844-0.04883l5.601-1.892c0.15375-0.05125 0.27539-0.07086 0.46289-0.03711 0.15375 0.02625 0.35328 0.14938 0.45703 0.04687 0.10375-0.1025 0.0275-0.18024-0.0625-0.27148-0.21875-0.22-0.48828-0.38742-0.70703-0.60742-0.2175-0.22-0.38406-0.49094-0.60156-0.71094-0.1025-0.10375-0.17359-0.17672-0.27734-0.07422s0.08344 0.39445 0.21094 0.62695c0.09625 0.17375 0.1314 0.45844 0.03516 0.55469-0.27875 0.27625-1.11 0.74141-1.4375 0.41016l-0.982-0.99c-0.31375-0.31625-0.40945-0.46531-0.4082-0.63281 0.0012-0.19375 0.36484-0.93766 0.52734-1.0977 0.1675-0.1675 0.41914-0.21047 0.61914-0.07422 0.1025 0.09125 0.23109 0.1036 0.30859 0.02734 0.03875-0.03875 0.04508-0.12289-0.04492-0.21289-0.3075-0.31125-0.66672-0.57047-0.94922-0.85547s-0.53695-0.64703-0.8457-0.95703c-0.05125-0.05187-0.09305-0.09328-0.13476-0.10938zm51.328 2.459c-0.07582-0.01195-0.15625 0.06234-0.25 0.15234-0.2625 0.25125-0.47453 0.55805-0.73828 0.81055-0.2625 0.2525-0.57555 0.45024-0.7793 0.64648-0.19 0.1825-0.3825 0.36445-0.28125 0.4707 0.10125 0.105 0.19781 0.10039 0.28906 0.02539 0.1575-0.12625 0.64-0.34696 1.0312 0.06055l2.8359 2.957c0.20875 0.2175 0.43516 0.47969 0.25391 0.80469-0.04625 0.0825-0.1911 0.28688-0.08984 0.39062 0.1 0.10625 0.19852 0.01063 0.29102-0.07813 0.2625-0.25125 0.47453-0.55609 0.73828-0.80859 0.2625-0.2525 0.57539-0.45188 0.83789-0.70312 0.19-0.1825 0.3825-0.3657 0.28125-0.4707s-0.19781-0.10164-0.28906-0.02539c-0.295 0.245-0.63219 0.3411-1.0234-0.06641l-2.8379-2.959c-0.2075-0.21625-0.40195-0.51219-0.2207-0.83594 0.04625-0.08375 0.12664-0.22312 0.02539-0.32812-0.025-0.02625-0.04895-0.03898-0.07422-0.04297zm-51.096 1.541c0.025-0.027 0.115 0.038 0.32 0.246l0.69336 0.69922c0.16 0.1625 0.25016 0.29211 0.19141 0.34961-0.01875 0.02-0.11695 0.06242-0.25195 0.10742l-1.3105 0.45117c-0.045 0.01875-0.23203 0.10125-0.26953 0.0625-0.045-0.045-0.02633-0.11539 0.01367-0.24414l0.45117-1.3184c0.0525-0.155 0.12211-0.31477 0.16211-0.35352zm48.748 0.95117c-0.05406 0.01563-0.10656 0.04641-0.14844 0.06641-0.5075 0.2525-1.0277 0.41062-1.4902 0.76562-1.0762 0.82625-0.93789 2.1445-0.40039 2.8457 1.53 1.9938 3.7118-0.71508 4.6543 0.51367 0.31625 0.41125 0.12875 0.95938-0.3125 1.2969-0.54875 0.42125-1.5284 0.41562-2.0996 0.01563-0.19625-0.13625-0.31531-0.22891-0.44531-0.12891-0.10125 0.0775-0.09594 0.17578-0.02344 0.26953 0.06125 0.08 0.68188 0.64781 0.98438 1.0703 0.07125 0.09375 0.125 0.12133 0.21875 0.04883 0.06625-0.05 0.14781-0.27273 0.22656-0.33398 0.23875-0.18375 0.82375-0.18305 1.4375-0.6543 0.8525-0.655 0.9443-1.7921 0.37305-2.5371-1.5138-1.9725-3.7564 0.65406-4.6602-0.52344-0.405-0.5275-0.23086-1.1523 0.27539-1.541 0.67875-0.52125 1.588-0.41508 2.293-0.04883 0.13375 0.06875 0.31914 0.23625 0.46289 0.125 0.1225-0.095 0.10711-0.17336 0.06836-0.22461-0.05-0.065-0.16281-0.13766-0.22656-0.19141l-1.0234-0.81055c-0.05312-0.04-0.11-0.03906-0.16406-0.02344zm-43.404 0.24219c-0.07723-0.0087-0.20992 0.04594-0.53711 0.25781l-3.957 2.6035c-0.5525 0.3675-0.66547 0.46476-1.0117 0.50976-0.24875 0.035-0.40523-0.07578-0.49023 0.04297-0.08375 0.11875 0.02164 0.19274 0.08789 0.24023 0.2525 0.18 0.54438 0.29852 0.79688 0.47852 0.2525 0.17875 0.46359 0.41961 0.71484 0.59961 0.075 0.0525 0.16305 0.11684 0.24805-0.002 0.0475-0.06625 0.01641-0.17922-0.05859-0.35547-0.08875-0.22125-0.52547-0.47328-0.29297-0.80078 0.11625-0.1625 0.29242-0.32938 0.51367-0.48438l2.056-1.444c0.1525-0.10375 0.28734-0.19641 0.33984-0.16016 0.03 0.02125 0.01172 0.07672-0.01953 0.19922l-0.789 2.803c-0.04375 0.17-0.11352 0.50234-0.19727 0.62109-0.06875 0.09625-0.19102 0.22188-0.44726 0.14062-0.1375-0.0425-0.27047-0.10508-0.35547 0.01367s-0.01883 0.16586 0.10742 0.25586c0.28875 0.205 0.62016 0.35234 0.91016 0.55859 0.28875 0.20625 0.53742 0.47148 0.82617 0.67773 0.09625 0.07 0.19234 0.13828 0.27734 0.01953s0.000076-0.18883-0.04492-0.29883c-0.05625-0.14125-0.14953-0.30914-0.05078-0.61914l0.4375-1.4785 1.9102-1.1094c0.0825-0.05375 0.18422-0.10179 0.19922-0.0918 0.0225 0.01625-0.0023 0.09719-0.02734 0.17969l-0.88281 3.0293c-0.09625 0.32375-0.12242 0.51578-0.16992 0.58203-0.1 0.14125-0.22547 0.25508-0.48047 0.17383-0.1375-0.0425-0.27242-0.10508-0.35742 0.01367-0.08375 0.11875-0.01687 0.16586 0.10938 0.25586 0.28875 0.205 0.62016 0.35234 0.91016 0.55859 0.28875 0.20625 0.53547 0.47148 0.82422 0.67773 0.09625 0.07 0.19359 0.13703 0.27734 0.01953 0.085-0.11875 0.002-0.18883-0.04297-0.29883-0.05625-0.14125-0.14399-0.30289-0.05273-0.61914l1.4492-5.2988c0.10625-0.38375 0.10016-0.45274 0.0039-0.52148-0.08875-0.06375-0.17164-0.05641-0.58789 0.18359l-2.623 1.498c-0.185 0.1025-0.26688 0.15602-0.29688 0.13476-0.0225-0.01625-0.0079-0.11664 0.03711-0.27539l0.83008-2.9531c0.1-0.3425 0.05945-0.42774-0.0293-0.49024-0.01844-0.01344-0.03871-0.02443-0.06445-0.02734zm16.107 6.6582-0.37695 0.1875c-0.20625 0.1125-0.41844 0.19875-0.61719 0.25-0.07375 0.0025-0.14375 0.01625-0.21875 0.03125-0.04875 0.0088-0.10102 0.01984-0.16602 0.02734-0.40625 0.0675-0.63172 0.18656-0.66797 0.38281 0 0.0325 0.01078 0.06008 0.01953 0.08008v0.03516l0.04102 0.03906c0.03375 0.035 0.08211 0.05898 0.13086 0.08398l0.02734 0.01563h0.0332c0.02625 0 0.06555-0.0076 0.12305-0.01758 0.0375-0.0075 0.08547-0.01359 0.16797-0.02734 0.08375-0.02875 0.15328-0.03186 0.23828-0.01563 0.035 0.0062 0.11922 0.02586 0.13672 0.06836 0.0125 0.05125 0.0156 0.20211-0.002 0.38086l-0.62695 3.5371c-0.05625 0.335-0.14898 0.56039-0.20898 0.65039-0.06125 0.09125-0.17984 0.12016-0.24609 0.12891l-0.03711 0.01172c-0.02 0.0062-0.09023 0.0066-0.14648 0.0078-0.13 0.0125-0.39977 0.03906-0.44727 0.28906 0 0.07 0.04445 0.12133 0.0957 0.17383l0.04102 0.04102h0.03125c0.02625 0.0125 0.07156 0.03141 0.13281 0.03516 0.04625 0.01375 0.10875 0.01914 0.21875 0.02539 0.055 0.0037 0.11953 0.0081 0.20703 0.01563 0.21375 0 0.39219 0.01594 0.58594 0.05469 0.31 0.04875 0.63445 0.12766 1.0645 0.25391 0.0725 0.03625 0.1243 0.04828 0.1543 0.05078 0.03 0.0075 0.06211 0.0098 0.09961 0.0098 0.03625 0 0.07156-0.0034 0.10156-0.0059l0.0625-0.002 0.02734-0.01563c0.0425-0.02125 0.13984-0.06828 0.15234-0.17578 0.0225-0.1-0.0257-0.23774-0.3457-0.36524-0.19875-0.05875-0.29297-0.11281-0.32422-0.13281-0.08-0.05375-0.13469-0.13414-0.14844-0.21289l-0.0078-0.0293c-0.0037-0.01-0.03758-0.11148 0.04492-0.55273l0.68359-3.9355 0.02148-0.11133c0.03125-0.17625 0.06437-0.3643 0.10938-0.56055 0.03375-0.12375 0.06664-0.22 0.08789-0.28125 0.0225-0.0625 0.03125-0.08594 0.03125-0.11719 0-0.045 0.000544-0.10828-0.0332-0.17578-0.04125-0.0825-0.125-0.13281-0.21875-0.13281h-0.03125zm11.633 0.01563c-0.09125 0-0.18898 0.0079-0.30273 0.02539-0.22125 0.05625-0.43469 0.11774-0.61719 0.24024-0.205 0.1025-0.38969 0.24734-0.55469 0.43359l-0.0625 0.06836c-0.09875 0.11125-0.19094 0.21664-0.24219 0.33789-0.07 0.13875-0.09156 0.25703-0.07031 0.36328 0.0013 0.0325 0.0079 0.08867 0.05664 0.13867l0.04102 0.04102h0.19141l0.03906-0.04102s0.11703-0.11461 0.33203-0.34961c0.1825-0.21625 0.37836-0.33734 0.59961-0.37109 0.2075-0.03125 0.40274 0.01469 0.55273 0.11719 0.16375 0.1475 0.26453 0.34391 0.30078 0.59766 0.04875 0.1925 0.03609 0.41242-0.03516 0.60742-0.07125 0.21625-0.21938 0.44539-0.42188 0.65039-0.0225 0.03375-0.10023 0.09922-0.24023 0.19922-0.1525 0.1275-0.21875 0.23023-0.21875 0.33398l0.0059 0.06445 0.03906 0.04102c0.01875 0.025 0.05242 0.06625 0.10742 0.09375l0.05078 0.01758h0.0332c0.05 0.0062 0.10203 0.0079 0.14453-0.0059 0.02375-0.005 0.04727-0.01469 0.07227-0.02344l0.0332-0.01172c0.0275-0.0025 0.05578-0.0067 0.08203-0.01172 0.02125-0.0037 0.04219-0.0073 0.08594-0.0098 0.29625-0.04875 0.55375-0.003 0.75 0.12695 0.19 0.1425 0.31102 0.38773 0.38477 0.77148 0.08625 0.47 0.02109 0.89828-0.19141 1.2695-0.21375 0.33875-0.54172 0.5543-0.94922 0.62305-0.23375 0.03625-0.48156 0.01195-0.75781-0.0918-0.2525-0.0725-0.38352-0.12695-0.38476-0.12695l-0.05273-0.01172c-0.09625 0-0.16461 0.06891-0.19336 0.09766l-0.04102 0.03906 0.002 0.15234c0.03125 0.2525 0.31289 0.39039 0.58789 0.49414 0.1925 0.06375 0.40055 0.0957 0.62305 0.0957 0.13125 0 0.27031-0.0107 0.41406-0.0332 0.37375-0.06625 0.68734-0.22664 0.93359-0.36914 0.1975-0.1475 0.48203-0.3775 0.67578-0.65625 0.20125-0.275 0.34648-0.57844 0.45898-0.96094 0.0775-0.30875 0.08398-0.63328 0.02148-0.98828-0.08-0.4825-0.30164-0.87883-0.61914-1.1113-0.23-0.18375-0.51906-0.2743-0.88281-0.2793 0.17625-0.2 0.31883-0.40719 0.42383-0.61719 0.1325-0.265 0.17445-0.55281 0.12695-0.88281-0.065-0.38875-0.25953-0.68531-0.55078-0.85156-0.22-0.15625-0.4825-0.23633-0.78125-0.23633zm7.8828 0.07422-0.24609 1.3184-0.11914 0.4375c0.5425 0.2525 1.0705 0.54016 1.5605 0.87891l0.24414-1.2812 0.12305-0.47266-0.375-0.18164-0.58789-0.32226-0.59961-0.37695zm-10.566 0.08008c-0.0975 0-0.18828 0.05375-0.26953 0.15625-0.0575 0.04625-0.09641 0.10023-0.12891 0.14648-0.04375 0.02625-0.09102 0.04805-0.13477 0.06055-0.0575 0.0012-0.13547 0.01094-0.23047 0.02344l-1.5176 0.05078c-0.17625 0-0.33109 0.04594-0.40234 0.11719l-0.02539 0.03516c-0.01375 0.03-0.06609 0.14125-0.08984 0.3125l-0.2793 2.3301c-0.02375 0.07125-0.02797 0.14453-0.01172 0.20703-0.0063 0.01875-0.01367 0.04773-0.01367 0.08398 0 0.11375 0.03852 0.19938 0.10352 0.23438 0.04875 0.03625 0.1143 0.05469 0.18555 0.05469 0.01125 0 0.03563-0.0016 0.07813-0.0078 0.04625-0.0075 0.12094-0.0182 0.24219-0.0332 0.1375-0.035 0.27695-0.05273 0.4082-0.05273 0.3925-0.0175 0.72242 0.07898 0.95117 0.27148 0.23375 0.20125 0.35289 0.46578 0.36914 0.83203 0.01875 0.47875-0.11914 0.89859-0.40039 1.2148-0.2925 0.3275-0.65031 0.48711-1.1328 0.50586-0.13625 0.0175-0.30328-0.0016-0.51953-0.05664-0.17625-0.01875-0.26758-0.03531-0.29883-0.03906-0.06375 0-0.15289 0.01625-0.21289 0.0625-0.0475 0.03-0.09313 0.09023-0.07813 0.20898 0 0.2 0.21023 0.30211 0.42773 0.38086 0.23 0.0575 0.4543 0.08398 0.68555 0.08398 0.0575 0 0.11508-0.000162 0.17383-0.0039 0.3675-0.02 0.72555-0.10453 1.0293-0.23828 0.34625-0.12875 0.61344-0.36734 0.83594-0.58984 0.25625-0.29875 0.42617-0.58016 0.51367-0.84766 0.1275-0.27375 0.18555-0.56898 0.18555-0.95898-0.02125-0.6-0.23453-1.0875-0.61328-1.4062-0.34375-0.32375-0.83508-0.49609-1.4238-0.49609-0.03375 0-0.06742 0.000656-0.10742 0.002-0.245 0.01875-0.49906 0.03766-0.72656 0.09766l-0.002-0.07813 0.09375-0.87891c0.04625-0.21 0.07742-0.25391 0.07617-0.25391 0.01125-0.01 0.06961-0.03711 0.19336-0.03711l1.3438-0.05664c0.2475 0 0.38367-0.0014 0.48242-0.06641 0.10875-0.08125 0.15922-0.18976 0.19922-0.29102l0.209-0.59 0.01172-0.07031c0.005-0.01625 0.0092-0.03469 0.01172-0.05469 0.02-0.0475 0.02148-0.08258 0.02148-0.11133 0-0.03125 0.000152-0.11633-0.05859-0.17383-0.0275-0.02875-0.07875-0.08008-0.15625-0.08008zm-15.852 0.2168-1.1582 0.67383-0.41016 0.19531c0.16375 0.57625 0.29102 1.1634 0.35352 1.7559l1.1309-0.65234 0.43555-0.21484-0.10547-0.40234-0.14062-0.65625-0.10547-0.69922zm10.1 0.07031c-0.55625-0.04-1.032 0.11172-1.4082 0.44922-0.41375 0.335-0.63523 0.76445-0.67773 1.3145-0.0225 0.335 0.03211 0.62062 0.16211 0.85938 0.07625 0.18375 0.22 0.37211 0.40625 0.53711-0.2975 0.14125-0.53156 0.33844-0.69531 0.58594-0.2175 0.30375-0.34844 0.67531-0.36719 1.0391-0.0425 0.57 0.13547 1.0617 0.51172 1.418 0.385 0.40375 0.89508 0.62992 1.5176 0.66992 0.06375 0.0037 0.12695 0.0059 0.18945 0.0059 0.5725 0 1.0666-0.16523 1.4629-0.49023 0.4625-0.3575 0.71711-0.84094 0.75586-1.4297 0.04-0.43625-0.07234-0.87086-0.30859-1.1934-0.1975-0.28125-0.46422-0.52023-0.79297-0.70898 0.25375-0.0975 0.46969-0.22758 0.64844-0.39258 0.21625-0.23625 0.35844-0.55625 0.39844-0.90625 0.02125-0.5025-0.13023-0.89633-0.45898-1.2051-0.3275-0.32625-0.78-0.51273-1.3438-0.55273zm-0.24219 0.61523c0.03 0 0.06094-0.0012 0.08594 0 0.36375 0.03625 0.64742 0.165 0.82617 0.375 0.2025 0.22 0.2818 0.47172 0.24805 0.79297-0.0175 0.255-0.11805 0.48719-0.2793 0.64844-0.1675 0.15125-0.34492 0.23242-0.51367 0.23242-0.01625 0-0.03234-0.0027-0.05859-0.0039-0.0675 0-0.17828-0.02844-0.33203-0.08594-0.0925-0.035-0.18406-0.09883-0.28906-0.17383-0.045-0.03-0.08938-0.06391-0.14063-0.09766-0.22375-0.1425-0.35516-0.32-0.41016-0.40625-0.07875-0.1425-0.11719-0.29047-0.11719-0.44922 0.03375-0.27625 0.13742-0.47141 0.32617-0.62891 0.18625-0.14 0.39305-0.20312 0.6543-0.20312zm-0.73828 2.9238c0.78 0.365 1.2512 0.65094 1.4824 0.89844 0.2425 0.2425 0.35609 0.53172 0.33984 0.85547-0.035 0.32125-0.15758 0.56641-0.36133 0.72266-0.21375 0.1525-0.45656 0.22852-0.72656 0.22852-0.0475 0-0.09875-0.0016-0.15625-0.0078-0.3625-0.01625-0.68906-0.1907-0.94531-0.50195-0.23625-0.28625-0.32852-0.64164-0.29102-1.1191 0.01875-0.28125 0.09102-0.51383 0.22852-0.70508 0.08125-0.14875 0.23344-0.27859 0.42969-0.37109z" transform="matrix(.8 0 0 -.8 26.718 435.93)" fill="#fff"/><path d="m81.476 418.15c-2.355-0.572-4.729-1.028-7.115-1.37-3.398-0.461-7.03-0.703-10.707-0.708-3.946 0.005-7.839 0.283-11.448 0.812-2.136 0.328-4.263 0.749-6.374 1.263v-0.123-29.023c0.009-0.748 0.02-1.37 0.02-1.415l0.001-0.024 0.001-0.025c0.086-1.769 0.735-3.078 2.088-4.175 0.144-0.118 0.297-0.233 0.458-0.346 0.871-0.61 2.01-1.183 3.552-1.832 1.059-0.468 2.3-0.966 3.756-1.503 0.369-0.125 0.752-0.258 1.145-0.396 0.446-0.166 0.91-0.338 1.386-0.514 1.434-0.532 3.059-1.134 4.865-1.817l0.535-0.214 0.561 0.212c1.807 0.684 3.434 1.287 4.869 1.819 0.491 0.182 0.969 0.359 1.429 0.53 0.378 0.133 0.746 0.26 1.101 0.38 1.405 0.519 2.61 1.002 3.644 1.455 1.599 0.669 2.773 1.255 3.665 1.88 0.178 0.125 0.346 0.253 0.505 0.384 1.32 1.09 1.956 2.388 2.041 4.137l0.001 0.025 0.001 0.024c0 0.008 0.011 0.684 0.02 1.478v28.725 0.361" fill="#007360"/><path d="m63.654 389.85v0.049-0.049z" fill="#a51417"/><path d="m47.379 391.69c0.821-0.183 1.65-0.352 2.487-0.509 0.173-0.032 0.346-0.063 0.52-0.095 4.265-0.767 8.726-1.192 13.241-1.221h0.055c4.516 0.029 8.976 0.454 13.241 1.221 1.012 0.183 2.014 0.384 3.002 0.604h0.001l0.008 0.002 0.004 0.001v-0.002l-0.002 16.947c-0.369-0.099-0.739-0.194-1.111-0.285-4.676-1.144-9.653-1.661-14.648-1.654-0.174 0-0.348 0.001-0.522 0.003-0.174-0.002-0.348-0.003-0.523-0.003-4.998-0.007-9.978 0.511-14.656 1.656-0.369 0.091-0.737 0.185-1.102 0.283l-0.003-16.945 0.005-0.001 0.003-0.002z" fill="#a51417"/><path d="m25.814 24.65v0.002 0.31836 0.0098 1.9102c0.0012 0.02 0 0.0425 0 0.0625v0.07227l0.0039 5.9043v0.48633 0.69531c0.45625 0.1225 0.9157 0.23977 1.377 0.35352 1.0625 0.26 2.1377 0.49438 3.2227 0.70312 4.8875 0.9425 9.9839 1.3747 15.098 1.3672 0.2175 0 0.43484-0.0014 0.65234-0.0039 0.2175 0.0025 0.43484 0.0039 0.65234 0.0039 5.12 0.0075 10.225-0.42609 15.117-1.3711 1.075-0.2075 2.1409-0.43976 3.1934-0.69726 0.465-0.11375 0.92742-0.23172 1.3887-0.35547v-0.69531-0.48633l0.002-4.8203c0.0025-0.1975 0.0034-0.40258 0.0059-0.61133v-2.8477l-0.0059 0.0039h-0.0039c-1.235 0.27625-2.487 0.52836-3.752 0.75586-5.3325 0.96-10.91 1.4891-16.555 1.5254h-0.07422c-5.645-0.03625-11.222-0.56539-16.555-1.5254-1.265-0.2275-2.5157-0.47961-3.752-0.75586l-0.0098-0.0039h-0.0059zm0.002 16.492v6.9629c3.1725 0.73625 4.7592 1.1287 7.1367 1.3574h0.002v-6.9102c-2.3362-0.2325-4.3017-0.62516-7.1367-1.4102h-0.002zm40.707 0c-2.835 0.785-4.8005 1.1777-7.1367 1.4102v6.9102h0.0039c2.3775-0.22875 3.9623-0.62117 7.1348-1.3574v-6.9629h-0.002zm-40.703 14.148v0.33008c-0.0012 0.03375-0.000703 0.07117-0.002 0.10742-0.0013 0.10625-0.0027 0.22476-0.0039 0.35352v0.31641 0.03906 0.0078c0.0012 0.32875 0.0021 0.70219 0.0059 1.0859v0.60742c0.01125 1.1675 0.0293 2.25 0.0293 2.25 0.175 3.5938 2.5176 4.8535 10.83 7.9785 2.56 0.9625 5.6865 2.103 9.4902 3.543l0.002-0.002h0.0039v0.002c3.805-1.44 6.9322-2.5805 9.4922-3.543 8.3125-3.125 10.655-4.3848 10.83-7.9785 0 0 0.0168-1.0825 0.0293-2.25v-0.60742-1.9102-0.32617-0.0039l-0.0059 0.0039-0.0098 0.002c-1.235 0.275-2.487 0.52641-3.752 0.75391-5.3312 0.96-10.907 1.4891-16.551 1.5254h-0.07031c-5.6438-0.03625-11.22-0.56539-16.551-1.5254-0.21625-0.03875-0.43414-0.07914-0.65039-0.11914-1.0462-0.195-2.0824-0.40727-3.1074-0.63477h-0.002l-0.0039-0.002-0.0039-0.0039z" transform="matrix(.8 0 0 -.8 26.718 435.93)" fill="#e1c4ac"/><path d="m33.207 27.354-0.82226 2.4453-2.582 0.02734 2.0742 1.5371-0.77539 2.4609 2.1055-1.4961 2.1055 1.4961-0.77734-2.4609 2.0781-1.5371-2.584-0.02734-0.82227-2.4453zm25.928 0-0.82031 2.4453-2.582 0.02734 2.0742 1.5371-0.77539 2.4609 2.1035-1.4961 2.1055 1.4961-0.77539-2.4609 2.0742-1.5371-2.582-0.02734-0.82226-2.4453zm-12.963 1.021l-0.88477 2.6426-2.7832 0.02344 2.2344 1.6562-0.83398 2.6562 2.2676-1.6152 2.2676 1.6152-0.83398-2.6562 2.2344-1.6562-2.7812-0.02344-0.887-2.643zm-12.967 29.447-0.65039 0.65234v1.7637l0.38867 0.9375v1.5176h0.26367 0.26367v-1.5176l0.38867-0.9375v-1.7637l-0.65039-0.65234-0.002 0.0059-0.002-0.0059zm25.928 0-0.65039 0.65234v1.7637l0.38867 0.9375v1.5176h0.26562 0.26367v-1.5176l0.38867-0.9375v-1.7637l-0.65039-0.65234-0.002 0.0059-0.0039-0.0059zm-12.965 1.248-0.89258 0.89063v2.4238l0.5332 1.2812v2.0801h0.36328 0.36328v-2.0801l0.53125-1.2812v-2.4238l-0.89258-0.89063-0.002 0.0039-0.0039-0.0039zm-16.178 1.2598v0.83789l0.50586 0.50976 0.78516-0.50976 0.65039 0.60352v0.9043h0.55469v-1.418l-0.73828-0.92773h-1.7578zm4.6758 0-0.73828 0.92773v1.418h0.55469v-0.9043l0.65039-0.60352 0.78516 0.50976 0.50781-0.50976v-0.83789h-1.7598zm21.252 0v0.83789l0.50586 0.50976 0.78711-0.50976 0.64844 0.60352v0.9043h0.55664v-1.418l-0.73828-0.92773h-1.7598zm4.6777 0-0.74023 0.92773v1.418h0.55469v-0.9043l0.65039-0.60352 0.78516 0.50976 0.50586-0.50976v-0.83789h-1.7559zm-18.838 2.1777v1.1504l0.69727 0.69727 1.0762-0.69727 0.88867 0.82812v1.2402h0.76367v-1.9473l-1.0117-1.2715h-2.4141zm6.4141 0-1.0117 1.2715v1.9473h0.75977v-1.2402l0.89258-0.82812 1.0781 0.69727 0.69531-0.69727v-1.1504h-2.4141zm-15.229 0.69922v0.74414l-0.4375 0.69531 0.62891 0.77344 0.05078 0.06445 0.02148 0.02539 0.01953-0.02539 0.05273-0.06445 0.62891-0.77344-0.4375-0.69531v-0.74414h-0.26367-0.26367zm0.99024 0v0.6543l0.375 0.46289 0.73828-0.60156v-0.51562h-1.1133zm24.938 0v0.74414l-0.43555 0.69531 0.62891 0.77344 0.05078 0.06445 0.02148 0.02539 0.01953-0.02539 0.05078-0.06445 0.62891-0.77344-0.43555-0.69531v-0.74414h-0.26367-0.26562zm0.99219 0v0.6543l0.37305 0.46289 0.73828-0.60156v-0.51562h-1.1113zm-28.496 0.002v0.51367l0.73828 0.59961 0.37305-0.46094v-0.65234h-1.1113zm25.93 0v0.51367l0.73828 0.59961 0.37305-0.46094v-0.65234h-1.1113zm-13.646 3.248v0.70508l1.0117 0.82422 0.51172-0.63281v-0.89648h-1.5234zm2.1582 0v1.0176l-0.5957 0.95898 0.85938 1.0586 0.07227 0.08398 0.02734 0.0332 0.02734-0.0332 0.07031-0.08398 0.86133-1.0586-0.5957-0.95898v-1.0176h-0.36328-0.36328zm1.3633 0v0.89453l0.50977 0.63672 1.0117-0.82617v-0.70508h-1.5215z" transform="matrix(.8 0 0 -.8 26.718 435.93)" fill="#007360"/><path d="m37.672 38.812v11.896h0.002 7.3086l1.1797 1.2441 0.0098-0.0078 0.0098 0.0078 1.1777-1.2441h7.3086 0.002v-11.896h-0.002-7.3125-0.05078l-0.80664 0.81445-0.32617 0.31055-0.32812-0.31055-0.80664-0.81445h-0.05273-7.3105-0.002zm-1.4453 1.0352-1.1328 0.83789-0.62305 0.45703v12.85h0.002 9.7988l1.7031 1.4668 0.18555 0.17774 0.0098-0.0078 0.01172 0.0078 0.18555-0.17774 1.7031-1.4668h9.7988 0.002v-12.85l-0.97852-0.7207-0.7793-0.57422v3.1562 9.2344h-8.4551-0.03125l-0.87891 0.82617-0.57812 0.52734-0.57617-0.52734-0.87891-0.82617h-0.03125-8.457v-12.346-0.04492z" transform="matrix(.8 0 0 -.8 26.718 435.93)" fill="#fff"/><path d="m45.166 40.721c-0.06375 0-0.13836 0.0088-0.22461 0.01758-0.12125 0.01125-0.26992 0.02344-0.45117 0.02344-0.12375 0-0.22039-0.0055-0.30664-0.01172-0.06375-0.0037-0.11867-0.0078-0.16992-0.0078-0.04375 0-0.11133 0.07812-0.11133 0.10937 0 0.05625 0.05898 0.06562 0.17773 0.07813 0.08625 0.0075 0.12695 0.11555 0.12695 0.18555v1.7441c0 0.11-0.06602 0.18-0.10352 0.1875-0.02625 0.0063-0.08164 0.01664-0.08789 0.05664-0.0025 0.01-0.0069 0.01469-0.01563 0.02344-0.01 0.01-0.02539 0.02398-0.02539 0.05273 0 0.0525 0.05609 0.05273 0.08984 0.05273 0.045 0 0.08867-0.0041 0.13867-0.0078 0.06375-0.0063 0.13688-0.01172 0.23438-0.01172 0.105 0 0.1818 0.0048 0.24805 0.0098 0.05625 0.005 0.10992 0.0098 0.16992 0.0098 0.0575 0 0.06984-0.01258 0.08984-0.04883 0.0012-0.0025 0.008-0.0053 0.01172-0.0078 0.0125-0.01 0.0332-0.02523 0.0332-0.05273 0-0.0775-0.09672-0.07813-0.16797-0.07813-0.0925 0-0.19141-0.05805-0.19141-0.18555v-0.75c0.0125 0.0012 0.02531 0.0027 0.03906 0.0039 0.08625 0.0125 0.17438 0.02539 0.29688 0.02539 0.495 0 0.86523-0.43336 0.86523-0.81836 0-0.36375-0.26102-0.59961-0.66602-0.59961zm-0.26953 0.25195c0.01125 0 0.02125-0.0012 0.03125 0 0.32375 0.0025 0.48242 0.14766 0.48242 0.44141 0 0.2425-0.1075 0.50391-0.40625 0.50391-0.12875 0-0.37305-0.04805-0.37305-0.12305v-0.80664c0.0825-0.0075 0.19688-0.01563 0.26562-0.01563zm2.9082 0.30078c-0.01375 0-0.02242 0.0086-0.04492 0.02734-0.045 0.035-0.12922 0.10156-0.23047 0.10156h-0.08008-0.04102c-0.04375 0-0.08055-0.0014-0.0918 0.02734-0.01 0.015-0.01984 0.0257-0.02734 0.0332-0.01375 0.015-0.0293 0.03039-0.0293 0.05664 0 0.04625 0.03633 0.05039 0.08008 0.05664 0.02125 0.0025 0.05109 0.0062 0.08984 0.01367 0.0225 0.005 0.06055 0.01195 0.06055 0.18945v1.0332c0 0.17875-0.02719 0.20812-0.08594 0.23438-0.0225 0.01-0.03898 0.01719-0.05273 0.02344-0.04875 0.01875-0.06937 0.02695-0.07812 0.06445-0.0025 0.0125-0.006 0.01984-0.0098 0.02734-0.0037 0.0087-0.0098 0.01875-0.0098 0.03125 0 0.01 0.0041 0.03906 0.05664 0.03906 0.035 0 0.0768-0.0028 0.12305-0.0078 0.06875-0.005 0.15281-0.01172 0.25781-0.01172 0.075 0 0.15086 0.0048 0.22461 0.0098 0.07125 0.005 0.13742 0.0098 0.20117 0.0098 0.0425 0 0.05656-0.02289 0.07031-0.05664 0-0.0025 0.0041-0.006 0.0078-0.0098 0.01-0.01 0.02344-0.02649 0.02344-0.05273 0-0.04875-0.04648-0.05148-0.08398-0.05273-0.03-0.0012-0.06984-0.0012-0.12109-0.01367-0.0675-0.0175-0.14258-0.05273-0.14258-0.24023v-0.75781c0-0.20625 0.12516-0.44531 0.28516-0.44531 0.02875 0 0.06219 0.03695 0.08594 0.06445 0.02625 0.02875 0.04461 0.04883 0.06836 0.04883 0.0625 0 0.21875-0.25227 0.21875-0.29102 0-0.0775-0.1393-0.15234-0.24805-0.15234-0.135 0-0.18523 0.0543-0.30273 0.18555-0.03125 0.035-0.06898 0.0782-0.11524 0.12695 0.0025-0.1075 0.01469-0.15641 0.02344-0.19141 0.005-0.02 0.0098-0.03664 0.0098-0.05664 0-0.045-0.0793-0.06445-0.0918-0.06445zm-1.2441 0.002c-0.52 0-0.86914 0.51484-0.86914 0.99609 0 0.61375 0.29453 0.99609 0.76953 0.99609 0.42625 0 0.72852-0.38469 0.72852-0.46094 0-0.02125 0.0021-0.03898 0.0059-0.05273 0.0013-0.0125 0.0039-0.02125 0.0039-0.03125 0-0.05125-0.03578-0.05859-0.05078-0.05859-0.035 0-0.06438 0.03399-0.10938 0.08398-0.08 0.08875-0.1982 0.22266-0.4082 0.22266-0.47125 0-0.55289-0.50492-0.55664-0.82617h0.90039c0.17625 0 0.22461-0.04 0.22461-0.1875 0-0.395-0.26867-0.68164-0.63867-0.68164zm-0.11133 0.2207c0.22625 0 0.30664 0.18773 0.30664 0.36523 0 0.08625 0.000782 0.0957-0.32422 0.0957-0.15125 0-0.23984-0.0044-0.33984-0.01563 0.05125-0.3125 0.15867-0.44531 0.35742-0.44531zm-2.199 2.206c-0.08375 0-0.28125 0.19336-0.28125 0.25586 0 0.06375 0.04914 0.11766 0.08789 0.16016 0.02125 0.02375 0.03773 0.04641 0.05273 0.06641 0.0325 0.045 0.06 0.08398 0.125 0.08398 0.015 0 0.06133-0.001 0.17383-0.13476 0.045-0.05125 0.09766-0.11945 0.09766-0.1582 0-0.09375-0.18211-0.27344-0.25586-0.27344zm-5.0547 0.19531c-0.04125 0-0.055 0.02726-0.0625 0.04102-0.0012 0.0025-0.0046 0.0066-0.0059 0.0078-0.005 0.005-0.0087 0.008-0.01367 0.01172-0.01375 0.0087-0.0332 0.02359-0.0332 0.05859 0 0.05 0.0382 0.05484 0.06445 0.05859 0.01 0.0012 0.02336 0.0048 0.03711 0.0098 0.1375 0.0475 0.17125 0.14172 0.59375 1.293 0.075 0.2025 0.16172 0.43453 0.26172 0.70703 0.025 0.06625 0.04359 0.12633 0.05859 0.17383 0.03625 0.1125 0.05 0.16406 0.09375 0.16406 0.0325 0 0.06484-0.03023 0.12109-0.08398 0.035-0.03375 0.07766-0.07594 0.12891-0.11719 0.065-0.0525 0.07359-0.07937 0.08984-0.14062 0.0063-0.02125 0.01414-0.04633 0.02539-0.08008l0.002-0.0059c0.5925-1.685 0.64219-1.8241 0.80469-1.9141 0.0375-0.02 0.07437-0.04297 0.07813-0.07422 0.0075-0.0075 0.02344-0.02188 0.02344-0.04687 0-0.03625-0.03031-0.0625-0.07031-0.0625-0.0075 0-0.0175 0.0014-0.03125 0.0039-0.0375 0.005-0.1043 0.01758-0.24805 0.01758-0.0725 0-0.16078-0.0067-0.23828-0.01172-0.06375-0.005-0.12352-0.0098-0.16602-0.0098-0.03875 0-0.11719 0.08539-0.11719 0.11914 0 0.07 0.10102 0.06836 0.13476 0.06836 0.09875 0 0.1582 0.06156 0.1582 0.16406 0 0.17625-0.21484 0.76266-0.37109 1.1914-0.06375 0.175-0.11844 0.32281-0.14844 0.41406-0.02625-0.0775-0.06227-0.18328-0.10352-0.30078-0.1575-0.4425-0.42383-1.181-0.42383-1.3223 0-0.1 0.0568-0.12898 0.1543-0.14648 0.065-0.01 0.07875-0.03125 0.09375-0.0625 0.0012-0.0025 0.0087-0.006 0.01367-0.0098 0.01125-0.0075 0.0293-0.01992 0.0293-0.04492 0-0.04375-0.03797-0.07031-0.07422-0.07031-0.0125 0-0.02812 0.0014-0.04688 0.0039-0.04875 0.0063-0.12602 0.01758-0.32226 0.01758-0.17375 0-0.30031-0.0094-0.38281-0.01563-0.04625-0.0025-0.08117-0.0059-0.10742-0.0059zm6.0566 0.12109c-0.02375 0-0.04219 0.01539-0.05469 0.02539-0.005 0.0038-0.01242 0.0078-0.01367 0.0078-0.04125 0-0.06422 0.05734-0.07422 0.08984-0.0925 0.24125-0.22477 0.30938-0.32227 0.35938-0.06625 0.035-0.125 0.06562-0.125 0.14062 0 0.06375 0.08125 0.0625 0.125 0.0625 0.02 0 0.04125 0.000547 0.0625-0.002 0.01375-0.0012 0.02461-0.0027 0.03711-0.0039v1.3086c0 0.38625 0.27367 0.41602 0.35742 0.41602 0.12625 0 0.25039-0.05031 0.40039-0.16406 0.16125-0.12875 0.18164-0.17828 0.18164-0.20703s0.0014-0.03953 0.0039-0.05078c0.0012-0.0087 0.002-0.01539 0.002-0.02539 0-0.04125-0.02648-0.05664-0.05273-0.05664-0.03875 0-0.07344 0.03508-0.11719 0.08008-0.05625 0.0575-0.12609 0.12891-0.21484 0.12891-0.1175 0-0.17774-0.06234-0.17774-0.18359v-1.2402h0.26367c0.0875 0 0.13539-0.02687 0.18164-0.10938 0.0063-0.01125 0.01875-0.02391 0.03125-0.03516 0.0225-0.0225 0.04687-0.04844 0.04687-0.08594 0-0.03625-0.03109-0.06055-0.05859-0.06055-0.03 0-0.05383 0.01359-0.08008 0.02734-0.0375 0.02125-0.08086 0.04297-0.16211 0.04297h-0.22266v-0.11133c0-0.1125 0.0168-0.17781 0.0293-0.22656 0.0063-0.02625 0.01172-0.04641 0.01172-0.06641 0-0.03625-0.02359-0.06055-0.05859-0.06055zm2.9941 0c-0.02375 0-0.04094 0.01469-0.05469 0.02344-0.0038 0.0038-0.01047 0.0098-0.01172 0.0098-0.04 0-0.06617 0.05664-0.07617 0.08789-0.09125 0.24125-0.22406 0.31133-0.32031 0.36133-0.0675 0.035-0.125 0.06562-0.125 0.14062 0 0.06375 0.0793 0.06445 0.12305 0.06445 0.02 0 0.04195-0.0014 0.06445-0.0039 0.0125-0.0012 0.02461-0.0039 0.03711-0.0039v1.3066c0 0.3875 0.27367 0.41797 0.35742 0.41797 0.1275 0 0.24789-0.04906 0.40039-0.16406 0.16125-0.12875 0.17969-0.17828 0.17969-0.20703s0.0027-0.03953 0.0039-0.05078c0.0025-0.0087 0.0039-0.01539 0.0039-0.02539 0-0.04125-0.02648-0.05664-0.05273-0.05664-0.03875 0-0.07344 0.03508-0.11719 0.08008-0.05625 0.0575-0.12805 0.12891-0.2168 0.12891-0.11625 0-0.17578-0.06234-0.17578-0.18359v-1.2383h0.26367c0.0875 0 0.13539-0.02883 0.18164-0.11133 0.0075-0.0125 0.01805-0.02391 0.0293-0.03516 0.0225-0.0225 0.04687-0.04844 0.04687-0.08594 0-0.03625-0.02914-0.06055-0.05664-0.06055-0.03 0-0.05383 0.01359-0.08008 0.02734-0.03625 0.02-0.08086 0.04297-0.16211 0.04297h-0.22266v-0.11133c0-0.1125 0.0168-0.17781 0.0293-0.22656 0.0063-0.02625 0.01172-0.04641 0.01172-0.06641 0-0.03625-0.0243-0.06055-0.06055-0.06055zm2.7031 0.41016c-0.015 0-0.02828 0.0097-0.05078 0.02344-0.0525 0.0325-0.16484 0.09961-0.37109 0.09961-0.045 0-0.07305 0.01438-0.0918 0.04687l-0.0059 0.0039c-0.01375 0.01125-0.02734 0.02891-0.02734 0.06641 0 0.04125 0.03383 0.04719 0.08008 0.05469 0.01875 0.0037 0.04297 0.0081 0.07422 0.01563 0.02 0.0037 0.06836 0.02039 0.06836 0.08789v1.1406c0 0.12125-0.03781 0.20758-0.10156 0.23633-0.02125 0.01-0.03562 0.01648-0.04688 0.02148-0.0325 0.015-0.04289 0.02078-0.05664 0.05078-0.0025 0.0038-0.0067 0.008-0.01172 0.01172-0.0087 0.0063-0.02344 0.01687-0.02344 0.04688 0 0.0525 0.05086 0.05273 0.06836 0.05273 0.05625 0 0.10625-0.0028 0.15625-0.0078 0.06-0.005 0.12891-0.01172 0.22266-0.01172 0.08375 0 0.16953 0.0074 0.23828 0.01367 0.0475 0.0037 0.08774 0.0059 0.11524 0.0059 0.03 0 0.05281-0.0072 0.07031-0.05469 0.0012-0.0025 0.006-0.008 0.0098-0.01172 0.01-0.0087 0.02344-0.02156 0.02344-0.03906 0-0.05125-0.03726-0.05836-0.10352-0.06836-0.02-0.0037-0.04352-0.0067-0.07227-0.01172-0.05625-0.01-0.10742-0.04531-0.10742-0.22656v-0.8457c0-0.19125 0.16469-0.4043 0.39844-0.4043 0.09875 0 0.20508 0.07609 0.20508 0.24609v0.99609c0 0.13625-0.01875 0.20828-0.0625 0.23828-0.01625 0.01125-0.02641 0.01648-0.03516 0.02148-0.0225 0.01375-0.03242 0.02008-0.04492 0.04883-0.0025 0.0038-0.006 0.008-0.0098 0.01172-0.01 0.0075-0.02539 0.01688-0.02539 0.04688 0 0.0525 0.05281 0.05273 0.07031 0.05273 0.02375 0 0.04953-0.0021 0.08203-0.0059 0.0525-0.0062 0.12438-0.01367 0.23438-0.01367 0.0825 0 0.17024 0.0074 0.24024 0.01367 0.04625 0.0037 0.08703 0.0059 0.11328 0.0059 0.03125 0 0.05477-0.0072 0.07227-0.05469 0-0.0025 0.006-0.008 0.0098-0.01172 0.0087-0.0087 0.02148-0.02156 0.02148-0.03906 0-0.05125-0.03695-0.05836-0.0957-0.06836-0.01875-0.0037-0.03891-0.0067-0.06641-0.01172-0.0775-0.01625-0.12109-0.09656-0.12109-0.22656v-0.8457c0-0.19125 0.16469-0.4043 0.39844-0.4043 0.1 0 0.20703 0.07609 0.20703 0.24609v0.99609c0 0.1425-0.01945 0.20953-0.06445 0.23828-0.01625 0.01125-0.0257 0.01648-0.0332 0.02148-0.02375 0.01375-0.03437 0.02008-0.04687 0.04883-0.0025 0.0038-0.006 0.008-0.0098 0.01172-0.01 0.0063-0.02344 0.01687-0.02344 0.04688 0 0.0525 0.05086 0.05273 0.06836 0.05273 0.02375 0 0.04953-0.0021 0.08203-0.0059 0.05375-0.0062 0.12562-0.01367 0.23438-0.01367 0.08375 0 0.17148 0.0074 0.24023 0.01367 0.0475 0.0038 0.08578 0.0059 0.11328 0.0059 0.03125 0 0.05477-0.0072 0.07227-0.05469 0.0012-0.0025 0.006-0.008 0.0098-0.01172 0.0087-0.0087 0.02344-0.02156 0.02344-0.03906 0-0.05125-0.03766-0.05836-0.09766-0.06836-0.0175-0.0037-0.04016-0.0067-0.06641-0.01172-0.0775-0.01625-0.12109-0.09656-0.12109-0.22656v-1.0605c0-0.32125-0.14555-0.48633-0.43555-0.48633-0.12625 0-0.20211 0.05547-0.31836 0.13672-0.06375 0.045-0.14516 0.10086-0.25391 0.16211-0.05125-0.2-0.18375-0.29883-0.40625-0.29883-0.16125 0-0.25055 0.06891-0.37305 0.16016-0.05125 0.03875-0.10844 0.0807-0.17969 0.12695 0.005-0.0575 0.01398-0.10703 0.02148-0.14453 0.0063-0.03375 0.0098-0.05672 0.0098-0.07422 0-0.05-0.08625-0.06836-0.09375-0.06836zm-9.0527 0.002c-0.51875 0-0.86719 0.51484-0.86719 0.99609 0 0.61375 0.29453 0.99609 0.76953 0.99609 0.42625 0 0.72852-0.38469 0.72852-0.46094 0-0.02125 0.0014-0.03703 0.0039-0.05078 0.0025-0.0125 0.0059-0.0232 0.0059-0.0332 0-0.05125-0.03578-0.05664-0.05078-0.05664-0.03625 0-0.06437 0.03203-0.10938 0.08203-0.08 0.08875-0.1982 0.22461-0.4082 0.22461-0.47125 0-0.55289-0.50688-0.55664-0.82812h0.90039c0.17625 0 0.22461-0.04 0.22461-0.1875 0-0.395-0.26938-0.68164-0.64062-0.68164zm1.1797 0c-0.0125 0-0.02313 0.0066-0.04687 0.02539-0.045 0.035-0.12797 0.10156-0.23047 0.10156h-0.07813-0.04102c-0.04375 0-0.08125 0.000547-0.09375 0.0293-0.01 0.015-0.01984 0.02375-0.02734 0.03125-0.01375 0.015-0.02734 0.03039-0.02734 0.05664 0 0.045 0.03758 0.04969 0.08008 0.05469 0.02125 0.0025 0.05109 0.0069 0.08984 0.01563 0.0225 0.0038 0.05859 0.0107 0.05859 0.18945v1.0352c0 0.17875-0.02594 0.20812-0.08594 0.23438-0.02125 0.01-0.03898 0.01523-0.05273 0.02148-0.0475 0.01875-0.06742 0.02695-0.07617 0.06445-0.0025 0.0125-0.006 0.01984-0.0098 0.02734-0.005 0.0087-0.01172 0.01875-0.01172 0.03125 0 0.01 0.0041 0.04102 0.05664 0.04102 0.035 0 0.0775-0.0041 0.125-0.0078 0.0675-0.0062 0.15086-0.01367 0.25586-0.01367 0.075 0 0.15211 0.0048 0.22461 0.0098 0.07125 0.005 0.13812 0.01172 0.20312 0.01172 0.0425 0 0.05586-0.02484 0.06836-0.05859 0.0012-0.0012 0.0053-0.0041 0.0078-0.0078 0.01-0.01125 0.02539-0.02719 0.02539-0.05469 0-0.0475-0.04648-0.04953-0.08398-0.05078-0.03-0.0012-0.07109-0.0031-0.12109-0.01563-0.06875-0.0175-0.14258-0.05148-0.14258-0.24023v-0.75781c0-0.205 0.12445-0.44531 0.2832-0.44531 0.02875 0 0.06289 0.03695 0.08789 0.06445 0.025 0.02875 0.04266 0.05078 0.06641 0.05078 0.0625 0 0.21875-0.25547 0.21875-0.29297 0-0.0775-0.1393-0.15039-0.24805-0.15039-0.135 0-0.18328 0.05234-0.30078 0.18359-0.0325 0.035-0.07094 0.0775-0.11719 0.125 0.0037-0.10625 0.01594-0.15375 0.02344-0.1875 0.005-0.02125 0.0098-0.03859 0.0098-0.05859 0-0.045-0.07609-0.0625-0.08984-0.0625zm1.2988 0c-0.0175 0-0.03148 0.0077-0.05273 0.02148-0.025 0.0175-0.06102 0.04172-0.13477 0.07422-0.0425 0.01875-0.07531 0.02539-0.25781 0.02539-0.04875 0-0.11524 0.07469-0.11524 0.11719s0.03781 0.04297 0.07031 0.04297c0.135 0 0.1582 0.03109 0.1582 0.21484v1.0391c0 0.14-0.04062 0.22203-0.07813 0.23828-0.0925 0.04125-0.10734 0.05024-0.12109 0.08398-0.0025 0.0037-0.0041 0.006-0.0078 0.0098-0.01125 0.0087-0.02148 0.02008-0.02148 0.04883 0 0.0425 0.04899 0.04297 0.08398 0.04297 0.01625 0 0.04047-0.0034 0.07422-0.0059 0.06125-0.0063 0.15539-0.01563 0.27539-0.01563 0.08 0 0.17305 0.0074 0.24805 0.01367 0.05375 0.0038 0.10016 0.0078 0.12891 0.0078 0.03875 0 0.0532-0.01969 0.06445-0.05469 0.0025-0.0038 0.0053-0.0067 0.0078-0.01172 0.0087-0.01125 0.01758-0.02758 0.01758-0.04883 0-0.03125-0.02906-0.03617-0.07031-0.04492-0.0275-0.005-0.06328-0.01234-0.11328-0.02734-0.05-0.01375-0.10547-0.05297-0.10547-0.23047v-1.0449c0-0.2075 0.02-0.31555 0.03125-0.37305 0.0037-0.0225 0.0059-0.03688 0.0059-0.04688 0-0.03875-0.06414-0.07617-0.08789-0.07617zm1.8652 0c-0.02 0-0.03156 0.01414-0.03906 0.02539-0.0037 0.0037-0.006 0.008-0.0098 0.01172-0.0012 0.0012-0.0034 0.0027-0.0059 0.0039-0.01125 0.005-0.03516 0.01594-0.03516 0.05469 0 0.25125-0.04852 0.35961-0.07227 0.41211-0.0087 0.02125-0.01563 0.03578-0.01563 0.05078 0 0.035 0.02555 0.06055 0.06055 0.06055 0.01625 0 0.02867-0.0095 0.04492-0.01953 0.0012-0.0012 0.0053-0.002 0.0078-0.002 0.0225-0.0037 0.04781-0.0095 0.07031-0.05078 0.08625-0.1625 0.27867-0.32617 0.48242-0.32617 0.20125 0 0.30078 0.10898 0.30078 0.33398v0.20312c-0.53 0.0625-1.0645 0.20094-1.0645 0.74219 0 0.3225 0.27914 0.49219 0.55664 0.49219 0.15125 0 0.29008-0.11602 0.42383-0.22852 0.03625-0.03 0.06977-0.05969 0.10352-0.08594 0.02 0.14375 0.12164 0.31445 0.27539 0.31445 0.055 0 0.12867-0.04094 0.20117-0.08594l0.01367-0.0078c0.03125-0.01875 0.06148-0.03172 0.08398-0.04297 0.05-0.02125 0.08789-0.03789 0.08789-0.08789 0-0.0087 0.0021-0.01398 0.0059-0.02148 0.005-0.01 0.0098-0.02281 0.0098-0.03906 0-0.0087-0.000781-0.04687-0.05078-0.04687-0.01 0-0.01906 0.0035-0.03906 0.0098-0.02 0.0075-0.0475 0.01758-0.0625 0.01758-0.07875-0.0087-0.16211-0.0343-0.16211-0.2168v-1.0078c0-0.29875-0.1768-0.46289-0.49805-0.46289-0.07375 0-0.14164 0.01164-0.21289 0.02539-0.08125 0.01375-0.16703 0.02734-0.26953 0.02734-0.08625 0-0.12344-0.02211-0.14844-0.03711-0.015-0.0087-0.02797-0.01563-0.04297-0.01563zm3.4941 0c-0.51875 0-0.86914 0.51484-0.86914 0.99609 0 0.615 0.29648 0.99609 0.77148 0.99609 0.42625 0 0.72656-0.38344 0.72656-0.46094 0-0.02 0.0034-0.03773 0.0059-0.05273 0.0025-0.0125 0.0039-0.02125 0.0039-0.03125 0-0.05125-0.03383-0.05664-0.04883-0.05664-0.03625 0-0.06633 0.03398-0.11133 0.08398-0.07875 0.08875-0.19945 0.22266-0.4082 0.22266-0.47125 0-0.55289-0.50617-0.55664-0.82617h0.90039c0.17625 0 0.22461-0.04125 0.22461-0.1875 0-0.39625-0.26742-0.68359-0.63867-0.68359zm-7.9473 0.2207c0.22625 0 0.30664 0.18969 0.30664 0.36719 0 0.085-0.000469 0.0957-0.32422 0.0957-0.15125 0-0.24109-0.0063-0.33984-0.01758 0.05125-0.3125 0.15867-0.44531 0.35742-0.44531zm7.8359 0c0.2275 0 0.30664 0.18969 0.30664 0.36719 0 0.08625-0.000469 0.0957-0.32422 0.0957-0.1525 0-0.24109-0.0063-0.33984-0.01758 0.05-0.31125 0.15867-0.44531 0.35742-0.44531zm-2.5938 0.70898v0.2793c0 0.175-0.13398 0.48828-0.39648 0.48828-0.14 0-0.24609-0.10609-0.24609-0.24609 0-0.35 0.27305-0.4225 0.56055-0.5 0.0275-0.0062 0.05453-0.01398 0.08203-0.02148zm-0.49024 1.5c-0.0825 0-0.28125 0.19336-0.28125 0.25586s0.05039 0.11695 0.08789 0.1582c0.0225 0.025 0.03898 0.04641 0.05273 0.06641 0.0325 0.045 0.06125 0.08398 0.125 0.08398 0.015 0 0.06008-0.001 0.17383-0.13476 0.04375-0.05 0.09766-0.1182 0.09766-0.1582 0-0.09375-0.18086-0.27148-0.25586-0.27148zm-2.6562 0.19336c-0.04125 0-0.05695 0.02726-0.06445 0.04102-0.0012 0.0037-0.0046 0.0066-0.0059 0.0078-0.005 0.005-0.0087 0.0092-0.01367 0.01172-0.01375 0.01-0.0332 0.02359-0.0332 0.05859 0 0.05 0.0382 0.05484 0.06445 0.05859 0.01 0.0025 0.02336 0.0048 0.03711 0.0098 0.1375 0.0475 0.1732 0.14172 0.5957 1.293 0.07375 0.2025 0.15852 0.43453 0.25976 0.70703 0.025 0.06625 0.04359 0.12633 0.05859 0.17383 0.03625 0.1125 0.05 0.16406 0.09375 0.16406 0.0325 0 0.06484-0.02898 0.12109-0.08398 0.035-0.0325 0.07766-0.07469 0.12891-0.11719 0.065-0.0525 0.0743-0.07813 0.0918-0.14062 0.005-0.02 0.01219-0.04563 0.02344-0.07813l0.0039-0.0098c0.5925-1.6838 0.64023-1.8214 0.80273-1.9102 0.03875-0.0225 0.07563-0.04297 0.07813-0.07422 0.0075-0.0075 0.02344-0.02188 0.02344-0.04687 0-0.03625-0.03031-0.06445-0.07031-0.06445-0.0075 0-0.0175 0.0027-0.03125 0.0039-0.03625 0.0063-0.1043 0.01758-0.24805 0.01758-0.0725 0-0.16078-0.0055-0.23828-0.01172-0.06375-0.0038-0.12352-0.0098-0.16602-0.0098-0.03875 0-0.11719 0.08664-0.11719 0.11914 0 0.07 0.10102 0.06836 0.13476 0.06836 0.09875 0 0.1582 0.06281 0.1582 0.16406 0 0.17625-0.21484 0.76336-0.37109 1.1934-0.06375 0.17375-0.11648 0.32086-0.14648 0.41211-0.02625-0.07625-0.06492-0.18203-0.10742-0.30078-0.1575-0.44125-0.41992-1.181-0.41992-1.3223 0-0.1 0.05484-0.13023 0.15234-0.14648 0.065-0.01 0.07875-0.0293 0.09375-0.06055 0.0012-0.0025 0.008-0.0073 0.01172-0.0098 0.0125-0.0075 0.03125-0.02063 0.03125-0.04687 0-0.04375-0.03727-0.07031-0.07227-0.07031-0.01375 0-0.02813 0.0034-0.04688 0.0059-0.04875 0.005-0.12797 0.01563-0.32422 0.01563-0.17375 0-0.29836-0.0087-0.38086-0.01367-0.04625-0.0037-0.08117-0.0078-0.10742-0.0078zm2.7812 0.5332c-0.0175 0-0.03078 0.0097-0.05078 0.02344-0.02375 0.015-0.06492 0.03977-0.13867 0.07227-0.0425 0.01875-0.07336 0.02539-0.25586 0.02539-0.04875 0-0.11523 0.07469-0.11523 0.11719s0.03781 0.04297 0.07031 0.04297c0.135 0 0.1582 0.03305 0.1582 0.2168v1.0371c0 0.14-0.04062 0.22078-0.07813 0.23828-0.08875 0.03875-0.10805 0.04898-0.12305 0.08398-0.0012 0.005-0.0021 0.0073-0.0059 0.0098-0.01125 0.01-0.02148 0.02133-0.02148 0.04883 0 0.04375 0.04773 0.04297 0.08398 0.04297 0.01625 0 0.04047-0.0021 0.07422-0.0059 0.06125-0.005 0.15539-0.01367 0.27539-0.01367 0.08 0 0.17305 0.0055 0.24805 0.01172 0.05375 0.0037 0.10016 0.0078 0.12891 0.0078 0.0425 0 0.05445-0.02398 0.06445-0.05273 0.0012-0.0037 0.0041-0.0099 0.0078-0.01367 0.0075-0.01125 0.01758-0.02687 0.01758-0.04687 0-0.03125-0.03031-0.03742-0.07031-0.04492-0.0275-0.005-0.06453-0.01234-0.11328-0.02734-0.05-0.015-0.10547-0.05492-0.10547-0.23242v-1.043c0-0.2075 0.02-0.31555 0.03125-0.37305 0.0038-0.0225 0.0059-0.03883 0.0059-0.04883 0-0.03875-0.06414-0.07617-0.08789-0.07617zm1.2031 0c-0.36375 0-0.75781 0.22906-0.75781 0.60156 0 0.34875 0.29875 0.44359 0.5625 0.52734 0.22625 0.07125 0.42188 0.13188 0.42188 0.32812 0 0.1875-0.11867 0.31445-0.29492 0.31445-0.305 0-0.49898-0.13578-0.52148-0.36328-0.0075-0.0675-0.01672-0.13867-0.07422-0.13867-0.015 0-0.03312 0.0088-0.07813 0.04883-0.03 0.03-0.03516 0.0732-0.03516 0.1582 0 0.04125 0.0021 0.07547 0.0059 0.10547 0.0025 0.0225 0.0078 0.04445 0.0078 0.06445 0 0.045-0.0081 0.09242-0.01563 0.13867-0.0075 0.04625-0.01563 0.09313-0.01563 0.14062 0 0.04375 0.02648 0.06641 0.05273 0.06641 0.0225 0 0.0425-0.01289 0.0625-0.02539 0.02125-0.01375 0.04211-0.02734 0.06836-0.02734 0.035 0 0.08508 0.0083 0.14258 0.01953 0.08375 0.015 0.18688 0.0332 0.29687 0.0332 0.5375 0 0.7793-0.38375 0.7793-0.65625 0-0.34625-0.29875-0.44305-0.5625-0.5293-0.225-0.07375-0.41992-0.13883-0.41992-0.33008 0-0.15875 0.13883-0.25586 0.26758-0.25586 0.2525 0 0.42141 0.12 0.44141 0.3125v0.01758c0.0025 0.04 0.0045 0.09375 0.06445 0.09375 0.04625 0 0.10938-0.07805 0.10938-0.12305 0-0.03375-0.0027-0.05844-0.0039-0.08594-0.0025-0.03125-0.0039-0.0657-0.0039-0.12695 0-0.08875 0.0087-0.13438 0.01367-0.17188 0.0037-0.02375 0.0078-0.04476 0.0078-0.07227 0-0.0425-0.01914-0.06445-0.05664-0.06445-0.015 0-0.02711 0.0074-0.03711 0.01367-0.01875 0.01125-0.04367 0.02734-0.10742 0.02734-0.04125 0-0.08656-0.0088-0.13281-0.01758-0.05625-0.01-0.11875-0.02344-0.1875-0.02344z" transform="matrix(.8 0 0 -.8 26.718 435.93)"/></g></g></svg>
