<?xml version="1.0" encoding="UTF-8" standalone="no"?>
<!DOCTYPE svg PUBLIC "-//W3C//DTD SVG 1.1//EN"
 "http://www.w3.org/Graphics/SVG/1.1/DTD/svg11.dtd">
<!-- Generated by graphviz version 2.42.3 (20191010.1750)
 -->
<!-- Title: snakemake_dag Pages: 1 -->
<svg width="212pt" height="404pt"
 viewBox="0.00 0.00 212.00 404.00" xmlns="http://www.w3.org/2000/svg" xmlns:xlink="http://www.w3.org/1999/xlink">
<g id="graph0" class="graph" transform="scale(1 1) rotate(0) translate(4 400)">
<title>snakemake_dag</title>
<polygon fill="white" stroke="transparent" points="-4,4 -4,-400 208,-400 208,4 -4,4"/>
<!-- 0 -->
<g id="node1" class="node">
<title>0</title>
<path fill="none" stroke="#d85656" stroke-width="2" d="M117,-36C117,-36 87,-36 87,-36 81,-36 75,-30 75,-24 75,-24 75,-12 75,-12 75,-6 81,0 87,0 87,0 117,0 117,0 123,0 129,-6 129,-12 129,-12 129,-24 129,-24 129,-30 123,-36 117,-36"/>
<text text-anchor="middle" x="102" y="-15.5" font-family="sans" font-size="10.00">all</text>
</g>
<!-- 1 -->
<g id="node2" class="node">
<title>1</title>
<path fill="none" stroke="#56d8d8" stroke-width="2" d="M192,-108C192,-108 12,-108 12,-108 6,-108 0,-102 0,-96 0,-96 0,-84 0,-84 0,-78 6,-72 12,-72 12,-72 192,-72 192,-72 198,-72 204,-78 204,-84 204,-84 204,-96 204,-96 204,-102 198,-108 192,-108"/>
<text text-anchor="middle" x="102" y="-93" font-family="sans" font-size="10.00">execute_stage</text>
<text text-anchor="middle" x="102" y="-82" font-family="sans" font-size="10.00">stage: stage05_wave_characterization</text>
</g>
<!-- 1&#45;&gt;0 -->
<g id="edge1" class="edge">
<title>1&#45;&gt;0</title>
<path fill="none" stroke="grey" stroke-width="2" d="M102,-71.7C102,-63.98 102,-54.71 102,-46.11"/>
<polygon fill="grey" stroke="grey" stroke-width="2" points="105.5,-46.1 102,-36.1 98.5,-46.1 105.5,-46.1"/>
</g>
<!-- 2 -->
<g id="node3" class="node">
<title>2</title>
<path fill="none" stroke="#56d8d8" stroke-width="2" d="M175.5,-180C175.5,-180 28.5,-180 28.5,-180 22.5,-180 16.5,-174 16.5,-168 16.5,-168 16.5,-156 16.5,-156 16.5,-150 22.5,-144 28.5,-144 28.5,-144 175.5,-144 175.5,-144 181.5,-144 187.5,-150 187.5,-156 187.5,-156 187.5,-168 187.5,-168 187.5,-174 181.5,-180 175.5,-180"/>
<text text-anchor="middle" x="102" y="-165" font-family="sans" font-size="10.00">execute_stage</text>
<text text-anchor="middle" x="102" y="-154" font-family="sans" font-size="10.00">stage: stage04_wave_detection</text>
</g>
<!-- 2&#45;&gt;1 -->
<g id="edge2" class="edge">
<title>2&#45;&gt;1</title>
<path fill="none" stroke="grey" stroke-width="2" d="M102,-143.7C102,-135.98 102,-126.71 102,-118.11"/>
<polygon fill="grey" stroke="grey" stroke-width="2" points="105.5,-118.1 102,-108.1 98.5,-118.1 105.5,-118.1"/>
</g>
<!-- 3 -->
<g id="node4" class="node">
<title>3</title>
<path fill="none" stroke="#56d8d8" stroke-width="2" d="M178.5,-252C178.5,-252 25.5,-252 25.5,-252 19.5,-252 13.5,-246 13.5,-240 13.5,-240 13.5,-228 13.5,-228 13.5,-222 19.5,-216 25.5,-216 25.5,-216 178.5,-216 178.5,-216 184.5,-216 190.5,-222 190.5,-228 190.5,-228 190.5,-240 190.5,-240 190.5,-246 184.5,-252 178.5,-252"/>
<text text-anchor="middle" x="102" y="-237" font-family="sans" font-size="10.00">execute_stage</text>
<text text-anchor="middle" x="102" y="-226" font-family="sans" font-size="10.00">stage: stage03_trigger_detection</text>
</g>
<!-- 3&#45;&gt;2 -->
<g id="edge3" class="edge">
<title>3&#45;&gt;2</title>
<path fill="none" stroke="grey" stroke-width="2" d="M102,-215.7C102,-207.98 102,-198.71 102,-190.11"/>
<polygon fill="grey" stroke="grey" stroke-width="2" points="105.5,-190.1 102,-180.1 98.5,-190.1 105.5,-190.1"/>
</g>
<!-- 4 -->
<g id="node5" class="node">
<title>4</title>
<path fill="none" stroke="#56d8d8" stroke-width="2" d="M163,-324C163,-324 41,-324 41,-324 35,-324 29,-318 29,-312 29,-312 29,-300 29,-300 29,-294 35,-288 41,-288 41,-288 163,-288 163,-288 169,-288 175,-294 175,-300 175,-300 175,-312 175,-312 175,-318 169,-324 163,-324"/>
<text text-anchor="middle" x="102" y="-309" font-family="sans" font-size="10.00">execute_stage</text>
<text text-anchor="middle" x="102" y="-298" font-family="sans" font-size="10.00">stage: stage02_processing</text>
</g>
<!-- 4&#45;&gt;3 -->
<g id="edge4" class="edge">
<title>4&#45;&gt;3</title>
<path fill="none" stroke="grey" stroke-width="2" d="M102,-287.7C102,-279.98 102,-270.71 102,-262.11"/>
<polygon fill="grey" stroke="grey" stroke-width="2" points="105.5,-262.1 102,-252.1 98.5,-262.1 105.5,-262.1"/>
</g>
<!-- 5 -->
<g id="node6" class="node">
<title>5</title>
<path fill="none" stroke="#56d8d8" stroke-width="2" d="M163,-396C163,-396 41,-396 41,-396 35,-396 29,-390 29,-384 29,-384 29,-372 29,-372 29,-366 35,-360 41,-360 41,-360 163,-360 163,-360 169,-360 175,-366 175,-372 175,-372 175,-384 175,-384 175,-390 169,-396 163,-396"/>
<text text-anchor="middle" x="102" y="-381" font-family="sans" font-size="10.00">execute_stage</text>
<text text-anchor="middle" x="102" y="-370" font-family="sans" font-size="10.00">stage: stage01_data_entry</text>
</g>
<!-- 5&#45;&gt;4 -->
<g id="edge5" class="edge">
<title>5&#45;&gt;4</title>
<path fill="none" stroke="grey" stroke-width="2" d="M102,-359.7C102,-351.98 102,-342.71 102,-334.11"/>
<polygon fill="grey" stroke="grey" stroke-width="2" points="105.5,-334.1 102,-324.1 98.5,-334.1 105.5,-334.1"/>
</g>
</g>
</svg>
